<?xml version="1.0" standalone="no"?>
<!DOCTYPE svg PUBLIC "-//W3C//DTD SVG 1.1//EN" "http://www.w3.org/Graphics/SVG/1.1/DTD/svg11.dtd" >
<svg xmlns="http://www.w3.org/2000/svg" xmlns:xlink="http://www.w3.org/1999/xlink" version="1.1">
<metadata>
Created by FontForge 20190801 at Sat Nov 30 16:37:11 2002
 By Jimmy Wärting
Copyright (c) Jakob Fischer at www.pizzadude.dk, 2002. All rights reserved. DO NOT DISTRIBUTE!
</metadata>
<defs>
<font id="Abduction2002" horiz-adv-x="630" >
  <font-face 
    font-family="Abduction2002"
    font-weight="400"
    font-stretch="normal"
    units-per-em="1000"
    panose-1="0 0 0 0 0 0 0 0 0 0"
    ascent="800"
    descent="-200"
    x-height="810"
    cap-height="810"
    bbox="-95 -299 936.714 1035"
    underline-thickness="50"
    underline-position="-125"
    unicode-range="U+001F-203A"
  />
<missing-glyph horiz-adv-x="500" 
d="M63 0v750h375v-750h-375zM125 63h250v625h-250v-625z" />
    <glyph glyph-name=".notdef" horiz-adv-x="500" 
d="M63 0v750h375v-750h-375zM125 63h250v625h-250v-625z" />
    <glyph glyph-name=".null" horiz-adv-x="0" 
 />
    <glyph glyph-name="nonmarkingreturn" 
 />
    <glyph glyph-name="space" unicode=" " 
 />
    <glyph glyph-name="exclam" unicode="!" horiz-adv-x="330" 
d="M47 330q-6 -30 24 -30h150q30 0 36 30q5 30 -25 30h-150q-30 0 -35 -30zM60 405q-5 -30 25 -30h150q30 0 35 30t-25 30h-150q-30 0 -35 -30zM98 450h150q30 0 35 30q6 30 -24 30h-150q-30 0 -36 -30q-5 -30 25 -30zM100 630q-6 -30 24 -30h150q30 0 36 30q5 30 -25 30
h-150q-30 0 -35 -30zM113 705q-5 -30 25 -30h150q30 0 35 30t-25 30h-150q-30 0 -35 -30zM151 750h150q30 0 35 30t-25 30h-150q-30 0 -35 -30t25 -30zM86 555q-5 -30 25 -30h150q30 0 35 30q6 30 -24 30h-150q-30 0 -36 -30zM-6 30q-5 -30 25 -30h150q30 0 35 30t-25 30
h-150q-30 0 -35 -30zM32 75h150q30 0 35 30t-25 30h-150q-30 0 -35 -30t25 -30zM20 180q-5 -30 25 -30h150q30 0 35 30q6 30 -24 30h-150q-30 0 -36 -30z" />
    <glyph glyph-name="quotedbl" unicode="&#x22;" 
d="M122 809h150q30 0 24 -30q-5 -30 -35 -30h-150q-30 0 -25 30q6 30 36 30zM108 734h150q30 0 25 -30t-35 -30h-150q-30 0 -25 30t35 30zM60 630q5 30 35 30h150q30 0 25 -30t-35 -30h-150q-30 0 -25 30zM422 810h150q30 0 24 -30q-5 -30 -35 -30h-150q-30 0 -25 30
q6 30 36 30zM409 735h150q30 0 24 -30q-5 -30 -35 -30h-150q-30 0 -25 30q6 30 36 30zM360 631q5 30 35 30h150q30 0 25 -30t-35 -30h-150q-30 0 -25 30zM109 480q5 30 35 30h75q30 0 25 -30q-6 -30 -36 -30h-75q-30 0 -24 30zM47 555q5 30 35 30h150q30 0 25 -30
q-6 -30 -36 -30h-150q-30 0 -24 30zM409 481q5 30 35 30h75q30 0 25 -30q-6 -30 -36 -30h-75q-30 0 -24 30zM347 556q5 30 35 30h150q30 0 25 -30t-35 -30h-150q-30 0 -25 30z" />
    <glyph glyph-name="numbersign" unicode="#" 
d="M213 675h75q30 0 35 30t-25 30h-75q-30 0 -35 -30t25 -30zM438 675h75q30 0 35 30t-25 30h-75q-30 0 -35 -30t25 -30zM201 780q-5 -30 25 -30h75q30 0 35 30t-25 30h-75q-30 0 -35 -30zM451 750h75q30 0 35 30t-25 30h-75q-30 0 -35 -30t25 -30zM69 30q-5 -30 25 -30h75
q30 0 35 30t-25 30h-75q-30 0 -35 -30zM82 105q-5 -30 25 -30h75q30 0 35 30t-25 30h-75q-30 0 -35 -30zM294 30q-5 -30 25 -30h75q30 0 35 30t-25 30h-75q-30 0 -35 -30zM307 105q-5 -30 25 -30h75q30 0 35 30t-25 30h-75q-30 0 -35 -30zM124 600h450q30 0 36 30
q5 30 -25 30h-450q-30 0 -35 -30q-6 -30 24 -30zM111 525h450q30 0 35 30q6 30 -24 30h-450q-30 0 -36 -30q-5 -30 25 -30zM58 225h450q30 0 36 30q5 30 -25 30h-450q-30 0 -35 -30q-6 -30 24 -30zM45 150h450q30 0 35 30q6 30 -24 30h-450q-30 0 -36 -30q-5 -30 25 -30z
M135 405q-5 -30 25 -30h75q30 0 35 30t-25 30h-75q-30 0 -35 -30zM148 480q-5 -30 25 -30h75q30 0 35 30q6 30 -24 30h-75q-30 0 -36 -30zM360 405q-5 -30 25 -30h75q30 0 35 30t-25 30h-75q-30 0 -35 -30zM373 480q-5 -30 25 -30h75q30 0 35 30q6 30 -24 30h-75
q-30 0 -36 -30zM122 330q-6 -30 24 -30h75q30 0 36 30q5 30 -25 30h-75q-30 0 -35 -30zM347 330q-6 -30 24 -30h75q30 0 36 30q5 30 -25 30h-75q-30 0 -35 -30z" />
    <glyph glyph-name="dollar" unicode="$" 
d="M182 75h90q30 0 35 30t-25 30h-90q-30 0 -35 -30t25 -30zM120 150h300q30 0 35 30q6 30 -24 30h-300q-30 0 -36 -30q-5 -30 25 -30zM199 600h300q30 0 36 30q5 30 -25 30h-300q-30 0 -35 -30q-6 -30 24 -30zM288 675h90q30 0 35 30t-25 30h-90q-30 0 -35 -30t25 -30z
M334 255q-6 -30 24 -30h150q30 0 36 30q5 30 -25 30h-150q-30 0 -35 -30zM86 555q-5 -30 25 -30h150q30 0 35 30q6 30 -24 30h-150q-30 0 -36 -30zM73 480q-5 -30 25 -30h375q30 0 35 30q6 30 -24 30h-375q-30 0 -36 -30zM122 330q-6 -30 24 -30h375q30 0 36 30q5 30 -25 30
h-375q-30 0 -35 -30zM144 30q-5 -30 25 -30h90q30 0 35 30t-25 30h-90q-30 0 -35 -30zM60 405q-5 -30 25 -30h450q30 0 35 30t-25 30h-450q-30 0 -35 -30zM276 780q-5 -30 25 -30h90q30 0 35 30t-25 30h-90q-30 0 -35 -30z" />
    <glyph glyph-name="percent" unicode="%" 
d="M424 600h150q30 0 36 30q5 30 -25 30h-150q-30 0 -35 -30q-6 -30 24 -30zM438 675h150q30 0 35 30t-25 30h-150q-30 0 -35 -30t25 -30zM151 750h150q30 0 35 30t-25 30h-150q-30 0 -35 -30t25 -30zM319 0h150q30 0 35 30t-25 30h-150q-30 0 -35 -30t25 -30zM32 75h150
q30 0 35 30t-25 30h-150q-30 0 -35 -30t25 -30zM45 150h150q30 0 35 30q6 30 -24 30h-150q-30 0 -36 -30q-5 -30 25 -30zM298 480q-5 -30 25 -30h150q30 0 35 30q6 30 -24 30h-150q-30 0 -36 -30zM133 225h150q30 0 36 30q5 30 -25 30h-150q-30 0 -35 -30q-6 -30 24 -30z
M336 525h150q30 0 35 30q6 30 -24 30h-150q-30 0 -36 -30q-5 -30 25 -30zM122 330q-6 -30 24 -30h150q30 0 36 30q5 30 -25 30h-150q-30 0 -35 -30zM235 375h150q30 0 35 30t-25 30h-150q-30 0 -35 -30t25 -30zM138 675h150q30 0 35 30t-25 30h-150q-30 0 -35 -30t25 -30z
M124 600h150q30 0 36 30q5 30 -25 30h-150q-30 0 -35 -30q-6 -30 24 -30zM332 75h150q30 0 35 30t-25 30h-150q-30 0 -35 -30t25 -30zM345 150h150q30 0 35 30q6 30 -24 30h-150q-30 0 -36 -30q-5 -30 25 -30z" />
    <glyph glyph-name="ampersand" unicode="&#x26;" horiz-adv-x="705" 
d="M7 105q-5 -30 25 -30h600q30 0 35 30t-25 30h-600q-30 0 -35 -30zM20 180q-5 -30 25 -30h600q30 0 35 30q6 30 -24 30h-600q-30 0 -36 -30zM47 330q-6 -30 24 -30h525q30 0 36 30q5 30 -25 30h-525q-30 0 -35 -30zM135 405q-5 -30 25 -30h525q30 0 35 30t-25 30h-525
q-30 0 -35 -30zM100 630q-6 -30 24 -30h450q30 0 36 30q5 30 -25 30h-450q-30 0 -35 -30zM113 705q-5 -30 25 -30h450q30 0 35 30t-25 30h-450q-30 0 -35 -30zM226 750h375q30 0 35 30t-25 30h-375q-30 0 -35 -30t25 -30zM69 30q-5 -30 25 -30h300q30 0 35 30t-25 30h-300
q-30 0 -35 -30zM223 480q-5 -30 25 -30h150q30 0 35 30q6 30 -24 30h-150q-30 0 -36 -30zM161 555q-5 -30 25 -30h150q30 0 35 30q6 30 -24 30h-150q-30 0 -36 -30zM34 255q-6 -30 24 -30h150q30 0 36 30q5 30 -25 30h-150q-30 0 -35 -30zM409 255q-6 -30 24 -30h150
q30 0 36 30q5 30 -25 30h-150q-30 0 -35 -30zM598 480q-5 -30 25 -30h75q30 0 35 30q6 30 -24 30h-75q-30 0 -36 -30zM519 30q-5 -30 25 -30h75q30 0 35 30t-25 30h-75q-30 0 -35 -30z" />
    <glyph glyph-name="quotesingle" unicode="'" horiz-adv-x="330" 
d="M122 809h150q30 0 24 -30q-5 -30 -35 -30h-150q-30 0 -25 30q6 30 36 30zM108 734h150q30 0 25 -30t-35 -30h-150q-30 0 -25 30t35 30zM60 630q5 30 35 30h150q30 0 25 -30t-35 -30h-150q-30 0 -25 30zM109 480q5 30 35 30h75q30 0 25 -30q-6 -30 -36 -30h-75
q-30 0 -24 30zM47 555q5 30 35 30h150q30 0 25 -30t-35 -30h-150q-30 0 -25 30z" />
    <glyph glyph-name="parenleft" unicode="(" horiz-adv-x="330" 
d="M124 600h150q30 0 36 30q5 30 -25 30h-150q-30 0 -35 -30q-6 -30 24 -30zM138 675h150q30 0 35 30t-25 30h-150q-30 0 -35 -30t25 -30zM85 375h150q30 0 35 30t-25 30h-150q-30 0 -35 -30t25 -30zM34 255q-6 -30 24 -30h150q30 0 36 30q5 30 -25 30h-150q-30 0 -35 -30z
M226 750h75q30 0 35 30t-25 30h-75q-30 0 -35 -30t25 -30zM111 525h150q30 0 35 30q6 30 -24 30h-150q-30 0 -36 -30q-5 -30 25 -30zM71 300h150q30 0 36 30q5 30 -25 30h-150q-30 0 -35 -30q-6 -30 24 -30zM32 75h150q30 0 35 30t-25 30h-150q-30 0 -35 -30t25 -30zM45 150
h150q30 0 35 30q6 30 -24 30h-150q-30 0 -36 -30q-5 -30 25 -30zM98 450h150q30 0 35 30q6 30 -24 30h-150q-30 0 -36 -30q-5 -30 25 -30zM289 855q-5 -30 25 -30h75q30 0 35 30q6 30 -24 30h-75q-30 0 -36 -30zM69 30q-5 -30 25 -30h75q30 0 35 30t-25 30h-75
q-30 0 -35 -30zM131 -45q-6 -30 24 -30h75q30 0 36 30q5 30 -25 30h-75q-30 0 -35 -30z" />
    <glyph glyph-name="parenright" unicode=")" horiz-adv-x="330" 
d="M274 600h-150q-30 0 -24 30q5 30 35 30h150q30 0 25 -30q-6 -30 -36 -30zM288 675h-150q-30 0 -25 30t35 30h150q30 0 25 -30t-35 -30zM235 375h-150q-30 0 -25 30t35 30h150q30 0 25 -30t-35 -30zM244 255q-6 -30 -36 -30h-150q-30 0 -24 30q5 30 35 30h150q30 0 25 -30
zM226 750h-75q-30 0 -25 30t35 30h75q30 0 25 -30t-35 -30zM261 525h-150q-30 0 -25 30q6 30 36 30h150q30 0 24 -30q-5 -30 -35 -30zM221 300h-150q-30 0 -24 30q5 30 35 30h150q30 0 25 -30q-6 -30 -36 -30zM182 75h-150q-30 0 -25 30t35 30h150q30 0 25 -30t-35 -30z
M195 150h-150q-30 0 -25 30q6 30 36 30h150q30 0 24 -30q-5 -30 -35 -30zM248 450h-150q-30 0 -25 30q6 30 36 30h150q30 0 24 -30q-5 -30 -35 -30zM199 855q-5 -30 -35 -30h-75q-30 0 -25 30q6 30 36 30h75q30 0 24 -30zM129 30q-5 -30 -35 -30h-75q-30 0 -25 30t35 30h75
q30 0 25 -30zM41 -45q-6 -30 -36 -30h-75q-30 0 -24 30q5 30 35 30h75q30 0 25 -30z" />
    <glyph glyph-name="asterisk" unicode="*" 
d="M60 405q-5 -30 25 -30h450q30 0 35 30t-25 30h-450q-30 0 -35 -30zM161 555q-5 -30 25 -30h75q30 0 35 30q6 30 -24 30h-75q-30 0 -36 -30zM248 450h150q30 0 35 30q6 30 -24 30h-150q-30 0 -36 -30q-5 -30 25 -30zM197 330q-6 -30 24 -30h150q30 0 36 30q5 30 -25 30
h-150q-30 0 -35 -30zM386 555q-5 -30 25 -30h75q30 0 35 30q6 30 -24 30h-75q-30 0 -36 -30zM109 255q-6 -30 24 -30h75q30 0 36 30q5 30 -25 30h-75q-30 0 -35 -30zM334 255q-6 -30 24 -30h75q30 0 36 30q5 30 -25 30h-75q-30 0 -35 -30zM100 630q-6 -30 24 -30h75
q30 0 36 30q5 30 -25 30h-75q-30 0 -35 -30zM475 630q-6 -30 24 -30h75q30 0 36 30q5 30 -25 30h-75q-30 0 -35 -30zM13 180q-5 -30 25 -30h75q30 0 35 30q6 30 -24 30h-75q-30 0 -36 -30zM395 180q-5 -30 25 -30h75q30 0 35 30q6 30 -24 30h-75q-30 0 -36 -30z" />
    <glyph glyph-name="plus" unicode="+" 
d="M60 405q-5 -30 25 -30h450q30 0 35 30t-25 30h-450q-30 0 -35 -30zM73 480q-5 -30 25 -30h450q30 0 35 30q6 30 -24 30h-450q-30 0 -36 -30zM71 300h450q30 0 36 30q5 30 -25 30h-450q-30 0 -35 -30q-6 -30 24 -30zM250 630q-6 -30 24 -30h150q30 0 36 30q5 30 -25 30
h-150q-30 0 -35 -30zM263 705q-5 -30 25 -30h150q30 0 35 30t-25 30h-150q-30 0 -35 -30zM261 525h150q30 0 35 30q6 30 -24 30h-150q-30 0 -36 -30q-5 -30 25 -30zM170 180q-5 -30 25 -30h150q30 0 35 30q6 30 -24 30h-150q-30 0 -36 -30zM184 255q-6 -30 24 -30h150
q30 0 36 30q5 30 -25 30h-150q-30 0 -35 -30zM182 75h150q30 0 35 30t-25 30h-150q-30 0 -35 -30t25 -30z" />
    <glyph glyph-name="comma" unicode="," horiz-adv-x="330" 
d="M67 105q-6 -30 24 -30h150q30 0 36 30q5 30 -25 30h-150q-30 0 -35 -30zM80 180q-5 -30 25 -30h150q30 0 35 30t-25 30h-150q-30 0 -35 -30zM78 0h150q30 0 35 30q6 30 -24 30h-150q-30 0 -36 -30q-5 -30 25 -30zM115 -45q-5 -30 25 -30h75q30 0 35 30t-25 30h-75
q-30 0 -35 -30z" />
    <glyph glyph-name="hyphen" unicode="-" 
d="M60 405q-5 -30 25 -30h450q30 0 35 30t-25 30h-450q-30 0 -35 -30zM73 480q-5 -30 25 -30h450q30 0 35 30q6 30 -24 30h-450q-30 0 -36 -30zM71 300h450q30 0 36 30q5 30 -25 30h-450q-30 0 -35 -30q-6 -30 24 -30z" />
    <glyph glyph-name="hyphen" unicode="&#x2010;" 
d="M60 405q-5 -30 25 -30h450q30 0 35 30t-25 30h-450q-30 0 -35 -30zM73 480q-5 -30 25 -30h450q30 0 35 30q6 30 -24 30h-450q-30 0 -36 -30zM71 300h450q30 0 36 30q5 30 -25 30h-450q-30 0 -35 -30q-6 -30 24 -30z" />
    <glyph glyph-name="period" unicode="." horiz-adv-x="330" 
d="M60 105q-5 -30 25 -30h150q30 0 35 30t-25 30h-150q-30 0 -35 -30zM73 180q-5 -30 25 -30h150q30 0 35 30q6 30 -24 30h-150q-30 0 -36 -30zM71 0h150q30 0 36 30q5 30 -25 30h-150q-30 0 -35 -30q-6 -30 24 -30z" />
    <glyph glyph-name="slash" unicode="/" horiz-adv-x="479" 
d="M274 600h150q30 0 36 30q5 30 -25 30h-150q-30 0 -35 -30q-6 -30 24 -30zM288 675h150q30 0 35 30t-25 30h-150q-30 0 -35 -30t25 -30zM301 750h150q30 0 35 30t-25 30h-150q-30 0 -35 -30t25 -30zM19 0h150q30 0 35 30t-25 30h-150q-30 0 -35 -30t25 -30zM32 75h150
q30 0 35 30t-25 30h-150q-30 0 -35 -30t25 -30zM45 150h150q30 0 35 30q6 30 -24 30h-150q-30 0 -36 -30q-5 -30 25 -30zM148 480q-5 -30 25 -30h150q30 0 35 30q6 30 -24 30h-150q-30 0 -36 -30zM58 225h150q30 0 36 30q5 30 -25 30h-150q-30 0 -35 -30q-6 -30 24 -30z
M261 525h150q30 0 35 30q6 30 -24 30h-150q-30 0 -36 -30q-5 -30 25 -30zM122 330q-6 -30 24 -30h150q30 0 36 30q5 30 -25 30h-150q-30 0 -35 -30zM160 375h150q30 0 35 30t-25 30h-150q-30 0 -35 -30t25 -30z" />
    <glyph glyph-name="zero" unicode="0" 
d="M124 600h450q30 0 36 30q5 30 -25 30h-450q-30 0 -35 -30q-6 -30 24 -30zM138 675h450q30 0 35 30t-25 30h-450q-30 0 -35 -30t25 -30zM32 75h450q30 0 35 30t-25 30h-450q-30 0 -35 -30t25 -30zM45 150h450q30 0 35 30q6 30 -24 30h-450q-30 0 -36 -30q-5 -30 25 -30z
M47 330q-6 -30 24 -30h150q30 0 36 30q5 30 -25 30h-150q-30 0 -35 -30zM60 405q-5 -30 25 -30h150q30 0 35 30t-25 30h-150q-30 0 -35 -30zM98 450h150q30 0 35 30q6 30 -24 30h-150q-30 0 -36 -30q-5 -30 25 -30zM347 330q-6 -30 24 -30h150q30 0 36 30q5 30 -25 30h-150
q-30 0 -35 -30zM360 405q-5 -30 25 -30h150q30 0 35 30t-25 30h-150q-30 0 -35 -30zM398 450h150q30 0 35 30q6 30 -24 30h-150q-30 0 -36 -30q-5 -30 25 -30zM86 555q-5 -30 25 -30h150q30 0 35 30q6 30 -24 30h-150q-30 0 -36 -30zM411 525h150q30 0 35 30q6 30 -24 30
h-150q-30 0 -36 -30q-5 -30 25 -30zM34 255q-6 -30 24 -30h150q30 0 36 30q5 30 -25 30h-150q-30 0 -35 -30zM358 225h150q30 0 36 30q5 30 -25 30h-150q-30 0 -35 -30q-6 -30 24 -30zM201 780q-5 -30 25 -30h300q30 0 35 30t-25 30h-300q-30 0 -35 -30zM69 30
q-5 -30 25 -30h300q30 0 35 30t-25 30h-300q-30 0 -35 -30z" />
    <glyph glyph-name="one" unicode="1" horiz-adv-x="480" 
d="M122 330q-6 -30 24 -30h150q30 0 36 30q5 30 -25 30h-150q-30 0 -35 -30zM135 405q-5 -30 25 -30h150q30 0 35 30t-25 30h-150q-30 0 -35 -30zM173 450h150q30 0 35 30q6 30 -24 30h-150q-30 0 -36 -30q-5 -30 25 -30zM100 630q-6 -30 24 -30h225q30 0 36 30q5 30 -25 30
h-225q-30 0 -35 -30zM188 705q-5 -30 25 -30h150q30 0 35 30t-25 30h-150q-30 0 -35 -30zM301 750h75q30 0 35 30t-25 30h-75q-30 0 -35 -30t25 -30zM161 555q-5 -30 25 -30h150q30 0 35 30q6 30 -24 30h-150q-30 0 -36 -30zM133 225h150q30 0 36 30q5 30 -25 30h-150
q-30 0 -35 -30q-6 -30 24 -30zM-6 30q-5 -30 25 -30h300q30 0 35 30t-25 30h-300q-30 0 -35 -30zM32 75h300q30 0 35 30t-25 30h-300q-30 0 -35 -30t25 -30zM20 180q-5 -30 25 -30h300q30 0 35 30q6 30 -24 30h-300q-30 0 -36 -30z" />
    <glyph glyph-name="two" unicode="2" 
d="M482 75h-450q-30 0 -25 30t35 30h450q30 0 25 -30t-35 -30zM495 150h-450q-30 0 -25 30q6 30 36 30h450q30 0 24 -30q-5 -30 -35 -30zM574 600h-450q-30 0 -24 30q5 30 35 30h450q30 0 25 -30q-6 -30 -36 -30zM588 675h-450q-30 0 -25 30t35 30h450q30 0 25 -30t-35 -30z
M244 255q-6 -30 -36 -30h-150q-30 0 -24 30q5 30 35 30h150q30 0 25 -30zM596 555q-5 -30 -35 -30h-150q-30 0 -25 30q6 30 36 30h150q30 0 24 -30zM583 480q-5 -30 -35 -30h-375q-30 0 -25 30q6 30 36 30h375q30 0 24 -30zM489 330q-6 -30 -36 -30h-382q-30 0 -24 30
q5 30 35 30h382q30 0 25 -30zM504 30q-5 -30 -35 -30h-450q-30 0 -25 30t35 30h450q30 0 25 -30zM561 780q-5 -30 -35 -30h-375q-30 0 -25 30t35 30h375q30 0 25 -30zM570 405q-5 -30 -35 -30h-450q-30 0 -25 30t35 30h450q30 0 25 -30z" />
    <glyph glyph-name="three" unicode="3" 
d="M574 600h-450q-30 0 -24 30q5 30 35 30h450q30 0 25 -30q-6 -30 -36 -30zM588 675h-450q-30 0 -25 30t35 30h450q30 0 25 -30t-35 -30zM548 450h-375q-30 0 -25 30q6 30 36 30h375q30 0 24 -30q-5 -30 -35 -30zM460 375h-300q-30 0 -25 30t35 30h300q30 0 25 -30t-35 -30
zM521 300h-375q-30 0 -24 30q5 30 35 30h375q30 0 25 -30q-6 -30 -36 -30zM495 150h-450q-30 0 -25 30q6 30 36 30h450q30 0 24 -30q-5 -30 -35 -30zM482 75h-450q-30 0 -25 30t35 30h450q30 0 25 -30t-35 -30zM544 255q-6 -30 -36 -30h-150q-30 0 -24 30q5 30 35 30h150
q30 0 25 -30zM561 525h-150q-30 0 -25 30q6 30 36 30h150q30 0 24 -30q-5 -30 -35 -30zM429 30q-5 -30 -35 -30h-375q-30 0 -25 30t35 30h375q30 0 25 -30zM561 780q-5 -30 -35 -30h-375q-30 0 -25 30t35 30h375q30 0 25 -30z" />
    <glyph glyph-name="four" unicode="4" 
d="M98 450h450q30 0 35 30q6 30 -24 30h-450q-30 0 -36 -30q-5 -30 25 -30zM85 375h450q30 0 35 30t-25 30h-450q-30 0 -35 -30t25 -30zM146 300h375q30 0 36 30q5 30 -25 30h-375q-30 0 -35 -30q-6 -30 24 -30zM86 555q-5 -30 25 -30h150q30 0 35 30q6 30 -24 30h-150
q-30 0 -36 -30zM100 630q-6 -30 24 -30h150q30 0 36 30q5 30 -25 30h-150q-30 0 -35 -30zM138 675h150q30 0 35 30t-25 30h-150q-30 0 -35 -30t25 -30zM386 555q-5 -30 25 -30h150q30 0 35 30q6 30 -24 30h-150q-30 0 -36 -30zM400 630q-6 -30 24 -30h150q30 0 36 30
q5 30 -25 30h-150q-30 0 -35 -30zM438 675h150q30 0 35 30t-25 30h-150q-30 0 -35 -30t25 -30zM201 780q-5 -30 25 -30h75q30 0 35 30t-25 30h-75q-30 0 -35 -30zM451 750h150q30 0 35 30t-25 30h-150q-30 0 -35 -30t25 -30zM294 30q-5 -30 25 -30h150q30 0 35 30t-25 30
h-150q-30 0 -35 -30zM307 105q-5 -30 25 -30h150q30 0 35 30t-25 30h-150q-30 0 -35 -30zM345 150h150q30 0 35 30q6 30 -24 30h-150q-30 0 -36 -30q-5 -30 25 -30zM358 225h150q30 0 36 30q5 30 -25 30h-150q-30 0 -35 -30q-6 -30 24 -30z" />
    <glyph glyph-name="five" unicode="5" 
d="M32 75h450q30 0 35 30t-25 30h-450q-30 0 -35 -30t25 -30zM45 150h450q30 0 35 30q6 30 -24 30h-450q-30 0 -36 -30q-5 -30 25 -30zM124 600h450q30 0 36 30q5 30 -25 30h-450q-30 0 -35 -30q-6 -30 24 -30zM138 675h450q30 0 35 30t-25 30h-450q-30 0 -35 -30t25 -30z
M334 255q-6 -30 24 -30h150q30 0 36 30q5 30 -25 30h-150q-30 0 -35 -30zM86 555q-5 -30 25 -30h150q30 0 35 30q6 30 -24 30h-150q-30 0 -36 -30zM73 480q-5 -30 25 -30h375q30 0 35 30q6 30 -24 30h-375q-30 0 -36 -30zM115 330q-6 -30 24 -30h382q30 0 36 30q5 30 -25 30
h-382q-30 0 -35 -30zM-6 30q-5 -30 25 -30h375q30 0 35 30t-25 30h-375q-30 0 -35 -30zM141 780q-5 -30 25 -30h435q30 0 35 30t-25 30h-435q-30 0 -35 -30zM60 405q-5 -30 25 -30h450q30 0 35 30t-25 30h-450q-30 0 -35 -30z" />
    <glyph glyph-name="six" unicode="6" 
d="M32 75h450q30 0 35 30t-25 30h-450q-30 0 -35 -30t25 -30zM45 150h450q30 0 35 30q6 30 -24 30h-450q-30 0 -36 -30q-5 -30 25 -30zM124 600h375q30 0 36 30q5 30 -25 30h-375q-30 0 -35 -30q-6 -30 24 -30zM138 675h375q30 0 35 30t-25 30h-375q-30 0 -35 -30t25 -30z
M334 255q-6 -30 24 -30h150q30 0 36 30q5 30 -25 30h-150q-30 0 -35 -30zM86 555q-5 -30 25 -30h150q30 0 35 30q6 30 -24 30h-150q-30 0 -36 -30zM73 480q-5 -30 25 -30h375q30 0 35 30q6 30 -24 30h-375q-30 0 -36 -30zM47 330q-6 -30 24 -30h450q30 0 36 30q5 30 -25 30
h-450q-30 0 -35 -30zM69 30q-5 -30 25 -30h300q30 0 35 30t-25 30h-300q-30 0 -35 -30zM201 780q-5 -30 25 -30h300q30 0 35 30t-25 30h-300q-30 0 -35 -30zM60 405q-5 -30 25 -30h450q30 0 35 30t-25 30h-450q-30 0 -35 -30zM34 255q-6 -30 24 -30h150q30 0 36 30
q5 30 -25 30h-150q-30 0 -35 -30z" />
    <glyph glyph-name="seven" unicode="7" 
d="M124 600h450q30 0 36 30q5 30 -25 30h-450q-30 0 -35 -30q-6 -30 24 -30zM138 675h450q30 0 35 30t-25 30h-450q-30 0 -35 -30t25 -30zM151 750h450q30 0 35 30t-25 30h-450q-30 0 -35 -30t25 -30zM169 0h150q30 0 35 30t-25 30h-150q-30 0 -35 -30t25 -30zM182 75h150
q30 0 35 30t-25 30h-150q-30 0 -35 -30t25 -30zM195 150h150q30 0 35 30q6 30 -24 30h-150q-30 0 -36 -30q-5 -30 25 -30zM298 480q-5 -30 25 -30h150q30 0 35 30q6 30 -24 30h-150q-30 0 -36 -30zM208 225h150q30 0 36 30q5 30 -25 30h-150q-30 0 -35 -30q-6 -30 24 -30z
M411 525h150q30 0 35 30q6 30 -24 30h-150q-30 0 -36 -30q-5 -30 25 -30zM197 330q-6 -30 24 -30h150q30 0 36 30q5 30 -25 30h-150q-30 0 -35 -30zM235 375h150q30 0 35 30t-25 30h-150q-30 0 -35 -30t25 -30z" />
    <glyph glyph-name="eight" unicode="8" 
d="M138 675h450q30 0 35 30t-25 30h-450q-30 0 -35 -30t25 -30zM226 750h300q30 0 35 30t-25 30h-300q-30 0 -35 -30t25 -30zM124 600h450q30 0 36 30q5 30 -25 30h-450q-30 0 -35 -30q-6 -30 24 -30zM98 450h450q30 0 35 30q6 30 -24 30h-450q-30 0 -36 -30q-5 -30 25 -30z
M71 300h450q30 0 36 30q5 30 -25 30h-450q-30 0 -35 -30q-6 -30 24 -30zM45 150h450q30 0 35 30q6 30 -24 30h-450q-30 0 -36 -30q-5 -30 25 -30zM32 75h450q30 0 35 30t-25 30h-450q-30 0 -35 -30t25 -30zM86 555q-5 -30 25 -30h150q30 0 35 30q6 30 -24 30h-150
q-30 0 -36 -30zM386 555q-5 -30 25 -30h150q30 0 35 30q6 30 -24 30h-150q-30 0 -36 -30zM34 255q-6 -30 24 -30h150q30 0 36 30q5 30 -25 30h-150q-30 0 -35 -30zM334 255q-6 -30 24 -30h150q30 0 36 30q5 30 -25 30h-150q-30 0 -35 -30zM69 30q-5 -30 25 -30h300
q30 0 35 30t-25 30h-300q-30 0 -35 -30zM135 405q-5 -30 25 -30h300q30 0 35 30t-25 30h-300q-30 0 -35 -30z" />
    <glyph glyph-name="nine" unicode="9" 
d="M598 735h-450q-30 0 -35 -30t25 -30h450q30 0 35 30t-25 30zM585 660h-450q-30 0 -35 -30q-6 -30 24 -30h450q30 0 36 30q5 30 -25 30zM506 210h-375q-30 0 -36 -30q-5 -30 25 -30h375q30 0 35 30q6 30 -24 30zM492 135h-375q-30 0 -35 -30t25 -30h375q30 0 35 30t-25 30
zM296 555q6 30 -24 30h-150q-30 0 -36 -30q-5 -30 25 -30h150q30 0 35 30zM544 255q5 30 -25 30h-150q-30 0 -35 -30q-6 -30 24 -30h150q30 0 36 30zM557 330q5 30 -25 30h-375q-30 0 -35 -30q-6 -30 24 -30h375q30 0 36 30zM583 480q6 30 -24 30h-450q-30 0 -36 -30
q-5 -30 25 -30h450q30 0 35 30zM561 780q5 30 -25 30h-300q-30 0 -35 -30t25 -30h300q30 0 35 30zM429 30q5 30 -25 30h-300q-30 0 -35 -30t25 -30h300q30 0 35 30zM570 405q5 30 -25 30h-450q-30 0 -35 -30t25 -30h450q30 0 35 30zM596 555q6 30 -24 30h-150q-30 0 -36 -30
q-5 -30 25 -30h150q30 0 35 30z" />
    <glyph glyph-name="colon" unicode=":" horiz-adv-x="330" 
d="M34 105q-6 -30 24 -30h150q30 0 36 30q5 30 -25 30h-150q-30 0 -35 -30zM47 180q-6 -30 24 -30h150q30 0 36 30q5 30 -25 30h-150q-30 0 -35 -30zM45 0h150q30 0 35 30q6 30 -24 30h-150q-30 0 -36 -30q-5 -30 25 -30zM86 405q-5 -30 25 -30h150q30 0 35 30q6 30 -24 30
h-150q-30 0 -36 -30zM100 480q-6 -30 24 -30h150q30 0 36 30q5 30 -25 30h-150q-30 0 -35 -30zM98 300h150q30 0 35 30q6 30 -24 30h-150q-30 0 -36 -30q-5 -30 25 -30z" />
    <glyph glyph-name="semicolon" unicode=";" horiz-adv-x="330" 
d="M93 405q-5 -30 25 -30h150q30 0 35 30t-25 30h-150q-30 0 -35 -30zM106 480q-5 -30 25 -30h150q30 0 35 30q6 30 -24 30h-150q-30 0 -36 -30zM105 300h150q30 0 35 30t-25 30h-150q-30 0 -35 -30t25 -30zM40 105q-5 -30 25 -30h150q30 0 35 30t-25 30h-150q-30 0 -35 -30
zM53 180q-5 -30 25 -30h150q30 0 35 30q6 30 -24 30h-150q-30 0 -36 -30zM52 0h150q30 0 35 30t-25 30h-150q-30 0 -35 -30t25 -30zM89 -45q-6 -30 24 -30h75q30 0 36 30q5 30 -25 30h-75q-30 0 -35 -30z" />
    <glyph glyph-name="less" unicode="&#x3c;" horiz-adv-x="556" 
d="M148 480q-5 -30 25 -30h225q30 0 35 30q6 30 -24 30h-225q-30 0 -36 -30zM146 300h225q30 0 36 30q5 30 -25 30h-225q-30 0 -35 -30q-6 -30 24 -30zM261 525h225q30 0 35 30q6 30 -24 30h-225q-30 0 -36 -30q-5 -30 25 -30zM184 255q-6 -30 24 -30h225q30 0 36 30
q5 30 -25 30h-225q-30 0 -35 -30zM60 405q-5 -30 25 -30h225q30 0 35 30t-25 30h-225q-30 0 -35 -30z" />
    <glyph glyph-name="equal" unicode="=" 
d="M73 480q-5 -30 25 -30h450q30 0 35 30q6 30 -24 30h-450q-30 0 -36 -30zM71 300h450q30 0 36 30q5 30 -25 30h-450q-30 0 -35 -30q-6 -30 24 -30zM100 630q-6 -30 24 -30h450q30 0 36 30q5 30 -25 30h-450q-30 0 -35 -30zM111 525h450q30 0 35 30q6 30 -24 30h-450
q-30 0 -36 -30q-5 -30 25 -30zM34 255q-6 -30 24 -30h450q30 0 36 30q5 30 -25 30h-450q-30 0 -35 -30zM45 150h450q30 0 35 30q6 30 -24 30h-450q-30 0 -36 -30q-5 -30 25 -30z" />
    <glyph glyph-name="greater" unicode="&#x3e;" horiz-adv-x="555" 
d="M432 480q-5 -30 -35 -30h-225q-30 0 -25 30q6 30 36 30h225q30 0 24 -30zM370 300h-225q-30 0 -24 30q5 30 35 30h225q30 0 25 -30q-6 -30 -36 -30zM335 525h-224q-30 0 -25 30q6 30 36 30h224q30 0 24 -30q-5 -30 -35 -30zM318 255q-6 -30 -36 -30h-225q-30 0 -24 30
q5 30 35 30h225q30 0 25 -30zM494 405q-5 -30 -35 -30h-225q-30 0 -25 30t35 30h225q30 0 25 -30z" />
    <glyph glyph-name="question" unicode="?" 
d="M138 675h450q30 0 35 30t-25 30h-450q-30 0 -35 -30t25 -30zM124 600h450q30 0 36 30q5 30 -25 30h-450q-30 0 -35 -30q-6 -30 24 -30zM195 150h150q30 0 35 30q6 30 -24 30h-150q-30 0 -36 -30q-5 -30 25 -30zM169 0h150q30 0 35 30t-25 30h-150q-30 0 -35 -30t25 -30z
M182 75h150q30 0 35 30t-25 30h-150q-30 0 -35 -30t25 -30zM151 750h375q30 0 35 30t-25 30h-375q-30 0 -35 -30t25 -30zM411 525h150q30 0 35 30q6 30 -24 30h-150q-30 0 -36 -30q-5 -30 25 -30zM235 375h225q30 0 35 30t-25 30h-225q-30 0 -35 -30t25 -30zM197 330
q-6 -30 24 -30h150q30 0 36 30q5 30 -25 30h-150q-30 0 -35 -30zM298 480q-5 -30 25 -30h225q30 0 35 30q6 30 -24 30h-225q-30 0 -36 -30z" />
    <glyph glyph-name="at" unicode="@" horiz-adv-x="916" 
d="M32 75h735q30 0 35 30t-25 30h-735q-30 0 -35 -30t25 -30zM138 675h720q30 0 35 30t-25 30h-720q-30 0 -35 -30t25 -30zM69 30q-5 -30 25 -30h585q30 0 35 30t-25 30h-585q-30 0 -35 -30zM201 780q-5 -30 25 -30h570q30 0 35 30t-25 30h-570q-30 0 -35 -30zM334 255
q-6 -30 24 -30h435q30 0 36 30q5 30 -25 30h-435q-30 0 -35 -30zM386 555q-5 -30 25 -30h150q30 0 35 30q6 30 -24 30h-150q-30 0 -36 -30zM323 450h75q30 0 35 30q6 30 -24 30h-75q-30 0 -36 -30q-5 -30 25 -30zM746 555q-5 -30 25 -30h75q30 0 35 30q6 30 -24 30h-75
q-30 0 -36 -30zM34 255q-6 -30 24 -30h75q30 0 36 30q5 30 -25 30h-75q-30 0 -35 -30zM98 450h75q30 0 35 30q6 30 -24 30h-75q-30 0 -36 -30q-5 -30 25 -30zM272 330q-6 -30 24 -30h75q30 0 36 30q5 30 -25 30h-75q-30 0 -35 -30zM100 630q-6 -30 24 -30h75q30 0 36 30
q5 30 -25 30h-75q-30 0 -35 -30zM20 180q-5 -30 25 -30h75q30 0 35 30q6 30 -24 30h-75q-30 0 -36 -30zM497 330q-6 -30 24 -30h75q30 0 36 30q5 30 -25 30h-75q-30 0 -35 -30zM758 450h75q30 0 35 30q6 30 -24 30h-75q-30 0 -36 -30q-5 -30 25 -30zM548 450h75q30 0 35 30
q6 30 -24 30h-75q-30 0 -36 -30q-5 -30 25 -30zM86 555q-5 -30 25 -30h75q30 0 35 30q6 30 -24 30h-75q-30 0 -36 -30zM60 405q-5 -30 25 -30h75q30 0 35 30t-25 30h-75q-30 0 -35 -30zM720 405q-5 -30 25 -30h75q30 0 35 30t-25 30h-75q-30 0 -35 -30zM707 330
q-6 -30 24 -30h75q30 0 36 30q5 30 -25 30h-75q-30 0 -35 -30zM510 405q-5 -30 25 -30h75q30 0 35 30t-25 30h-75q-30 0 -35 -30zM760 630q-6 -30 24 -30h75q30 0 36 30q5 30 -25 30h-75q-30 0 -35 -30zM285 405q-5 -30 25 -30h75q30 0 35 30t-25 30h-75q-30 0 -35 -30z
M47 330q-6 -30 24 -30h75q30 0 36 30q5 30 -25 30h-75q-30 0 -35 -30z" />
    <glyph glyph-name="A" unicode="A" 
d="M100 630q-6 -30 24 -30h450q30 0 36 30q5 30 -25 30h-450q-30 0 -35 -30zM60 405q-5 -30 25 -30h450q30 0 35 30t-25 30h-450q-30 0 -35 -30zM113 705q-5 -30 25 -30h450q30 0 35 30t-25 30h-450q-30 0 -35 -30zM47 330q-6 -30 24 -30h450q30 0 36 30q5 30 -25 30h-450
q-30 0 -35 -30zM34 255q-6 -30 24 -30h450q30 0 36 30q5 30 -25 30h-450q-30 0 -35 -30zM201 780q-5 -30 25 -30h300q30 0 35 30t-25 30h-300q-30 0 -35 -30zM294 30q-5 -30 25 -30h150q30 0 35 30t-25 30h-150q-30 0 -35 -30zM373 480q-5 -30 25 -30h150q30 0 35 30
q6 30 -24 30h-150q-30 0 -36 -30zM307 105q-5 -30 25 -30h150q30 0 35 30t-25 30h-150q-30 0 -35 -30zM86 555q-5 -30 25 -30h150q30 0 35 30q6 30 -24 30h-150q-30 0 -36 -30zM386 555q-5 -30 25 -30h150q30 0 35 30q6 30 -24 30h-150q-30 0 -36 -30zM-6 30q-5 -30 25 -30
h150q30 0 35 30t-25 30h-150q-30 0 -35 -30zM73 480q-5 -30 25 -30h150q30 0 35 30q6 30 -24 30h-150q-30 0 -36 -30zM32 75h150q30 0 35 30t-25 30h-150q-30 0 -35 -30t25 -30zM345 150h150q30 0 35 30q6 30 -24 30h-150q-30 0 -36 -30q-5 -30 25 -30zM20 180
q-5 -30 25 -30h150q30 0 35 30q6 30 -24 30h-150q-30 0 -36 -30z" />
    <glyph glyph-name="B" unicode="B" 
d="M138 675h450q30 0 35 30t-25 30h-450q-30 0 -35 -30t25 -30zM151 750h375q30 0 35 30t-25 30h-375q-30 0 -35 -30t25 -30zM124 600h450q30 0 36 30q5 30 -25 30h-450q-30 0 -35 -30q-6 -30 24 -30zM98 450h450q30 0 35 30q6 30 -24 30h-450q-30 0 -36 -30q-5 -30 25 -30z
M71 300h450q30 0 36 30q5 30 -25 30h-450q-30 0 -35 -30q-6 -30 24 -30zM45 150h450q30 0 35 30q6 30 -24 30h-450q-30 0 -36 -30q-5 -30 25 -30zM32 75h450q30 0 35 30t-25 30h-450q-30 0 -35 -30t25 -30zM86 555q-5 -30 25 -30h150q30 0 35 30q6 30 -24 30h-150
q-30 0 -36 -30zM386 555q-5 -30 25 -30h150q30 0 35 30q6 30 -24 30h-150q-30 0 -36 -30zM34 255q-6 -30 24 -30h150q30 0 36 30q5 30 -25 30h-150q-30 0 -35 -30zM334 255q-6 -30 24 -30h150q30 0 36 30q5 30 -25 30h-150q-30 0 -35 -30zM-6 30q-5 -30 25 -30h375
q30 0 35 30t-25 30h-375q-30 0 -35 -30zM60 405q-5 -30 25 -30h375q30 0 35 30t-25 30h-375q-30 0 -35 -30z" />
    <glyph glyph-name="C" unicode="C" 
d="M124 600h450q30 0 36 30q5 30 -25 30h-450q-30 0 -35 -30q-6 -30 24 -30zM138 675h450q30 0 35 30t-25 30h-450q-30 0 -35 -30t25 -30zM45 150h450q30 0 35 30q6 30 -24 30h-450q-30 0 -36 -30q-5 -30 25 -30zM32 75h450q30 0 35 30t-25 30h-450q-30 0 -35 -30t25 -30z
M60 405q-5 -30 25 -30h150q30 0 35 30t-25 30h-150q-30 0 -35 -30zM73 480q-5 -30 25 -30h150q30 0 35 30q6 30 -24 30h-150q-30 0 -36 -30zM111 525h150q30 0 35 30q6 30 -24 30h-150q-30 0 -36 -30q-5 -30 25 -30zM34 255q-6 -30 24 -30h150q30 0 36 30q5 30 -25 30h-150
q-30 0 -35 -30zM47 330q-6 -30 24 -30h150q30 0 36 30q5 30 -25 30h-150q-30 0 -35 -30zM334 255q-6 -30 24 -30h150q30 0 36 30q5 30 -25 30h-150q-30 0 -35 -30zM386 555q-5 -30 25 -30h150q30 0 35 30q6 30 -24 30h-150q-30 0 -36 -30zM69 30q-5 -30 25 -30h300
q30 0 35 30t-25 30h-300q-30 0 -35 -30zM201 780q-5 -30 25 -30h300q30 0 35 30t-25 30h-300q-30 0 -35 -30z" />
    <glyph glyph-name="D" unicode="D" 
d="M124 600h450q30 0 36 30q5 30 -25 30h-450q-30 0 -35 -30q-6 -30 24 -30zM138 675h450q30 0 35 30t-25 30h-450q-30 0 -35 -30t25 -30zM45 150h450q30 0 35 30q6 30 -24 30h-450q-30 0 -36 -30q-5 -30 25 -30zM32 75h450q30 0 35 30t-25 30h-450q-30 0 -35 -30t25 -30z
M60 405q-5 -30 25 -30h150q30 0 35 30t-25 30h-150q-30 0 -35 -30zM73 480q-5 -30 25 -30h150q30 0 35 30q6 30 -24 30h-150q-30 0 -36 -30zM111 525h150q30 0 35 30q6 30 -24 30h-150q-30 0 -36 -30q-5 -30 25 -30zM360 405q-5 -30 25 -30h150q30 0 35 30t-25 30h-150
q-30 0 -35 -30zM373 480q-5 -30 25 -30h150q30 0 35 30q6 30 -24 30h-150q-30 0 -36 -30zM411 525h150q30 0 35 30q6 30 -24 30h-150q-30 0 -36 -30q-5 -30 25 -30zM34 255q-6 -30 24 -30h150q30 0 36 30q5 30 -25 30h-150q-30 0 -35 -30zM47 330q-6 -30 24 -30h150
q30 0 36 30q5 30 -25 30h-150q-30 0 -35 -30zM334 255q-6 -30 24 -30h150q30 0 36 30q5 30 -25 30h-150q-30 0 -35 -30zM347 330q-6 -30 24 -30h150q30 0 36 30q5 30 -25 30h-150q-30 0 -35 -30zM126 780q-5 -30 25 -30h375q30 0 35 30t-25 30h-375q-30 0 -35 -30zM-6 30
q-5 -30 25 -30h375q30 0 35 30t-25 30h-375q-30 0 -35 -30z" />
    <glyph glyph-name="E" unicode="E" 
d="M124 600h450q30 0 36 30q5 30 -25 30h-450q-30 0 -35 -30q-6 -30 24 -30zM138 675h450q30 0 35 30t-25 30h-450q-30 0 -35 -30t25 -30zM98 450h450q30 0 35 30q6 30 -24 30h-450q-30 0 -36 -30q-5 -30 25 -30zM85 375h450q30 0 35 30t-25 30h-450q-30 0 -35 -30t25 -30z
M71 300h450q30 0 36 30q5 30 -25 30h-450q-30 0 -35 -30q-6 -30 24 -30zM45 150h450q30 0 35 30q6 30 -24 30h-450q-30 0 -36 -30q-5 -30 25 -30zM32 75h450q30 0 35 30t-25 30h-450q-30 0 -35 -30t25 -30zM34 255q-6 -30 24 -30h150q30 0 36 30q5 30 -25 30h-150
q-30 0 -35 -30zM111 525h150q30 0 35 30q6 30 -24 30h-150q-30 0 -36 -30q-5 -30 25 -30zM69 30q-5 -30 25 -30h375q30 0 35 30t-25 30h-375q-30 0 -35 -30zM201 780q-5 -30 25 -30h375q30 0 35 30t-25 30h-375q-30 0 -35 -30z" />
    <glyph glyph-name="F" unicode="F" 
d="M71 300h450q30 0 36 30q5 30 -25 30h-450q-30 0 -35 -30q-6 -30 24 -30zM85 375h450q30 0 35 30t-25 30h-450q-30 0 -35 -30t25 -30zM98 450h450q30 0 35 30q6 30 -24 30h-450q-30 0 -36 -30q-5 -30 25 -30zM124 600h450q30 0 36 30q5 30 -25 30h-450q-30 0 -35 -30
q-6 -30 24 -30zM138 675h450q30 0 35 30t-25 30h-450q-30 0 -35 -30t25 -30zM7 105q-5 -30 25 -30h150q30 0 35 30t-25 30h-150q-30 0 -35 -30zM20 180q-5 -30 25 -30h150q30 0 35 30q6 30 -24 30h-150q-30 0 -36 -30zM58 225h150q30 0 36 30q5 30 -25 30h-150
q-30 0 -35 -30q-6 -30 24 -30zM19 0h150q30 0 35 30t-25 30h-150q-30 0 -35 -30t25 -30zM86 555q-5 -30 25 -30h150q30 0 35 30q6 30 -24 30h-150q-30 0 -36 -30zM201 780q-5 -30 25 -30h375q30 0 35 30t-25 30h-375q-30 0 -35 -30z" />
    <glyph glyph-name="G" unicode="G" 
d="M124 600h450q30 0 36 30q5 30 -25 30h-450q-30 0 -35 -30q-6 -30 24 -30zM138 675h450q30 0 35 30t-25 30h-450q-30 0 -35 -30t25 -30zM45 150h450q30 0 35 30q6 30 -24 30h-450q-30 0 -36 -30q-5 -30 25 -30zM32 75h450q30 0 35 30t-25 30h-450q-30 0 -35 -30t25 -30z
M60 405q-5 -30 25 -30h150q30 0 35 30t-25 30h-150q-30 0 -35 -30zM73 480q-5 -30 25 -30h150q30 0 35 30q6 30 -24 30h-150q-30 0 -36 -30zM111 525h150q30 0 35 30q6 30 -24 30h-150q-30 0 -36 -30q-5 -30 25 -30zM34 255q-6 -30 24 -30h150q30 0 36 30q5 30 -25 30h-150
q-30 0 -35 -30zM47 330q-6 -30 24 -30h150q30 0 36 30q5 30 -25 30h-150q-30 0 -35 -30zM411 525h150q30 0 35 30q6 30 -24 30h-150q-30 0 -36 -30q-5 -30 25 -30zM334 255q-6 -30 24 -30h150q30 0 36 30q5 30 -25 30h-150q-30 0 -35 -30zM347 330q-6 -30 24 -30h150
q30 0 36 30q5 30 -25 30h-150q-30 0 -35 -30zM94 0h375q30 0 35 30t-25 30h-375q-30 0 -35 -30t25 -30zM201 780q-5 -30 25 -30h300q30 0 35 30t-25 30h-300q-30 0 -35 -30zM360 405q-5 -30 25 -30h150q30 0 35 30t-25 30h-150q-30 0 -35 -30z" />
    <glyph glyph-name="H" unicode="H" 
d="M98 450h450q30 0 35 30q6 30 -24 30h-450q-30 0 -36 -30q-5 -30 25 -30zM85 375h450q30 0 35 30t-25 30h-450q-30 0 -35 -30t25 -30zM71 300h450q30 0 36 30q5 30 -25 30h-450q-30 0 -35 -30q-6 -30 24 -30zM86 555q-5 -30 25 -30h150q30 0 35 30q6 30 -24 30h-150
q-30 0 -36 -30zM100 630q-6 -30 24 -30h150q30 0 36 30q5 30 -25 30h-150q-30 0 -35 -30zM138 675h150q30 0 35 30t-25 30h-150q-30 0 -35 -30t25 -30zM386 555q-5 -30 25 -30h150q30 0 35 30q6 30 -24 30h-150q-30 0 -36 -30zM400 630q-6 -30 24 -30h150q30 0 36 30
q5 30 -25 30h-150q-30 0 -35 -30zM438 675h150q30 0 35 30t-25 30h-150q-30 0 -35 -30t25 -30zM126 780q-5 -30 25 -30h150q30 0 35 30t-25 30h-150q-30 0 -35 -30zM451 750h150q30 0 35 30t-25 30h-150q-30 0 -35 -30t25 -30zM-6 30q-5 -30 25 -30h150q30 0 35 30t-25 30
h-150q-30 0 -35 -30zM7 105q-5 -30 25 -30h150q30 0 35 30t-25 30h-150q-30 0 -35 -30zM45 150h150q30 0 35 30q6 30 -24 30h-150q-30 0 -36 -30q-5 -30 25 -30zM294 30q-5 -30 25 -30h150q30 0 35 30t-25 30h-150q-30 0 -35 -30zM307 105q-5 -30 25 -30h150q30 0 35 30
t-25 30h-150q-30 0 -35 -30zM345 150h150q30 0 35 30q6 30 -24 30h-150q-30 0 -36 -30q-5 -30 25 -30zM34 255q-6 -30 24 -30h150q30 0 36 30q5 30 -25 30h-150q-30 0 -35 -30zM358 225h150q30 0 36 30q5 30 -25 30h-150q-30 0 -35 -30q-6 -30 24 -30z" />
    <glyph glyph-name="I" unicode="I" horiz-adv-x="480" 
d="M122 330q-6 -30 24 -30h150q30 0 36 30q5 30 -25 30h-150q-30 0 -35 -30zM135 405q-5 -30 25 -30h150q30 0 35 30t-25 30h-150q-30 0 -35 -30zM173 450h150q30 0 35 30q6 30 -24 30h-150q-30 0 -36 -30q-5 -30 25 -30zM100 630q-6 -30 24 -30h300q30 0 36 30q5 30 -25 30
h-300q-30 0 -35 -30zM113 705q-5 -30 25 -30h300q30 0 35 30t-25 30h-300q-30 0 -35 -30zM151 750h300q30 0 35 30t-25 30h-300q-30 0 -35 -30t25 -30zM161 555q-5 -30 25 -30h150q30 0 35 30q6 30 -24 30h-150q-30 0 -36 -30zM133 225h150q30 0 36 30q5 30 -25 30h-150
q-30 0 -35 -30q-6 -30 24 -30zM-6 30q-5 -30 25 -30h300q30 0 35 30t-25 30h-300q-30 0 -35 -30zM32 75h300q30 0 35 30t-25 30h-300q-30 0 -35 -30t25 -30zM20 180q-5 -30 25 -30h300q30 0 35 30q6 30 -24 30h-300q-30 0 -36 -30z" />
    <glyph glyph-name="J" unicode="J" 
d="M45 150h450q30 0 35 30q6 30 -24 30h-450q-30 0 -36 -30q-5 -30 25 -30zM32 75h450q30 0 35 30t-25 30h-450q-30 0 -35 -30t25 -30zM34 255q-6 -30 24 -30h150q30 0 36 30q5 30 -25 30h-150q-30 0 -35 -30zM47 330q-6 -30 24 -30h150q30 0 36 30q5 30 -25 30h-150
q-30 0 -35 -30zM85 375h150q30 0 35 30t-25 30h-150q-30 0 -35 -30t25 -30zM334 255q-6 -30 24 -30h150q30 0 36 30q5 30 -25 30h-150q-30 0 -35 -30zM347 330q-6 -30 24 -30h150q30 0 36 30q5 30 -25 30h-150q-30 0 -35 -30zM385 375h150q30 0 35 30t-25 30h-150
q-30 0 -35 -30t25 -30zM398 450h150q30 0 35 30q6 30 -24 30h-150q-30 0 -36 -30q-5 -30 25 -30zM386 555q-5 -30 25 -30h150q30 0 35 30q6 30 -24 30h-150q-30 0 -36 -30zM400 630q-6 -30 24 -30h150q30 0 36 30q5 30 -25 30h-150q-30 0 -35 -30zM438 675h150q30 0 35 30
t-25 30h-150q-30 0 -35 -30t25 -30zM69 30q-5 -30 25 -30h300q30 0 35 30t-25 30h-300q-30 0 -35 -30zM426 780q-5 -30 25 -30h150q30 0 35 30t-25 30h-150q-30 0 -35 -30z" />
    <glyph glyph-name="K" unicode="K" 
d="M98 450h375q30 0 35 30q6 30 -24 30h-375q-30 0 -36 -30q-5 -30 25 -30zM71 300h375q30 0 36 30q5 30 -25 30h-375q-30 0 -35 -30q-6 -30 24 -30zM86 555q-5 -30 25 -30h150q30 0 35 30q6 30 -24 30h-150q-30 0 -36 -30zM100 630q-6 -30 24 -30h150q30 0 36 30
q5 30 -25 30h-150q-30 0 -35 -30zM138 675h150q30 0 35 30t-25 30h-150q-30 0 -35 -30t25 -30zM386 555q-5 -30 25 -30h150q30 0 35 30q6 30 -24 30h-150q-30 0 -36 -30zM400 630q-6 -30 24 -30h150q30 0 36 30q5 30 -25 30h-150q-30 0 -35 -30zM438 675h150q30 0 35 30
t-25 30h-150q-30 0 -35 -30t25 -30zM126 780q-5 -30 25 -30h150q30 0 35 30t-25 30h-150q-30 0 -35 -30zM451 750h150q30 0 35 30t-25 30h-150q-30 0 -35 -30t25 -30zM-6 30q-5 -30 25 -30h150q30 0 35 30t-25 30h-150q-30 0 -35 -30zM7 105q-5 -30 25 -30h150q30 0 35 30
t-25 30h-150q-30 0 -35 -30zM45 150h150q30 0 35 30q6 30 -24 30h-150q-30 0 -36 -30q-5 -30 25 -30zM294 30q-5 -30 25 -30h150q30 0 35 30t-25 30h-150q-30 0 -35 -30zM307 105q-5 -30 25 -30h150q30 0 35 30t-25 30h-150q-30 0 -35 -30zM345 150h150q30 0 35 30
q6 30 -24 30h-150q-30 0 -36 -30q-5 -30 25 -30zM34 255q-6 -30 24 -30h150q30 0 36 30q5 30 -25 30h-150q-30 0 -35 -30zM358 225h150q30 0 36 30q5 30 -25 30h-150q-30 0 -35 -30q-6 -30 24 -30zM60 405q-5 -30 25 -30h300q30 0 35 30t-25 30h-300q-30 0 -35 -30z" />
    <glyph glyph-name="L" unicode="L" 
d="M45 150h450q30 0 35 30q6 30 -24 30h-450q-30 0 -36 -30q-5 -30 25 -30zM32 75h450q30 0 35 30t-25 30h-450q-30 0 -35 -30t25 -30zM94 0h375q30 0 35 30t-25 30h-375q-30 0 -35 -30t25 -30zM34 255q-6 -30 24 -30h150q30 0 36 30q5 30 -25 30h-150q-30 0 -35 -30z
M47 330q-6 -30 24 -30h150q30 0 36 30q5 30 -25 30h-150q-30 0 -35 -30zM85 375h150q30 0 35 30t-25 30h-150q-30 0 -35 -30t25 -30zM86 555q-5 -30 25 -30h150q30 0 35 30q6 30 -24 30h-150q-30 0 -36 -30zM100 630q-6 -30 24 -30h150q30 0 36 30q5 30 -25 30h-150
q-30 0 -35 -30zM138 675h150q30 0 35 30t-25 30h-150q-30 0 -35 -30t25 -30zM73 480q-5 -30 25 -30h150q30 0 35 30q6 30 -24 30h-150q-30 0 -36 -30zM151 750h150q30 0 35 30t-25 30h-150q-30 0 -35 -30t25 -30z" />
    <glyph glyph-name="M" unicode="M" horiz-adv-x="930" 
d="M138 675h750q30 0 35 30t-25 30h-750q-30 0 -35 -30t25 -30zM124 600h750q30 0 36 30q5 30 -25 30h-750q-30 0 -35 -30q-6 -30 24 -30zM47 330q-6 -30 24 -30h150q30 0 36 30q5 30 -25 30h-150q-30 0 -35 -30zM60 405q-5 -30 25 -30h150q30 0 35 30t-25 30h-150
q-30 0 -35 -30zM98 450h150q30 0 35 30q6 30 -24 30h-150q-30 0 -36 -30q-5 -30 25 -30zM347 330q-6 -30 24 -30h150q30 0 36 30q5 30 -25 30h-150q-30 0 -35 -30zM360 405q-5 -30 25 -30h150q30 0 35 30t-25 30h-150q-30 0 -35 -30zM398 450h150q30 0 35 30q6 30 -24 30
h-150q-30 0 -36 -30q-5 -30 25 -30zM86 555q-5 -30 25 -30h150q30 0 35 30q6 30 -24 30h-150q-30 0 -36 -30zM411 525h150q30 0 35 30q6 30 -24 30h-150q-30 0 -36 -30q-5 -30 25 -30zM647 330q-6 -30 24 -30h150q30 0 36 30q5 30 -25 30h-150q-30 0 -35 -30zM660 405
q-5 -30 25 -30h150q30 0 35 30t-25 30h-150q-30 0 -35 -30zM698 450h150q30 0 35 30q6 30 -24 30h-150q-30 0 -36 -30q-5 -30 25 -30zM-6 30q-5 -30 25 -30h150q30 0 35 30t-25 30h-150q-30 0 -35 -30zM7 105q-5 -30 25 -30h150q30 0 35 30t-25 30h-150q-30 0 -35 -30z
M45 150h150q30 0 35 30q6 30 -24 30h-150q-30 0 -36 -30q-5 -30 25 -30zM686 555q-5 -30 25 -30h150q30 0 35 30q6 30 -24 30h-150q-30 0 -36 -30zM58 225h150q30 0 36 30q5 30 -25 30h-150q-30 0 -35 -30q-6 -30 24 -30zM294 30q-5 -30 25 -30h150q30 0 35 30t-25 30h-150
q-30 0 -35 -30zM307 105q-5 -30 25 -30h150q30 0 35 30t-25 30h-150q-30 0 -35 -30zM345 150h150q30 0 35 30q6 30 -24 30h-150q-30 0 -36 -30q-5 -30 25 -30zM594 30q-5 -30 25 -30h150q30 0 35 30t-25 30h-150q-30 0 -35 -30zM607 105q-5 -30 25 -30h150q30 0 35 30
t-25 30h-150q-30 0 -35 -30zM645 150h150q30 0 35 30q6 30 -24 30h-150q-30 0 -36 -30q-5 -30 25 -30zM334 255q-6 -30 24 -30h150q30 0 36 30q5 30 -25 30h-150q-30 0 -35 -30zM658 225h150q30 0 36 30q5 30 -25 30h-150q-30 0 -35 -30q-6 -30 24 -30zM126 780
q-5 -30 25 -30h675q30 0 35 30t-25 30h-675q-30 0 -35 -30z" />
    <glyph glyph-name="N" unicode="N" 
d="M124 600h450q30 0 36 30q5 30 -25 30h-450q-30 0 -35 -30q-6 -30 24 -30zM138 675h450q30 0 35 30t-25 30h-450q-30 0 -35 -30t25 -30zM47 330q-6 -30 24 -30h150q30 0 36 30q5 30 -25 30h-150q-30 0 -35 -30zM60 405q-5 -30 25 -30h150q30 0 35 30t-25 30h-150
q-30 0 -35 -30zM98 450h150q30 0 35 30q6 30 -24 30h-150q-30 0 -36 -30q-5 -30 25 -30zM347 330q-6 -30 24 -30h150q30 0 36 30q5 30 -25 30h-150q-30 0 -35 -30zM360 405q-5 -30 25 -30h150q30 0 35 30t-25 30h-150q-30 0 -35 -30zM398 450h150q30 0 35 30q6 30 -24 30
h-150q-30 0 -36 -30q-5 -30 25 -30zM86 555q-5 -30 25 -30h150q30 0 35 30q6 30 -24 30h-150q-30 0 -36 -30zM411 525h150q30 0 35 30q6 30 -24 30h-150q-30 0 -36 -30q-5 -30 25 -30zM-6 30q-5 -30 25 -30h150q30 0 35 30t-25 30h-150q-30 0 -35 -30zM7 105q-5 -30 25 -30
h150q30 0 35 30t-25 30h-150q-30 0 -35 -30zM45 150h150q30 0 35 30q6 30 -24 30h-150q-30 0 -36 -30q-5 -30 25 -30zM294 30q-5 -30 25 -30h150q30 0 35 30t-25 30h-150q-30 0 -35 -30zM307 105q-5 -30 25 -30h150q30 0 35 30t-25 30h-150q-30 0 -35 -30zM345 150h150
q30 0 35 30q6 30 -24 30h-150q-30 0 -36 -30q-5 -30 25 -30zM34 255q-6 -30 24 -30h150q30 0 36 30q5 30 -25 30h-150q-30 0 -35 -30zM358 225h150q30 0 36 30q5 30 -25 30h-150q-30 0 -35 -30q-6 -30 24 -30zM126 780q-5 -30 25 -30h375q30 0 35 30t-25 30h-375
q-30 0 -35 -30z" />
    <glyph glyph-name="O" unicode="O" 
d="M124 600h450q30 0 36 30q5 30 -25 30h-450q-30 0 -35 -30q-6 -30 24 -30zM138 675h450q30 0 35 30t-25 30h-450q-30 0 -35 -30t25 -30zM32 75h450q30 0 35 30t-25 30h-450q-30 0 -35 -30t25 -30zM45 150h450q30 0 35 30q6 30 -24 30h-450q-30 0 -36 -30q-5 -30 25 -30z
M47 330q-6 -30 24 -30h150q30 0 36 30q5 30 -25 30h-150q-30 0 -35 -30zM60 405q-5 -30 25 -30h150q30 0 35 30t-25 30h-150q-30 0 -35 -30zM98 450h150q30 0 35 30q6 30 -24 30h-150q-30 0 -36 -30q-5 -30 25 -30zM347 330q-6 -30 24 -30h150q30 0 36 30q5 30 -25 30h-150
q-30 0 -35 -30zM360 405q-5 -30 25 -30h150q30 0 35 30t-25 30h-150q-30 0 -35 -30zM398 450h150q30 0 35 30q6 30 -24 30h-150q-30 0 -36 -30q-5 -30 25 -30zM86 555q-5 -30 25 -30h150q30 0 35 30q6 30 -24 30h-150q-30 0 -36 -30zM411 525h150q30 0 35 30q6 30 -24 30
h-150q-30 0 -36 -30q-5 -30 25 -30zM34 255q-6 -30 24 -30h150q30 0 36 30q5 30 -25 30h-150q-30 0 -35 -30zM358 225h150q30 0 36 30q5 30 -25 30h-150q-30 0 -35 -30q-6 -30 24 -30zM201 780q-5 -30 25 -30h300q30 0 35 30t-25 30h-300q-30 0 -35 -30zM69 30
q-5 -30 25 -30h300q30 0 35 30t-25 30h-300q-30 0 -35 -30z" />
    <glyph glyph-name="P" unicode="P" 
d="M124 600h450q30 0 36 30q5 30 -25 30h-450q-30 0 -35 -30q-6 -30 24 -30zM138 675h450q30 0 35 30t-25 30h-450q-30 0 -35 -30t25 -30zM85 375h450q30 0 35 30t-25 30h-450q-30 0 -35 -30t25 -30zM98 450h450q30 0 35 30q6 30 -24 30h-450q-30 0 -36 -30q-5 -30 25 -30z
M-6 30q-5 -30 25 -30h150q30 0 35 30t-25 30h-150q-30 0 -35 -30zM7 105q-5 -30 25 -30h150q30 0 35 30t-25 30h-150q-30 0 -35 -30zM45 150h150q30 0 35 30q6 30 -24 30h-150q-30 0 -36 -30q-5 -30 25 -30zM34 255q-6 -30 24 -30h150q30 0 36 30q5 30 -25 30h-150
q-30 0 -35 -30zM86 555q-5 -30 25 -30h150q30 0 35 30q6 30 -24 30h-150q-30 0 -36 -30zM386 555q-5 -30 25 -30h150q30 0 35 30q6 30 -24 30h-150q-30 0 -36 -30zM47 330q-6 -30 24 -30h375q30 0 36 30q5 30 -25 30h-375q-30 0 -35 -30zM126 780q-5 -30 25 -30h375
q30 0 35 30t-25 30h-375q-30 0 -35 -30z" />
    <glyph glyph-name="Q" unicode="Q" 
d="M131 600h450q30 0 35 30q6 30 -24 30h-450q-30 0 -36 -30q-5 -30 25 -30zM144 675h450q30 0 36 30q5 30 -25 30h-450q-30 0 -35 -30q-6 -30 24 -30zM38 75h450q30 0 36 30q5 30 -25 30h-450q-30 0 -35 -30q-6 -30 24 -30zM52 150h450q30 0 35 30t-25 30h-450
q-30 0 -35 -30t25 -30zM53 330q-5 -30 25 -30h150q30 0 35 30q6 30 -24 30h-150q-30 0 -36 -30zM67 405q-6 -30 24 -30h150q30 0 36 30q5 30 -25 30h-150q-30 0 -35 -30zM105 450h150q30 0 35 30t-25 30h-150q-30 0 -35 -30t25 -30zM353 330q-5 -30 25 -30h150q30 0 35 30
q6 30 -24 30h-150q-30 0 -36 -30zM367 405q-6 -30 24 -30h150q30 0 36 30q5 30 -25 30h-150q-30 0 -35 -30zM405 450h150q30 0 35 30t-25 30h-150q-30 0 -35 -30t25 -30zM93 555q-5 -30 25 -30h150q30 0 35 30t-25 30h-150q-30 0 -35 -30zM418 525h150q30 0 35 30t-25 30
h-150q-30 0 -35 -30t25 -30zM40 255q-5 -30 25 -30h150q30 0 35 30t-25 30h-150q-30 0 -35 -30zM365 225h150q30 0 35 30t-25 30h-150q-30 0 -35 -30t25 -30zM208 780q-6 -30 24 -30h300q30 0 36 30q5 30 -25 30h-300q-30 0 -35 -30zM75 30q-5 -30 25 -30h375q30 0 35 30
q6 30 -24 30h-375q-30 0 -36 -30zM312 -75h150q30 0 35 30q6 30 -24 30h-150q-30 0 -36 -30q-5 -30 25 -30z" />
    <glyph glyph-name="R" unicode="R" 
d="M124 600h450q30 0 36 30q5 30 -25 30h-450q-30 0 -35 -30q-6 -30 24 -30zM138 675h450q30 0 35 30t-25 30h-450q-30 0 -35 -30t25 -30zM85 375h450q30 0 35 30t-25 30h-450q-30 0 -35 -30t25 -30zM98 450h450q30 0 35 30q6 30 -24 30h-450q-30 0 -36 -30q-5 -30 25 -30z
M-6 30q-5 -30 25 -30h150q30 0 35 30t-25 30h-150q-30 0 -35 -30zM7 105q-5 -30 25 -30h150q30 0 35 30t-25 30h-150q-30 0 -35 -30zM45 150h150q30 0 35 30q6 30 -24 30h-150q-30 0 -36 -30q-5 -30 25 -30zM294 30q-5 -30 25 -30h150q30 0 35 30t-25 30h-150q-30 0 -35 -30
zM307 105q-5 -30 25 -30h150q30 0 35 30t-25 30h-150q-30 0 -35 -30zM345 150h150q30 0 35 30q6 30 -24 30h-150q-30 0 -36 -30q-5 -30 25 -30zM34 255q-6 -30 24 -30h150q30 0 36 30q5 30 -25 30h-150q-30 0 -35 -30zM358 225h150q30 0 36 30q5 30 -25 30h-150
q-30 0 -35 -30q-6 -30 24 -30zM86 555q-5 -30 25 -30h150q30 0 35 30q6 30 -24 30h-150q-30 0 -36 -30zM386 555q-5 -30 25 -30h150q30 0 35 30q6 30 -24 30h-150q-30 0 -36 -30zM126 780q-5 -30 25 -30h375q30 0 35 30t-25 30h-375q-30 0 -35 -30zM47 330q-6 -30 24 -30
h375q30 0 36 30q5 30 -25 30h-375q-30 0 -35 -30z" />
    <glyph glyph-name="S" unicode="S" 
d="M32 75h450q30 0 35 30t-25 30h-450q-30 0 -35 -30t25 -30zM45 150h450q30 0 35 30q6 30 -24 30h-450q-30 0 -36 -30q-5 -30 25 -30zM124 600h450q30 0 36 30q5 30 -25 30h-450q-30 0 -35 -30q-6 -30 24 -30zM138 675h450q30 0 35 30t-25 30h-450q-30 0 -35 -30t25 -30z
M334 255q-6 -30 24 -30h150q30 0 36 30q5 30 -25 30h-150q-30 0 -35 -30zM86 555q-5 -30 25 -30h150q30 0 35 30q6 30 -24 30h-150q-30 0 -36 -30zM73 480q-5 -30 25 -30h375q30 0 35 30q6 30 -24 30h-375q-30 0 -36 -30zM115 330q-6 -30 24 -30h382q30 0 36 30q5 30 -25 30
h-382q-30 0 -35 -30zM-6 30q-5 -30 25 -30h375q30 0 35 30t-25 30h-375q-30 0 -35 -30zM201 780q-5 -30 25 -30h375q30 0 35 30t-25 30h-375q-30 0 -35 -30zM60 405q-5 -30 25 -30h450q30 0 35 30t-25 30h-450q-30 0 -35 -30z" />
    <glyph glyph-name="T" unicode="T" 
d="M124 600h450q30 0 36 30q5 30 -25 30h-450q-30 0 -35 -30q-6 -30 24 -30zM138 675h450q30 0 35 30t-25 30h-450q-30 0 -35 -30t25 -30zM151 750h450q30 0 35 30t-25 30h-450q-30 0 -35 -30t25 -30zM197 330q-6 -30 24 -30h150q30 0 36 30q5 30 -25 30h-150q-30 0 -35 -30
zM210 405q-5 -30 25 -30h150q30 0 35 30t-25 30h-150q-30 0 -35 -30zM248 450h150q30 0 35 30q6 30 -24 30h-150q-30 0 -36 -30q-5 -30 25 -30zM261 525h150q30 0 35 30q6 30 -24 30h-150q-30 0 -36 -30q-5 -30 25 -30zM144 30q-5 -30 25 -30h150q30 0 35 30t-25 30h-150
q-30 0 -35 -30zM157 105q-5 -30 25 -30h150q30 0 35 30t-25 30h-150q-30 0 -35 -30zM195 150h150q30 0 35 30q6 30 -24 30h-150q-30 0 -36 -30q-5 -30 25 -30zM208 225h150q30 0 36 30q5 30 -25 30h-150q-30 0 -35 -30q-6 -30 24 -30z" />
    <glyph glyph-name="U" unicode="U" 
d="M32 75h450q30 0 35 30t-25 30h-450q-30 0 -35 -30t25 -30zM45 150h450q30 0 35 30q6 30 -24 30h-450q-30 0 -36 -30q-5 -30 25 -30zM34 255q-6 -30 24 -30h150q30 0 36 30q5 30 -25 30h-150q-30 0 -35 -30zM47 330q-6 -30 24 -30h150q30 0 36 30q5 30 -25 30h-150
q-30 0 -35 -30zM85 375h150q30 0 35 30t-25 30h-150q-30 0 -35 -30t25 -30zM98 450h150q30 0 35 30q6 30 -24 30h-150q-30 0 -36 -30q-5 -30 25 -30zM334 255q-6 -30 24 -30h150q30 0 36 30q5 30 -25 30h-150q-30 0 -35 -30zM347 330q-6 -30 24 -30h150q30 0 36 30
q5 30 -25 30h-150q-30 0 -35 -30zM385 375h150q30 0 35 30t-25 30h-150q-30 0 -35 -30t25 -30zM398 450h150q30 0 35 30q6 30 -24 30h-150q-30 0 -36 -30q-5 -30 25 -30zM386 555q-5 -30 25 -30h150q30 0 35 30q6 30 -24 30h-150q-30 0 -36 -30zM400 630q-6 -30 24 -30h150
q30 0 36 30q5 30 -25 30h-150q-30 0 -35 -30zM438 675h150q30 0 35 30t-25 30h-150q-30 0 -35 -30t25 -30zM451 750h150q30 0 35 30t-25 30h-150q-30 0 -35 -30t25 -30zM86 555q-5 -30 25 -30h150q30 0 35 30q6 30 -24 30h-150q-30 0 -36 -30zM100 630q-6 -30 24 -30h150
q30 0 36 30q5 30 -25 30h-150q-30 0 -35 -30zM138 675h150q30 0 35 30t-25 30h-150q-30 0 -35 -30t25 -30zM151 750h150q30 0 35 30t-25 30h-150q-30 0 -35 -30t25 -30zM69 30q-5 -30 25 -30h300q30 0 35 30t-25 30h-300q-30 0 -35 -30z" />
    <glyph glyph-name="V" unicode="V" 
d="M45 150h450q30 0 35 30q6 30 -24 30h-450q-30 0 -36 -30q-5 -30 25 -30zM34 255q-6 -30 24 -30h150q30 0 36 30q5 30 -25 30h-150q-30 0 -35 -30zM47 330q-6 -30 24 -30h150q30 0 36 30q5 30 -25 30h-150q-30 0 -35 -30zM85 375h150q30 0 35 30t-25 30h-150
q-30 0 -35 -30t25 -30zM98 450h150q30 0 35 30q6 30 -24 30h-150q-30 0 -36 -30q-5 -30 25 -30zM334 255q-6 -30 24 -30h150q30 0 36 30q5 30 -25 30h-150q-30 0 -35 -30zM347 330q-6 -30 24 -30h150q30 0 36 30q5 30 -25 30h-150q-30 0 -35 -30zM385 375h150q30 0 35 30
t-25 30h-150q-30 0 -35 -30t25 -30zM398 450h150q30 0 35 30q6 30 -24 30h-150q-30 0 -36 -30q-5 -30 25 -30zM386 555q-5 -30 25 -30h150q30 0 35 30q6 30 -24 30h-150q-30 0 -36 -30zM400 630q-6 -30 24 -30h150q30 0 36 30q5 30 -25 30h-150q-30 0 -35 -30zM438 675h150
q30 0 35 30t-25 30h-150q-30 0 -35 -30t25 -30zM451 750h150q30 0 35 30t-25 30h-150q-30 0 -35 -30t25 -30zM86 555q-5 -30 25 -30h150q30 0 35 30q6 30 -24 30h-150q-30 0 -36 -30zM100 630q-6 -30 24 -30h150q30 0 36 30q5 30 -25 30h-150q-30 0 -35 -30zM138 675h150
q30 0 35 30t-25 30h-150q-30 0 -35 -30t25 -30zM151 750h150q30 0 35 30t-25 30h-150q-30 0 -35 -30t25 -30zM144 30q-5 -30 25 -30h150q30 0 35 30t-25 30h-150q-30 0 -35 -30zM82 105q-5 -30 25 -30h300q30 0 35 30t-25 30h-300q-30 0 -35 -30z" />
    <glyph glyph-name="W" unicode="W" horiz-adv-x="930" 
d="M32 75h750q30 0 35 30t-25 30h-750q-30 0 -35 -30t25 -30zM45 150h750q30 0 35 30q6 30 -24 30h-750q-30 0 -36 -30q-5 -30 25 -30zM34 255q-6 -30 24 -30h150q30 0 36 30q5 30 -25 30h-150q-30 0 -35 -30zM47 330q-6 -30 24 -30h150q30 0 36 30q5 30 -25 30h-150
q-30 0 -35 -30zM85 375h150q30 0 35 30t-25 30h-150q-30 0 -35 -30t25 -30zM98 450h150q30 0 35 30q6 30 -24 30h-150q-30 0 -36 -30q-5 -30 25 -30zM334 255q-6 -30 24 -30h150q30 0 36 30q5 30 -25 30h-150q-30 0 -35 -30zM347 330q-6 -30 24 -30h150q30 0 36 30
q5 30 -25 30h-150q-30 0 -35 -30zM385 375h150q30 0 35 30t-25 30h-150q-30 0 -35 -30t25 -30zM398 450h150q30 0 35 30q6 30 -24 30h-150q-30 0 -36 -30q-5 -30 25 -30zM386 555q-5 -30 25 -30h150q30 0 35 30q6 30 -24 30h-150q-30 0 -36 -30zM400 630q-6 -30 24 -30h150
q30 0 36 30q5 30 -25 30h-150q-30 0 -35 -30zM438 675h150q30 0 35 30t-25 30h-150q-30 0 -35 -30t25 -30zM451 750h150q30 0 35 30t-25 30h-150q-30 0 -35 -30t25 -30zM86 555q-5 -30 25 -30h150q30 0 35 30q6 30 -24 30h-150q-30 0 -36 -30zM100 630q-6 -30 24 -30h150
q30 0 36 30q5 30 -25 30h-150q-30 0 -35 -30zM138 675h150q30 0 35 30t-25 30h-150q-30 0 -35 -30t25 -30zM151 750h150q30 0 35 30t-25 30h-150q-30 0 -35 -30t25 -30zM634 255q-6 -30 24 -30h150q30 0 36 30q5 30 -25 30h-150q-30 0 -35 -30zM647 330q-6 -30 24 -30h150
q30 0 36 30q5 30 -25 30h-150q-30 0 -35 -30zM685 375h150q30 0 35 30t-25 30h-150q-30 0 -35 -30t25 -30zM698 450h150q30 0 35 30q6 30 -24 30h-150q-30 0 -36 -30q-5 -30 25 -30zM686 555q-5 -30 25 -30h150q30 0 35 30q6 30 -24 30h-150q-30 0 -36 -30zM700 630
q-6 -30 24 -30h150q30 0 36 30q5 30 -25 30h-150q-30 0 -35 -30zM738 675h150q30 0 35 30t-25 30h-150q-30 0 -35 -30t25 -30zM751 750h150q30 0 35 30t-25 30h-150q-30 0 -35 -30t25 -30zM69 30q-5 -30 25 -30h600q30 0 35 30t-25 30h-600q-30 0 -35 -30z" />
    <glyph glyph-name="X" unicode="X" 
d="M71 300h450q30 0 36 30q5 30 -25 30h-450q-30 0 -35 -30q-6 -30 24 -30zM98 450h450q30 0 35 30q6 30 -24 30h-450q-30 0 -36 -30q-5 -30 25 -30zM86 555q-5 -30 25 -30h150q30 0 35 30q6 30 -24 30h-150q-30 0 -36 -30zM100 630q-6 -30 24 -30h150q30 0 36 30
q5 30 -25 30h-150q-30 0 -35 -30zM138 675h150q30 0 35 30t-25 30h-150q-30 0 -35 -30t25 -30zM151 750h150q30 0 35 30t-25 30h-150q-30 0 -35 -30t25 -30zM386 555q-5 -30 25 -30h150q30 0 35 30q6 30 -24 30h-150q-30 0 -36 -30zM400 630q-6 -30 24 -30h150q30 0 36 30
q5 30 -25 30h-150q-30 0 -35 -30zM438 675h150q30 0 35 30t-25 30h-150q-30 0 -35 -30t25 -30zM451 750h150q30 0 35 30t-25 30h-150q-30 0 -35 -30t25 -30zM294 30q-5 -30 25 -30h150q30 0 35 30t-25 30h-150q-30 0 -35 -30zM307 105q-5 -30 25 -30h150q30 0 35 30t-25 30
h-150q-30 0 -35 -30zM345 150h150q30 0 35 30q6 30 -24 30h-150q-30 0 -36 -30q-5 -30 25 -30zM358 225h150q30 0 36 30q5 30 -25 30h-150q-30 0 -35 -30q-6 -30 24 -30zM-6 30q-5 -30 25 -30h150q30 0 35 30t-25 30h-150q-30 0 -35 -30zM7 105q-5 -30 25 -30h150
q30 0 35 30t-25 30h-150q-30 0 -35 -30zM45 150h150q30 0 35 30q6 30 -24 30h-150q-30 0 -36 -30q-5 -30 25 -30zM58 225h150q30 0 36 30q5 30 -25 30h-150q-30 0 -35 -30q-6 -30 24 -30zM135 405q-5 -30 25 -30h300q30 0 35 30t-25 30h-300q-30 0 -35 -30z" />
    <glyph glyph-name="Y" unicode="Y" 
d="M85 375h450q30 0 35 30t-25 30h-450q-30 0 -35 -30t25 -30zM98 450h450q30 0 35 30q6 30 -24 30h-450q-30 0 -36 -30q-5 -30 25 -30zM144 30q-5 -30 25 -30h150q30 0 35 30t-25 30h-150q-30 0 -35 -30zM157 105q-5 -30 25 -30h150q30 0 35 30t-25 30h-150q-30 0 -35 -30z
M195 150h150q30 0 35 30q6 30 -24 30h-150q-30 0 -36 -30q-5 -30 25 -30zM208 225h150q30 0 36 30q5 30 -25 30h-150q-30 0 -35 -30q-6 -30 24 -30zM86 555q-5 -30 25 -30h150q30 0 35 30q6 30 -24 30h-150q-30 0 -36 -30zM100 630q-6 -30 24 -30h150q30 0 36 30
q5 30 -25 30h-150q-30 0 -35 -30zM138 675h150q30 0 35 30t-25 30h-150q-30 0 -35 -30t25 -30zM151 750h150q30 0 35 30t-25 30h-150q-30 0 -35 -30t25 -30zM386 555q-5 -30 25 -30h150q30 0 35 30q6 30 -24 30h-150q-30 0 -36 -30zM400 630q-6 -30 24 -30h150q30 0 36 30
q5 30 -25 30h-150q-30 0 -35 -30zM438 675h150q30 0 35 30t-25 30h-150q-30 0 -35 -30t25 -30zM451 750h150q30 0 35 30t-25 30h-150q-30 0 -35 -30t25 -30zM122 330q-6 -30 24 -30h300q30 0 36 30q5 30 -25 30h-300q-30 0 -35 -30z" />
    <glyph glyph-name="Z" unicode="Z" 
d="M124 600h450q30 0 36 30q5 30 -25 30h-450q-30 0 -35 -30q-6 -30 24 -30zM138 675h450q30 0 35 30t-25 30h-450q-30 0 -35 -30t25 -30zM151 750h450q30 0 35 30t-25 30h-450q-30 0 -35 -30t25 -30zM19 0h450q30 0 35 30t-25 30h-450q-30 0 -35 -30t25 -30zM32 75h450
q30 0 35 30t-25 30h-450q-30 0 -35 -30t25 -30zM45 150h450q30 0 35 30q6 30 -24 30h-450q-30 0 -36 -30q-5 -30 25 -30zM223 480q-5 -30 25 -30h225q30 0 35 30q6 30 -24 30h-225q-30 0 -36 -30zM58 225h225q30 0 36 30q5 30 -25 30h-225q-30 0 -35 -30q-6 -30 24 -30z
M336 525h225q30 0 35 30q6 30 -24 30h-225q-30 0 -36 -30q-5 -30 25 -30zM47 330q-6 -30 24 -30h225q30 0 36 30q5 30 -25 30h-225q-30 0 -35 -30zM160 375h225q30 0 35 30t-25 30h-225q-30 0 -35 -30t25 -30z" />
    <glyph glyph-name="bracketleft" unicode="[" horiz-adv-x="330" 
d="M124 600h150q30 0 36 30q5 30 -25 30h-150q-30 0 -35 -30q-6 -30 24 -30zM138 675h150q30 0 35 30t-25 30h-150q-30 0 -35 -30t25 -30zM85 375h150q30 0 35 30t-25 30h-150q-30 0 -35 -30t25 -30zM34 255q-6 -30 24 -30h150q30 0 36 30q5 30 -25 30h-150q-30 0 -35 -30z
M151 750h150q30 0 35 30t-25 30h-150q-30 0 -35 -30t25 -30zM111 525h150q30 0 35 30q6 30 -24 30h-150q-30 0 -36 -30q-5 -30 25 -30zM71 300h150q30 0 36 30q5 30 -25 30h-150q-30 0 -35 -30q-6 -30 24 -30zM32 75h150q30 0 35 30t-25 30h-150q-30 0 -35 -30t25 -30z
M45 150h150q30 0 35 30q6 30 -24 30h-150q-30 0 -36 -30q-5 -30 25 -30zM98 450h150q30 0 35 30q6 30 -24 30h-150q-30 0 -36 -30q-5 -30 25 -30zM139 855q-5 -30 25 -30h225q30 0 35 30q6 30 -24 30h-225q-30 0 -36 -30zM-6 30q-5 -30 25 -30h150q30 0 35 30t-25 30h-150
q-30 0 -35 -30zM-19 -45q-6 -30 24 -30h225q30 0 36 30q5 30 -25 30h-225q-30 0 -35 -30z" />
    <glyph glyph-name="backslash" unicode="\" horiz-adv-x="479" 
d="M274 600h-150q-30 0 -24 30q5 30 35 30h150q30 0 25 -30q-6 -30 -36 -30zM288 675h-150q-30 0 -25 30t35 30h150q30 0 25 -30t-35 -30zM301 750h-150q-30 0 -25 30t35 30h150q30 0 25 -30t-35 -30zM319 0h-150q-30 0 -25 30t35 30h150q30 0 25 -30t-35 -30zM332 75h-150
q-30 0 -25 30t35 30h150q30 0 25 -30t-35 -30zM345 150h-150q-30 0 -25 30q6 30 36 30h150q30 0 24 -30q-5 -30 -35 -30zM358 480q-5 -30 -35 -30h-150q-30 0 -25 30q6 30 36 30h150q30 0 24 -30zM358 225h-150q-30 0 -24 30q5 30 35 30h150q30 0 25 -30q-6 -30 -36 -30z
M261 525h-150q-30 0 -25 30q6 30 36 30h150q30 0 24 -30q-5 -30 -35 -30zM332 330q-6 -30 -36 -30h-150q-30 0 -24 30q5 30 35 30h150q30 0 25 -30zM310 375h-150q-30 0 -25 30t35 30h150q30 0 25 -30t-35 -30z" />
    <glyph glyph-name="bracketright" unicode="]" horiz-adv-x="330" 
d="M274 600h-150q-30 0 -24 30q5 30 35 30h150q30 0 25 -30q-6 -30 -36 -30zM288 675h-150q-30 0 -25 30t35 30h150q30 0 25 -30t-35 -30zM235 375h-150q-30 0 -25 30t35 30h150q30 0 25 -30t-35 -30zM244 255q-6 -30 -36 -30h-150q-30 0 -24 30q5 30 35 30h150q30 0 25 -30
zM301 750h-150q-30 0 -25 30t35 30h150q30 0 25 -30t-35 -30zM261 525h-150q-30 0 -25 30q6 30 36 30h150q30 0 24 -30q-5 -30 -35 -30zM221 300h-150q-30 0 -24 30q5 30 35 30h150q30 0 25 -30q-6 -30 -36 -30zM182 75h-150q-30 0 -25 30t35 30h150q30 0 25 -30t-35 -30z
M195 150h-150q-30 0 -25 30q6 30 36 30h150q30 0 24 -30q-5 -30 -35 -30zM248 450h-150q-30 0 -25 30q6 30 36 30h150q30 0 24 -30q-5 -30 -35 -30zM349 855q-5 -30 -35 -30h-225q-30 0 -25 30q6 30 36 30h225q30 0 24 -30zM204 30q-5 -30 -35 -30h-150q-30 0 -25 30t35 30
h150q30 0 25 -30zM191 -45q-6 -30 -36 -30h-225q-30 0 -24 30q5 30 35 30h225q30 0 25 -30z" />
    <glyph glyph-name="asciicircum" unicode="^" horiz-adv-x="406" 
d="M142 780q-6 -30 24 -30h75q30 0 36 30q5 30 -25 30h-75q-30 0 -35 -30zM53 705q-5 -30 25 -30h225q30 0 35 30q6 30 -24 30h-225q-30 0 -36 -30z" />
    <glyph glyph-name="underscore" unicode="_" 
d="M85 75h450q30 0 35 30t-25 30h-450q-30 0 -35 -30t25 -30zM98 150h450q30 0 35 30q6 30 -24 30h-450q-30 0 -36 -30q-5 -30 25 -30zM47 30q-6 -30 24 -30h450q30 0 36 30q5 30 -25 30h-450q-30 0 -35 -30z" />
    <glyph glyph-name="grave" unicode="`" horiz-adv-x="330" 
d="M67 780q-6 -30 24 -30h75q30 0 36 30q5 30 -25 30h-75q-30 0 -35 -30zM128 705q-5 -30 25 -30h75q30 0 35 30q6 30 -24 30h-75q-30 0 -36 -30z" />
    <glyph glyph-name="a" unicode="a" 
d="M100 630q-6 -30 24 -30h450q30 0 36 30q5 30 -25 30h-450q-30 0 -35 -30zM60 405q-5 -30 25 -30h450q30 0 35 30t-25 30h-450q-30 0 -35 -30zM113 705q-5 -30 25 -30h450q30 0 35 30t-25 30h-450q-30 0 -35 -30zM47 330q-6 -30 24 -30h450q30 0 36 30q5 30 -25 30h-450
q-30 0 -35 -30zM34 255q-6 -30 24 -30h450q30 0 36 30q5 30 -25 30h-450q-30 0 -35 -30zM201 780q-5 -30 25 -30h300q30 0 35 30t-25 30h-300q-30 0 -35 -30zM294 30q-5 -30 25 -30h150q30 0 35 30t-25 30h-150q-30 0 -35 -30zM373 480q-5 -30 25 -30h150q30 0 35 30
q6 30 -24 30h-150q-30 0 -36 -30zM307 105q-5 -30 25 -30h150q30 0 35 30t-25 30h-150q-30 0 -35 -30zM86 555q-5 -30 25 -30h150q30 0 35 30q6 30 -24 30h-150q-30 0 -36 -30zM386 555q-5 -30 25 -30h150q30 0 35 30q6 30 -24 30h-150q-30 0 -36 -30zM-6 30q-5 -30 25 -30
h150q30 0 35 30t-25 30h-150q-30 0 -35 -30zM73 480q-5 -30 25 -30h150q30 0 35 30q6 30 -24 30h-150q-30 0 -36 -30zM32 75h150q30 0 35 30t-25 30h-150q-30 0 -35 -30t25 -30zM345 150h150q30 0 35 30q6 30 -24 30h-150q-30 0 -36 -30q-5 -30 25 -30zM20 180
q-5 -30 25 -30h150q30 0 35 30q6 30 -24 30h-150q-30 0 -36 -30z" />
    <glyph glyph-name="b" unicode="b" 
d="M138 675h450q30 0 35 30t-25 30h-450q-30 0 -35 -30t25 -30zM151 750h375q30 0 35 30t-25 30h-375q-30 0 -35 -30t25 -30zM124 600h450q30 0 36 30q5 30 -25 30h-450q-30 0 -35 -30q-6 -30 24 -30zM98 450h450q30 0 35 30q6 30 -24 30h-450q-30 0 -36 -30q-5 -30 25 -30z
M71 300h450q30 0 36 30q5 30 -25 30h-450q-30 0 -35 -30q-6 -30 24 -30zM45 150h450q30 0 35 30q6 30 -24 30h-450q-30 0 -36 -30q-5 -30 25 -30zM32 75h450q30 0 35 30t-25 30h-450q-30 0 -35 -30t25 -30zM86 555q-5 -30 25 -30h150q30 0 35 30q6 30 -24 30h-150
q-30 0 -36 -30zM386 555q-5 -30 25 -30h150q30 0 35 30q6 30 -24 30h-150q-30 0 -36 -30zM34 255q-6 -30 24 -30h150q30 0 36 30q5 30 -25 30h-150q-30 0 -35 -30zM334 255q-6 -30 24 -30h150q30 0 36 30q5 30 -25 30h-150q-30 0 -35 -30zM-6 30q-5 -30 25 -30h375
q30 0 35 30t-25 30h-375q-30 0 -35 -30zM60 405q-5 -30 25 -30h375q30 0 35 30t-25 30h-375q-30 0 -35 -30z" />
    <glyph glyph-name="c" unicode="c" 
d="M124 600h450q30 0 36 30q5 30 -25 30h-450q-30 0 -35 -30q-6 -30 24 -30zM138 675h450q30 0 35 30t-25 30h-450q-30 0 -35 -30t25 -30zM45 150h450q30 0 35 30q6 30 -24 30h-450q-30 0 -36 -30q-5 -30 25 -30zM32 75h450q30 0 35 30t-25 30h-450q-30 0 -35 -30t25 -30z
M60 405q-5 -30 25 -30h150q30 0 35 30t-25 30h-150q-30 0 -35 -30zM73 480q-5 -30 25 -30h150q30 0 35 30q6 30 -24 30h-150q-30 0 -36 -30zM111 525h150q30 0 35 30q6 30 -24 30h-150q-30 0 -36 -30q-5 -30 25 -30zM34 255q-6 -30 24 -30h150q30 0 36 30q5 30 -25 30h-150
q-30 0 -35 -30zM47 330q-6 -30 24 -30h150q30 0 36 30q5 30 -25 30h-150q-30 0 -35 -30zM334 255q-6 -30 24 -30h150q30 0 36 30q5 30 -25 30h-150q-30 0 -35 -30zM386 555q-5 -30 25 -30h150q30 0 35 30q6 30 -24 30h-150q-30 0 -36 -30zM69 30q-5 -30 25 -30h300
q30 0 35 30t-25 30h-300q-30 0 -35 -30zM201 780q-5 -30 25 -30h300q30 0 35 30t-25 30h-300q-30 0 -35 -30z" />
    <glyph glyph-name="d" unicode="d" 
d="M124 600h450q30 0 36 30q5 30 -25 30h-450q-30 0 -35 -30q-6 -30 24 -30zM138 675h450q30 0 35 30t-25 30h-450q-30 0 -35 -30t25 -30zM45 150h450q30 0 35 30q6 30 -24 30h-450q-30 0 -36 -30q-5 -30 25 -30zM32 75h450q30 0 35 30t-25 30h-450q-30 0 -35 -30t25 -30z
M60 405q-5 -30 25 -30h150q30 0 35 30t-25 30h-150q-30 0 -35 -30zM73 480q-5 -30 25 -30h150q30 0 35 30q6 30 -24 30h-150q-30 0 -36 -30zM111 525h150q30 0 35 30q6 30 -24 30h-150q-30 0 -36 -30q-5 -30 25 -30zM360 405q-5 -30 25 -30h150q30 0 35 30t-25 30h-150
q-30 0 -35 -30zM373 480q-5 -30 25 -30h150q30 0 35 30q6 30 -24 30h-150q-30 0 -36 -30zM411 525h150q30 0 35 30q6 30 -24 30h-150q-30 0 -36 -30q-5 -30 25 -30zM34 255q-6 -30 24 -30h150q30 0 36 30q5 30 -25 30h-150q-30 0 -35 -30zM47 330q-6 -30 24 -30h150
q30 0 36 30q5 30 -25 30h-150q-30 0 -35 -30zM334 255q-6 -30 24 -30h150q30 0 36 30q5 30 -25 30h-150q-30 0 -35 -30zM347 330q-6 -30 24 -30h150q30 0 36 30q5 30 -25 30h-150q-30 0 -35 -30zM126 780q-5 -30 25 -30h375q30 0 35 30t-25 30h-375q-30 0 -35 -30zM-6 30
q-5 -30 25 -30h375q30 0 35 30t-25 30h-375q-30 0 -35 -30z" />
    <glyph glyph-name="e" unicode="e" 
d="M124 600h450q30 0 36 30q5 30 -25 30h-450q-30 0 -35 -30q-6 -30 24 -30zM138 675h450q30 0 35 30t-25 30h-450q-30 0 -35 -30t25 -30zM98 450h450q30 0 35 30q6 30 -24 30h-450q-30 0 -36 -30q-5 -30 25 -30zM85 375h450q30 0 35 30t-25 30h-450q-30 0 -35 -30t25 -30z
M71 300h450q30 0 36 30q5 30 -25 30h-450q-30 0 -35 -30q-6 -30 24 -30zM45 150h450q30 0 35 30q6 30 -24 30h-450q-30 0 -36 -30q-5 -30 25 -30zM32 75h450q30 0 35 30t-25 30h-450q-30 0 -35 -30t25 -30zM34 255q-6 -30 24 -30h150q30 0 36 30q5 30 -25 30h-150
q-30 0 -35 -30zM111 525h150q30 0 35 30q6 30 -24 30h-150q-30 0 -36 -30q-5 -30 25 -30zM69 30q-5 -30 25 -30h375q30 0 35 30t-25 30h-375q-30 0 -35 -30zM201 780q-5 -30 25 -30h375q30 0 35 30t-25 30h-375q-30 0 -35 -30z" />
    <glyph glyph-name="f" unicode="f" 
d="M71 300h450q30 0 36 30q5 30 -25 30h-450q-30 0 -35 -30q-6 -30 24 -30zM85 375h450q30 0 35 30t-25 30h-450q-30 0 -35 -30t25 -30zM98 450h450q30 0 35 30q6 30 -24 30h-450q-30 0 -36 -30q-5 -30 25 -30zM124 600h450q30 0 36 30q5 30 -25 30h-450q-30 0 -35 -30
q-6 -30 24 -30zM138 675h450q30 0 35 30t-25 30h-450q-30 0 -35 -30t25 -30zM7 105q-5 -30 25 -30h150q30 0 35 30t-25 30h-150q-30 0 -35 -30zM20 180q-5 -30 25 -30h150q30 0 35 30q6 30 -24 30h-150q-30 0 -36 -30zM58 225h150q30 0 36 30q5 30 -25 30h-150
q-30 0 -35 -30q-6 -30 24 -30zM19 0h150q30 0 35 30t-25 30h-150q-30 0 -35 -30t25 -30zM86 555q-5 -30 25 -30h150q30 0 35 30q6 30 -24 30h-150q-30 0 -36 -30zM201 780q-5 -30 25 -30h375q30 0 35 30t-25 30h-375q-30 0 -35 -30z" />
    <glyph glyph-name="g" unicode="g" 
d="M124 600h450q30 0 36 30q5 30 -25 30h-450q-30 0 -35 -30q-6 -30 24 -30zM138 675h450q30 0 35 30t-25 30h-450q-30 0 -35 -30t25 -30zM45 150h450q30 0 35 30q6 30 -24 30h-450q-30 0 -36 -30q-5 -30 25 -30zM32 75h450q30 0 35 30t-25 30h-450q-30 0 -35 -30t25 -30z
M60 405q-5 -30 25 -30h150q30 0 35 30t-25 30h-150q-30 0 -35 -30zM73 480q-5 -30 25 -30h150q30 0 35 30q6 30 -24 30h-150q-30 0 -36 -30zM111 525h150q30 0 35 30q6 30 -24 30h-150q-30 0 -36 -30q-5 -30 25 -30zM34 255q-6 -30 24 -30h150q30 0 36 30q5 30 -25 30h-150
q-30 0 -35 -30zM47 330q-6 -30 24 -30h150q30 0 36 30q5 30 -25 30h-150q-30 0 -35 -30zM411 525h150q30 0 35 30q6 30 -24 30h-150q-30 0 -36 -30q-5 -30 25 -30zM334 255q-6 -30 24 -30h150q30 0 36 30q5 30 -25 30h-150q-30 0 -35 -30zM347 330q-6 -30 24 -30h150
q30 0 36 30q5 30 -25 30h-150q-30 0 -35 -30zM94 0h375q30 0 35 30t-25 30h-375q-30 0 -35 -30t25 -30zM201 780q-5 -30 25 -30h300q30 0 35 30t-25 30h-300q-30 0 -35 -30zM360 405q-5 -30 25 -30h150q30 0 35 30t-25 30h-150q-30 0 -35 -30z" />
    <glyph glyph-name="h" unicode="h" 
d="M98 450h450q30 0 35 30q6 30 -24 30h-450q-30 0 -36 -30q-5 -30 25 -30zM85 375h450q30 0 35 30t-25 30h-450q-30 0 -35 -30t25 -30zM71 300h450q30 0 36 30q5 30 -25 30h-450q-30 0 -35 -30q-6 -30 24 -30zM86 555q-5 -30 25 -30h150q30 0 35 30q6 30 -24 30h-150
q-30 0 -36 -30zM100 630q-6 -30 24 -30h150q30 0 36 30q5 30 -25 30h-150q-30 0 -35 -30zM138 675h150q30 0 35 30t-25 30h-150q-30 0 -35 -30t25 -30zM386 555q-5 -30 25 -30h150q30 0 35 30q6 30 -24 30h-150q-30 0 -36 -30zM400 630q-6 -30 24 -30h150q30 0 36 30
q5 30 -25 30h-150q-30 0 -35 -30zM438 675h150q30 0 35 30t-25 30h-150q-30 0 -35 -30t25 -30zM126 780q-5 -30 25 -30h150q30 0 35 30t-25 30h-150q-30 0 -35 -30zM451 750h150q30 0 35 30t-25 30h-150q-30 0 -35 -30t25 -30zM-6 30q-5 -30 25 -30h150q30 0 35 30t-25 30
h-150q-30 0 -35 -30zM7 105q-5 -30 25 -30h150q30 0 35 30t-25 30h-150q-30 0 -35 -30zM45 150h150q30 0 35 30q6 30 -24 30h-150q-30 0 -36 -30q-5 -30 25 -30zM294 30q-5 -30 25 -30h150q30 0 35 30t-25 30h-150q-30 0 -35 -30zM307 105q-5 -30 25 -30h150q30 0 35 30
t-25 30h-150q-30 0 -35 -30zM345 150h150q30 0 35 30q6 30 -24 30h-150q-30 0 -36 -30q-5 -30 25 -30zM34 255q-6 -30 24 -30h150q30 0 36 30q5 30 -25 30h-150q-30 0 -35 -30zM358 225h150q30 0 36 30q5 30 -25 30h-150q-30 0 -35 -30q-6 -30 24 -30z" />
    <glyph glyph-name="i" unicode="i" horiz-adv-x="480" 
d="M122 330q-6 -30 24 -30h150q30 0 36 30q5 30 -25 30h-150q-30 0 -35 -30zM135 405q-5 -30 25 -30h150q30 0 35 30t-25 30h-150q-30 0 -35 -30zM173 450h150q30 0 35 30q6 30 -24 30h-150q-30 0 -36 -30q-5 -30 25 -30zM100 630q-6 -30 24 -30h300q30 0 36 30q5 30 -25 30
h-300q-30 0 -35 -30zM113 705q-5 -30 25 -30h300q30 0 35 30t-25 30h-300q-30 0 -35 -30zM151 750h300q30 0 35 30t-25 30h-300q-30 0 -35 -30t25 -30zM161 555q-5 -30 25 -30h150q30 0 35 30q6 30 -24 30h-150q-30 0 -36 -30zM133 225h150q30 0 36 30q5 30 -25 30h-150
q-30 0 -35 -30q-6 -30 24 -30zM-6 30q-5 -30 25 -30h300q30 0 35 30t-25 30h-300q-30 0 -35 -30zM32 75h300q30 0 35 30t-25 30h-300q-30 0 -35 -30t25 -30zM20 180q-5 -30 25 -30h300q30 0 35 30q6 30 -24 30h-300q-30 0 -36 -30z" />
    <glyph glyph-name="j" unicode="j" 
d="M45 150h450q30 0 35 30q6 30 -24 30h-450q-30 0 -36 -30q-5 -30 25 -30zM32 75h450q30 0 35 30t-25 30h-450q-30 0 -35 -30t25 -30zM34 255q-6 -30 24 -30h150q30 0 36 30q5 30 -25 30h-150q-30 0 -35 -30zM47 330q-6 -30 24 -30h150q30 0 36 30q5 30 -25 30h-150
q-30 0 -35 -30zM85 375h150q30 0 35 30t-25 30h-150q-30 0 -35 -30t25 -30zM334 255q-6 -30 24 -30h150q30 0 36 30q5 30 -25 30h-150q-30 0 -35 -30zM347 330q-6 -30 24 -30h150q30 0 36 30q5 30 -25 30h-150q-30 0 -35 -30zM385 375h150q30 0 35 30t-25 30h-150
q-30 0 -35 -30t25 -30zM398 450h150q30 0 35 30q6 30 -24 30h-150q-30 0 -36 -30q-5 -30 25 -30zM386 555q-5 -30 25 -30h150q30 0 35 30q6 30 -24 30h-150q-30 0 -36 -30zM400 630q-6 -30 24 -30h150q30 0 36 30q5 30 -25 30h-150q-30 0 -35 -30zM438 675h150q30 0 35 30
t-25 30h-150q-30 0 -35 -30t25 -30zM69 30q-5 -30 25 -30h300q30 0 35 30t-25 30h-300q-30 0 -35 -30zM426 780q-5 -30 25 -30h150q30 0 35 30t-25 30h-150q-30 0 -35 -30z" />
    <glyph glyph-name="k" unicode="k" 
d="M98 450h375q30 0 35 30q6 30 -24 30h-375q-30 0 -36 -30q-5 -30 25 -30zM71 300h375q30 0 36 30q5 30 -25 30h-375q-30 0 -35 -30q-6 -30 24 -30zM86 555q-5 -30 25 -30h150q30 0 35 30q6 30 -24 30h-150q-30 0 -36 -30zM100 630q-6 -30 24 -30h150q30 0 36 30
q5 30 -25 30h-150q-30 0 -35 -30zM138 675h150q30 0 35 30t-25 30h-150q-30 0 -35 -30t25 -30zM386 555q-5 -30 25 -30h150q30 0 35 30q6 30 -24 30h-150q-30 0 -36 -30zM400 630q-6 -30 24 -30h150q30 0 36 30q5 30 -25 30h-150q-30 0 -35 -30zM438 675h150q30 0 35 30
t-25 30h-150q-30 0 -35 -30t25 -30zM126 780q-5 -30 25 -30h150q30 0 35 30t-25 30h-150q-30 0 -35 -30zM451 750h150q30 0 35 30t-25 30h-150q-30 0 -35 -30t25 -30zM-6 30q-5 -30 25 -30h150q30 0 35 30t-25 30h-150q-30 0 -35 -30zM7 105q-5 -30 25 -30h150q30 0 35 30
t-25 30h-150q-30 0 -35 -30zM45 150h150q30 0 35 30q6 30 -24 30h-150q-30 0 -36 -30q-5 -30 25 -30zM294 30q-5 -30 25 -30h150q30 0 35 30t-25 30h-150q-30 0 -35 -30zM307 105q-5 -30 25 -30h150q30 0 35 30t-25 30h-150q-30 0 -35 -30zM345 150h150q30 0 35 30
q6 30 -24 30h-150q-30 0 -36 -30q-5 -30 25 -30zM34 255q-6 -30 24 -30h150q30 0 36 30q5 30 -25 30h-150q-30 0 -35 -30zM358 225h150q30 0 36 30q5 30 -25 30h-150q-30 0 -35 -30q-6 -30 24 -30zM60 405q-5 -30 25 -30h300q30 0 35 30t-25 30h-300q-30 0 -35 -30z" />
    <glyph glyph-name="l" unicode="l" 
d="M45 150h450q30 0 35 30q6 30 -24 30h-450q-30 0 -36 -30q-5 -30 25 -30zM32 75h450q30 0 35 30t-25 30h-450q-30 0 -35 -30t25 -30zM94 0h375q30 0 35 30t-25 30h-375q-30 0 -35 -30t25 -30zM34 255q-6 -30 24 -30h150q30 0 36 30q5 30 -25 30h-150q-30 0 -35 -30z
M47 330q-6 -30 24 -30h150q30 0 36 30q5 30 -25 30h-150q-30 0 -35 -30zM85 375h150q30 0 35 30t-25 30h-150q-30 0 -35 -30t25 -30zM86 555q-5 -30 25 -30h150q30 0 35 30q6 30 -24 30h-150q-30 0 -36 -30zM100 630q-6 -30 24 -30h150q30 0 36 30q5 30 -25 30h-150
q-30 0 -35 -30zM138 675h150q30 0 35 30t-25 30h-150q-30 0 -35 -30t25 -30zM73 480q-5 -30 25 -30h150q30 0 35 30q6 30 -24 30h-150q-30 0 -36 -30zM151 750h150q30 0 35 30t-25 30h-150q-30 0 -35 -30t25 -30z" />
    <glyph glyph-name="m" unicode="m" horiz-adv-x="930" 
d="M138 675h750q30 0 35 30t-25 30h-750q-30 0 -35 -30t25 -30zM124 600h750q30 0 36 30q5 30 -25 30h-750q-30 0 -35 -30q-6 -30 24 -30zM47 330q-6 -30 24 -30h150q30 0 36 30q5 30 -25 30h-150q-30 0 -35 -30zM60 405q-5 -30 25 -30h150q30 0 35 30t-25 30h-150
q-30 0 -35 -30zM98 450h150q30 0 35 30q6 30 -24 30h-150q-30 0 -36 -30q-5 -30 25 -30zM347 330q-6 -30 24 -30h150q30 0 36 30q5 30 -25 30h-150q-30 0 -35 -30zM360 405q-5 -30 25 -30h150q30 0 35 30t-25 30h-150q-30 0 -35 -30zM398 450h150q30 0 35 30q6 30 -24 30
h-150q-30 0 -36 -30q-5 -30 25 -30zM86 555q-5 -30 25 -30h150q30 0 35 30q6 30 -24 30h-150q-30 0 -36 -30zM411 525h150q30 0 35 30q6 30 -24 30h-150q-30 0 -36 -30q-5 -30 25 -30zM647 330q-6 -30 24 -30h150q30 0 36 30q5 30 -25 30h-150q-30 0 -35 -30zM660 405
q-5 -30 25 -30h150q30 0 35 30t-25 30h-150q-30 0 -35 -30zM698 450h150q30 0 35 30q6 30 -24 30h-150q-30 0 -36 -30q-5 -30 25 -30zM-6 30q-5 -30 25 -30h150q30 0 35 30t-25 30h-150q-30 0 -35 -30zM7 105q-5 -30 25 -30h150q30 0 35 30t-25 30h-150q-30 0 -35 -30z
M45 150h150q30 0 35 30q6 30 -24 30h-150q-30 0 -36 -30q-5 -30 25 -30zM686 555q-5 -30 25 -30h150q30 0 35 30q6 30 -24 30h-150q-30 0 -36 -30zM58 225h150q30 0 36 30q5 30 -25 30h-150q-30 0 -35 -30q-6 -30 24 -30zM294 30q-5 -30 25 -30h150q30 0 35 30t-25 30h-150
q-30 0 -35 -30zM307 105q-5 -30 25 -30h150q30 0 35 30t-25 30h-150q-30 0 -35 -30zM345 150h150q30 0 35 30q6 30 -24 30h-150q-30 0 -36 -30q-5 -30 25 -30zM594 30q-5 -30 25 -30h150q30 0 35 30t-25 30h-150q-30 0 -35 -30zM607 105q-5 -30 25 -30h150q30 0 35 30
t-25 30h-150q-30 0 -35 -30zM645 150h150q30 0 35 30q6 30 -24 30h-150q-30 0 -36 -30q-5 -30 25 -30zM334 255q-6 -30 24 -30h150q30 0 36 30q5 30 -25 30h-150q-30 0 -35 -30zM658 225h150q30 0 36 30q5 30 -25 30h-150q-30 0 -35 -30q-6 -30 24 -30zM126 780
q-5 -30 25 -30h675q30 0 35 30t-25 30h-675q-30 0 -35 -30z" />
    <glyph glyph-name="n" unicode="n" 
d="M124 600h450q30 0 36 30q5 30 -25 30h-450q-30 0 -35 -30q-6 -30 24 -30zM138 675h450q30 0 35 30t-25 30h-450q-30 0 -35 -30t25 -30zM47 330q-6 -30 24 -30h150q30 0 36 30q5 30 -25 30h-150q-30 0 -35 -30zM60 405q-5 -30 25 -30h150q30 0 35 30t-25 30h-150
q-30 0 -35 -30zM98 450h150q30 0 35 30q6 30 -24 30h-150q-30 0 -36 -30q-5 -30 25 -30zM347 330q-6 -30 24 -30h150q30 0 36 30q5 30 -25 30h-150q-30 0 -35 -30zM360 405q-5 -30 25 -30h150q30 0 35 30t-25 30h-150q-30 0 -35 -30zM398 450h150q30 0 35 30q6 30 -24 30
h-150q-30 0 -36 -30q-5 -30 25 -30zM86 555q-5 -30 25 -30h150q30 0 35 30q6 30 -24 30h-150q-30 0 -36 -30zM411 525h150q30 0 35 30q6 30 -24 30h-150q-30 0 -36 -30q-5 -30 25 -30zM-6 30q-5 -30 25 -30h150q30 0 35 30t-25 30h-150q-30 0 -35 -30zM7 105q-5 -30 25 -30
h150q30 0 35 30t-25 30h-150q-30 0 -35 -30zM45 150h150q30 0 35 30q6 30 -24 30h-150q-30 0 -36 -30q-5 -30 25 -30zM294 30q-5 -30 25 -30h150q30 0 35 30t-25 30h-150q-30 0 -35 -30zM307 105q-5 -30 25 -30h150q30 0 35 30t-25 30h-150q-30 0 -35 -30zM345 150h150
q30 0 35 30q6 30 -24 30h-150q-30 0 -36 -30q-5 -30 25 -30zM34 255q-6 -30 24 -30h150q30 0 36 30q5 30 -25 30h-150q-30 0 -35 -30zM358 225h150q30 0 36 30q5 30 -25 30h-150q-30 0 -35 -30q-6 -30 24 -30zM126 780q-5 -30 25 -30h375q30 0 35 30t-25 30h-375
q-30 0 -35 -30z" />
    <glyph glyph-name="o" unicode="o" 
d="M124 600h450q30 0 36 30q5 30 -25 30h-450q-30 0 -35 -30q-6 -30 24 -30zM138 675h450q30 0 35 30t-25 30h-450q-30 0 -35 -30t25 -30zM32 75h450q30 0 35 30t-25 30h-450q-30 0 -35 -30t25 -30zM45 150h450q30 0 35 30q6 30 -24 30h-450q-30 0 -36 -30q-5 -30 25 -30z
M47 330q-6 -30 24 -30h150q30 0 36 30q5 30 -25 30h-150q-30 0 -35 -30zM60 405q-5 -30 25 -30h150q30 0 35 30t-25 30h-150q-30 0 -35 -30zM98 450h150q30 0 35 30q6 30 -24 30h-150q-30 0 -36 -30q-5 -30 25 -30zM347 330q-6 -30 24 -30h150q30 0 36 30q5 30 -25 30h-150
q-30 0 -35 -30zM360 405q-5 -30 25 -30h150q30 0 35 30t-25 30h-150q-30 0 -35 -30zM398 450h150q30 0 35 30q6 30 -24 30h-150q-30 0 -36 -30q-5 -30 25 -30zM86 555q-5 -30 25 -30h150q30 0 35 30q6 30 -24 30h-150q-30 0 -36 -30zM411 525h150q30 0 35 30q6 30 -24 30
h-150q-30 0 -36 -30q-5 -30 25 -30zM34 255q-6 -30 24 -30h150q30 0 36 30q5 30 -25 30h-150q-30 0 -35 -30zM358 225h150q30 0 36 30q5 30 -25 30h-150q-30 0 -35 -30q-6 -30 24 -30zM201 780q-5 -30 25 -30h300q30 0 35 30t-25 30h-300q-30 0 -35 -30zM69 30
q-5 -30 25 -30h300q30 0 35 30t-25 30h-300q-30 0 -35 -30z" />
    <glyph glyph-name="p" unicode="p" 
d="M124 600h450q30 0 36 30q5 30 -25 30h-450q-30 0 -35 -30q-6 -30 24 -30zM138 675h450q30 0 35 30t-25 30h-450q-30 0 -35 -30t25 -30zM85 375h450q30 0 35 30t-25 30h-450q-30 0 -35 -30t25 -30zM98 450h450q30 0 35 30q6 30 -24 30h-450q-30 0 -36 -30q-5 -30 25 -30z
M-6 30q-5 -30 25 -30h150q30 0 35 30t-25 30h-150q-30 0 -35 -30zM7 105q-5 -30 25 -30h150q30 0 35 30t-25 30h-150q-30 0 -35 -30zM45 150h150q30 0 35 30q6 30 -24 30h-150q-30 0 -36 -30q-5 -30 25 -30zM34 255q-6 -30 24 -30h150q30 0 36 30q5 30 -25 30h-150
q-30 0 -35 -30zM86 555q-5 -30 25 -30h150q30 0 35 30q6 30 -24 30h-150q-30 0 -36 -30zM386 555q-5 -30 25 -30h150q30 0 35 30q6 30 -24 30h-150q-30 0 -36 -30zM47 330q-6 -30 24 -30h375q30 0 36 30q5 30 -25 30h-375q-30 0 -35 -30zM126 780q-5 -30 25 -30h375
q30 0 35 30t-25 30h-375q-30 0 -35 -30z" />
    <glyph glyph-name="q" unicode="q" 
d="M131 600h450q30 0 35 30q6 30 -24 30h-450q-30 0 -36 -30q-5 -30 25 -30zM144 675h450q30 0 36 30q5 30 -25 30h-450q-30 0 -35 -30q-6 -30 24 -30zM38 75h450q30 0 36 30q5 30 -25 30h-450q-30 0 -35 -30q-6 -30 24 -30zM52 150h450q30 0 35 30t-25 30h-450
q-30 0 -35 -30t25 -30zM53 330q-5 -30 25 -30h150q30 0 35 30q6 30 -24 30h-150q-30 0 -36 -30zM67 405q-6 -30 24 -30h150q30 0 36 30q5 30 -25 30h-150q-30 0 -35 -30zM105 450h150q30 0 35 30t-25 30h-150q-30 0 -35 -30t25 -30zM353 330q-5 -30 25 -30h150q30 0 35 30
q6 30 -24 30h-150q-30 0 -36 -30zM367 405q-6 -30 24 -30h150q30 0 36 30q5 30 -25 30h-150q-30 0 -35 -30zM405 450h150q30 0 35 30t-25 30h-150q-30 0 -35 -30t25 -30zM93 555q-5 -30 25 -30h150q30 0 35 30t-25 30h-150q-30 0 -35 -30zM418 525h150q30 0 35 30t-25 30
h-150q-30 0 -35 -30t25 -30zM40 255q-5 -30 25 -30h150q30 0 35 30t-25 30h-150q-30 0 -35 -30zM365 225h150q30 0 35 30t-25 30h-150q-30 0 -35 -30t25 -30zM208 780q-6 -30 24 -30h300q30 0 36 30q5 30 -25 30h-300q-30 0 -35 -30zM75 30q-5 -30 25 -30h375q30 0 35 30
q6 30 -24 30h-375q-30 0 -36 -30zM312 -75h150q30 0 35 30q6 30 -24 30h-150q-30 0 -36 -30q-5 -30 25 -30z" />
    <glyph glyph-name="r" unicode="r" 
d="M124 600h450q30 0 36 30q5 30 -25 30h-450q-30 0 -35 -30q-6 -30 24 -30zM138 675h450q30 0 35 30t-25 30h-450q-30 0 -35 -30t25 -30zM85 375h450q30 0 35 30t-25 30h-450q-30 0 -35 -30t25 -30zM98 450h450q30 0 35 30q6 30 -24 30h-450q-30 0 -36 -30q-5 -30 25 -30z
M-6 30q-5 -30 25 -30h150q30 0 35 30t-25 30h-150q-30 0 -35 -30zM7 105q-5 -30 25 -30h150q30 0 35 30t-25 30h-150q-30 0 -35 -30zM45 150h150q30 0 35 30q6 30 -24 30h-150q-30 0 -36 -30q-5 -30 25 -30zM294 30q-5 -30 25 -30h150q30 0 35 30t-25 30h-150q-30 0 -35 -30
zM307 105q-5 -30 25 -30h150q30 0 35 30t-25 30h-150q-30 0 -35 -30zM345 150h150q30 0 35 30q6 30 -24 30h-150q-30 0 -36 -30q-5 -30 25 -30zM34 255q-6 -30 24 -30h150q30 0 36 30q5 30 -25 30h-150q-30 0 -35 -30zM358 225h150q30 0 36 30q5 30 -25 30h-150
q-30 0 -35 -30q-6 -30 24 -30zM86 555q-5 -30 25 -30h150q30 0 35 30q6 30 -24 30h-150q-30 0 -36 -30zM386 555q-5 -30 25 -30h150q30 0 35 30q6 30 -24 30h-150q-30 0 -36 -30zM126 780q-5 -30 25 -30h375q30 0 35 30t-25 30h-375q-30 0 -35 -30zM47 330q-6 -30 24 -30
h375q30 0 36 30q5 30 -25 30h-375q-30 0 -35 -30z" />
    <glyph glyph-name="s" unicode="s" 
d="M32 75h450q30 0 35 30t-25 30h-450q-30 0 -35 -30t25 -30zM45 150h450q30 0 35 30q6 30 -24 30h-450q-30 0 -36 -30q-5 -30 25 -30zM124 600h450q30 0 36 30q5 30 -25 30h-450q-30 0 -35 -30q-6 -30 24 -30zM138 675h450q30 0 35 30t-25 30h-450q-30 0 -35 -30t25 -30z
M334 255q-6 -30 24 -30h150q30 0 36 30q5 30 -25 30h-150q-30 0 -35 -30zM86 555q-5 -30 25 -30h150q30 0 35 30q6 30 -24 30h-150q-30 0 -36 -30zM73 480q-5 -30 25 -30h375q30 0 35 30q6 30 -24 30h-375q-30 0 -36 -30zM115 330q-6 -30 24 -30h382q30 0 36 30q5 30 -25 30
h-382q-30 0 -35 -30zM-6 30q-5 -30 25 -30h375q30 0 35 30t-25 30h-375q-30 0 -35 -30zM201 780q-5 -30 25 -30h375q30 0 35 30t-25 30h-375q-30 0 -35 -30zM60 405q-5 -30 25 -30h450q30 0 35 30t-25 30h-450q-30 0 -35 -30z" />
    <glyph glyph-name="t" unicode="t" 
d="M124 600h450q30 0 36 30q5 30 -25 30h-450q-30 0 -35 -30q-6 -30 24 -30zM138 675h450q30 0 35 30t-25 30h-450q-30 0 -35 -30t25 -30zM151 750h450q30 0 35 30t-25 30h-450q-30 0 -35 -30t25 -30zM197 330q-6 -30 24 -30h150q30 0 36 30q5 30 -25 30h-150q-30 0 -35 -30
zM210 405q-5 -30 25 -30h150q30 0 35 30t-25 30h-150q-30 0 -35 -30zM248 450h150q30 0 35 30q6 30 -24 30h-150q-30 0 -36 -30q-5 -30 25 -30zM261 525h150q30 0 35 30q6 30 -24 30h-150q-30 0 -36 -30q-5 -30 25 -30zM144 30q-5 -30 25 -30h150q30 0 35 30t-25 30h-150
q-30 0 -35 -30zM157 105q-5 -30 25 -30h150q30 0 35 30t-25 30h-150q-30 0 -35 -30zM195 150h150q30 0 35 30q6 30 -24 30h-150q-30 0 -36 -30q-5 -30 25 -30zM208 225h150q30 0 36 30q5 30 -25 30h-150q-30 0 -35 -30q-6 -30 24 -30z" />
    <glyph glyph-name="u" unicode="u" 
d="M32 75h450q30 0 35 30t-25 30h-450q-30 0 -35 -30t25 -30zM45 150h450q30 0 35 30q6 30 -24 30h-450q-30 0 -36 -30q-5 -30 25 -30zM34 255q-6 -30 24 -30h150q30 0 36 30q5 30 -25 30h-150q-30 0 -35 -30zM47 330q-6 -30 24 -30h150q30 0 36 30q5 30 -25 30h-150
q-30 0 -35 -30zM85 375h150q30 0 35 30t-25 30h-150q-30 0 -35 -30t25 -30zM98 450h150q30 0 35 30q6 30 -24 30h-150q-30 0 -36 -30q-5 -30 25 -30zM334 255q-6 -30 24 -30h150q30 0 36 30q5 30 -25 30h-150q-30 0 -35 -30zM347 330q-6 -30 24 -30h150q30 0 36 30
q5 30 -25 30h-150q-30 0 -35 -30zM385 375h150q30 0 35 30t-25 30h-150q-30 0 -35 -30t25 -30zM398 450h150q30 0 35 30q6 30 -24 30h-150q-30 0 -36 -30q-5 -30 25 -30zM386 555q-5 -30 25 -30h150q30 0 35 30q6 30 -24 30h-150q-30 0 -36 -30zM400 630q-6 -30 24 -30h150
q30 0 36 30q5 30 -25 30h-150q-30 0 -35 -30zM438 675h150q30 0 35 30t-25 30h-150q-30 0 -35 -30t25 -30zM451 750h150q30 0 35 30t-25 30h-150q-30 0 -35 -30t25 -30zM86 555q-5 -30 25 -30h150q30 0 35 30q6 30 -24 30h-150q-30 0 -36 -30zM100 630q-6 -30 24 -30h150
q30 0 36 30q5 30 -25 30h-150q-30 0 -35 -30zM138 675h150q30 0 35 30t-25 30h-150q-30 0 -35 -30t25 -30zM151 750h150q30 0 35 30t-25 30h-150q-30 0 -35 -30t25 -30zM69 30q-5 -30 25 -30h300q30 0 35 30t-25 30h-300q-30 0 -35 -30z" />
    <glyph glyph-name="v" unicode="v" 
d="M45 150h450q30 0 35 30q6 30 -24 30h-450q-30 0 -36 -30q-5 -30 25 -30zM34 255q-6 -30 24 -30h150q30 0 36 30q5 30 -25 30h-150q-30 0 -35 -30zM47 330q-6 -30 24 -30h150q30 0 36 30q5 30 -25 30h-150q-30 0 -35 -30zM85 375h150q30 0 35 30t-25 30h-150
q-30 0 -35 -30t25 -30zM98 450h150q30 0 35 30q6 30 -24 30h-150q-30 0 -36 -30q-5 -30 25 -30zM334 255q-6 -30 24 -30h150q30 0 36 30q5 30 -25 30h-150q-30 0 -35 -30zM347 330q-6 -30 24 -30h150q30 0 36 30q5 30 -25 30h-150q-30 0 -35 -30zM385 375h150q30 0 35 30
t-25 30h-150q-30 0 -35 -30t25 -30zM398 450h150q30 0 35 30q6 30 -24 30h-150q-30 0 -36 -30q-5 -30 25 -30zM386 555q-5 -30 25 -30h150q30 0 35 30q6 30 -24 30h-150q-30 0 -36 -30zM400 630q-6 -30 24 -30h150q30 0 36 30q5 30 -25 30h-150q-30 0 -35 -30zM438 675h150
q30 0 35 30t-25 30h-150q-30 0 -35 -30t25 -30zM451 750h150q30 0 35 30t-25 30h-150q-30 0 -35 -30t25 -30zM86 555q-5 -30 25 -30h150q30 0 35 30q6 30 -24 30h-150q-30 0 -36 -30zM100 630q-6 -30 24 -30h150q30 0 36 30q5 30 -25 30h-150q-30 0 -35 -30zM138 675h150
q30 0 35 30t-25 30h-150q-30 0 -35 -30t25 -30zM151 750h150q30 0 35 30t-25 30h-150q-30 0 -35 -30t25 -30zM144 30q-5 -30 25 -30h150q30 0 35 30t-25 30h-150q-30 0 -35 -30zM82 105q-5 -30 25 -30h300q30 0 35 30t-25 30h-300q-30 0 -35 -30z" />
    <glyph glyph-name="w" unicode="w" horiz-adv-x="930" 
d="M32 75h750q30 0 35 30t-25 30h-750q-30 0 -35 -30t25 -30zM45 150h750q30 0 35 30q6 30 -24 30h-750q-30 0 -36 -30q-5 -30 25 -30zM34 255q-6 -30 24 -30h150q30 0 36 30q5 30 -25 30h-150q-30 0 -35 -30zM47 330q-6 -30 24 -30h150q30 0 36 30q5 30 -25 30h-150
q-30 0 -35 -30zM85 375h150q30 0 35 30t-25 30h-150q-30 0 -35 -30t25 -30zM98 450h150q30 0 35 30q6 30 -24 30h-150q-30 0 -36 -30q-5 -30 25 -30zM334 255q-6 -30 24 -30h150q30 0 36 30q5 30 -25 30h-150q-30 0 -35 -30zM347 330q-6 -30 24 -30h150q30 0 36 30
q5 30 -25 30h-150q-30 0 -35 -30zM385 375h150q30 0 35 30t-25 30h-150q-30 0 -35 -30t25 -30zM398 450h150q30 0 35 30q6 30 -24 30h-150q-30 0 -36 -30q-5 -30 25 -30zM386 555q-5 -30 25 -30h150q30 0 35 30q6 30 -24 30h-150q-30 0 -36 -30zM400 630q-6 -30 24 -30h150
q30 0 36 30q5 30 -25 30h-150q-30 0 -35 -30zM438 675h150q30 0 35 30t-25 30h-150q-30 0 -35 -30t25 -30zM451 750h150q30 0 35 30t-25 30h-150q-30 0 -35 -30t25 -30zM86 555q-5 -30 25 -30h150q30 0 35 30q6 30 -24 30h-150q-30 0 -36 -30zM100 630q-6 -30 24 -30h150
q30 0 36 30q5 30 -25 30h-150q-30 0 -35 -30zM138 675h150q30 0 35 30t-25 30h-150q-30 0 -35 -30t25 -30zM151 750h150q30 0 35 30t-25 30h-150q-30 0 -35 -30t25 -30zM634 255q-6 -30 24 -30h150q30 0 36 30q5 30 -25 30h-150q-30 0 -35 -30zM647 330q-6 -30 24 -30h150
q30 0 36 30q5 30 -25 30h-150q-30 0 -35 -30zM685 375h150q30 0 35 30t-25 30h-150q-30 0 -35 -30t25 -30zM698 450h150q30 0 35 30q6 30 -24 30h-150q-30 0 -36 -30q-5 -30 25 -30zM686 555q-5 -30 25 -30h150q30 0 35 30q6 30 -24 30h-150q-30 0 -36 -30zM700 630
q-6 -30 24 -30h150q30 0 36 30q5 30 -25 30h-150q-30 0 -35 -30zM738 675h150q30 0 35 30t-25 30h-150q-30 0 -35 -30t25 -30zM751 750h150q30 0 35 30t-25 30h-150q-30 0 -35 -30t25 -30zM69 30q-5 -30 25 -30h600q30 0 35 30t-25 30h-600q-30 0 -35 -30z" />
    <glyph glyph-name="x" unicode="x" 
d="M71 300h450q30 0 36 30q5 30 -25 30h-450q-30 0 -35 -30q-6 -30 24 -30zM98 450h450q30 0 35 30q6 30 -24 30h-450q-30 0 -36 -30q-5 -30 25 -30zM86 555q-5 -30 25 -30h150q30 0 35 30q6 30 -24 30h-150q-30 0 -36 -30zM100 630q-6 -30 24 -30h150q30 0 36 30
q5 30 -25 30h-150q-30 0 -35 -30zM138 675h150q30 0 35 30t-25 30h-150q-30 0 -35 -30t25 -30zM151 750h150q30 0 35 30t-25 30h-150q-30 0 -35 -30t25 -30zM386 555q-5 -30 25 -30h150q30 0 35 30q6 30 -24 30h-150q-30 0 -36 -30zM400 630q-6 -30 24 -30h150q30 0 36 30
q5 30 -25 30h-150q-30 0 -35 -30zM438 675h150q30 0 35 30t-25 30h-150q-30 0 -35 -30t25 -30zM451 750h150q30 0 35 30t-25 30h-150q-30 0 -35 -30t25 -30zM294 30q-5 -30 25 -30h150q30 0 35 30t-25 30h-150q-30 0 -35 -30zM307 105q-5 -30 25 -30h150q30 0 35 30t-25 30
h-150q-30 0 -35 -30zM345 150h150q30 0 35 30q6 30 -24 30h-150q-30 0 -36 -30q-5 -30 25 -30zM358 225h150q30 0 36 30q5 30 -25 30h-150q-30 0 -35 -30q-6 -30 24 -30zM-6 30q-5 -30 25 -30h150q30 0 35 30t-25 30h-150q-30 0 -35 -30zM7 105q-5 -30 25 -30h150
q30 0 35 30t-25 30h-150q-30 0 -35 -30zM45 150h150q30 0 35 30q6 30 -24 30h-150q-30 0 -36 -30q-5 -30 25 -30zM58 225h150q30 0 36 30q5 30 -25 30h-150q-30 0 -35 -30q-6 -30 24 -30zM135 405q-5 -30 25 -30h300q30 0 35 30t-25 30h-300q-30 0 -35 -30z" />
    <glyph glyph-name="y" unicode="y" 
d="M85 375h450q30 0 35 30t-25 30h-450q-30 0 -35 -30t25 -30zM98 450h450q30 0 35 30q6 30 -24 30h-450q-30 0 -36 -30q-5 -30 25 -30zM144 30q-5 -30 25 -30h150q30 0 35 30t-25 30h-150q-30 0 -35 -30zM157 105q-5 -30 25 -30h150q30 0 35 30t-25 30h-150q-30 0 -35 -30z
M195 150h150q30 0 35 30q6 30 -24 30h-150q-30 0 -36 -30q-5 -30 25 -30zM208 225h150q30 0 36 30q5 30 -25 30h-150q-30 0 -35 -30q-6 -30 24 -30zM86 555q-5 -30 25 -30h150q30 0 35 30q6 30 -24 30h-150q-30 0 -36 -30zM100 630q-6 -30 24 -30h150q30 0 36 30
q5 30 -25 30h-150q-30 0 -35 -30zM138 675h150q30 0 35 30t-25 30h-150q-30 0 -35 -30t25 -30zM151 750h150q30 0 35 30t-25 30h-150q-30 0 -35 -30t25 -30zM386 555q-5 -30 25 -30h150q30 0 35 30q6 30 -24 30h-150q-30 0 -36 -30zM400 630q-6 -30 24 -30h150q30 0 36 30
q5 30 -25 30h-150q-30 0 -35 -30zM438 675h150q30 0 35 30t-25 30h-150q-30 0 -35 -30t25 -30zM451 750h150q30 0 35 30t-25 30h-150q-30 0 -35 -30t25 -30zM122 330q-6 -30 24 -30h300q30 0 36 30q5 30 -25 30h-300q-30 0 -35 -30z" />
    <glyph glyph-name="z" unicode="z" 
d="M124 600h450q30 0 36 30q5 30 -25 30h-450q-30 0 -35 -30q-6 -30 24 -30zM138 675h450q30 0 35 30t-25 30h-450q-30 0 -35 -30t25 -30zM151 750h450q30 0 35 30t-25 30h-450q-30 0 -35 -30t25 -30zM19 0h450q30 0 35 30t-25 30h-450q-30 0 -35 -30t25 -30zM32 75h450
q30 0 35 30t-25 30h-450q-30 0 -35 -30t25 -30zM45 150h450q30 0 35 30q6 30 -24 30h-450q-30 0 -36 -30q-5 -30 25 -30zM223 480q-5 -30 25 -30h225q30 0 35 30q6 30 -24 30h-225q-30 0 -36 -30zM58 225h225q30 0 36 30q5 30 -25 30h-225q-30 0 -35 -30q-6 -30 24 -30z
M336 525h225q30 0 35 30q6 30 -24 30h-225q-30 0 -36 -30q-5 -30 25 -30zM47 330q-6 -30 24 -30h225q30 0 36 30q5 30 -25 30h-225q-30 0 -35 -30zM160 375h225q30 0 35 30t-25 30h-225q-30 0 -35 -30t25 -30z" />
    <glyph glyph-name="braceleft" unicode="{" horiz-adv-x="330" 
d="M124 600h150q30 0 36 30q5 30 -25 30h-150q-30 0 -35 -30q-6 -30 24 -30zM138 675h150q30 0 35 30t-25 30h-150q-30 0 -35 -30t25 -30zM10 375h150q30 0 35 30t-25 30h-150q-30 0 -35 -30t25 -30zM34 255q-6 -30 24 -30h150q30 0 36 30q5 30 -25 30h-150q-30 0 -35 -30z
M226 750h75q30 0 35 30t-25 30h-75q-30 0 -35 -30t25 -30zM111 525h150q30 0 35 30q6 30 -24 30h-150q-30 0 -36 -30q-5 -30 25 -30zM71 300h150q30 0 36 30q5 30 -25 30h-150q-30 0 -35 -30q-6 -30 24 -30zM32 75h150q30 0 35 30t-25 30h-150q-30 0 -35 -30t25 -30zM45 150
h150q30 0 35 30q6 30 -24 30h-150q-30 0 -36 -30q-5 -30 25 -30zM98 450h150q30 0 35 30q6 30 -24 30h-150q-30 0 -36 -30q-5 -30 25 -30zM289 855q-5 -30 25 -30h75q30 0 35 30q6 30 -24 30h-75q-30 0 -36 -30zM69 30q-5 -30 25 -30h75q30 0 35 30t-25 30h-75
q-30 0 -35 -30zM131 -45q-6 -30 24 -30h75q30 0 36 30q5 30 -25 30h-75q-30 0 -35 -30z" />
    <glyph glyph-name="bar" unicode="|" horiz-adv-x="330" 
d="M206 210h-150q-30 0 -36 -30q-5 -30 25 -30h150q30 0 35 30q6 30 -24 30zM192 135h-150q-30 0 -35 -30t25 -30h150q30 0 35 30t-25 30zM245 435h-150q-30 0 -35 -30t25 -30h150q30 0 35 30t-25 30zM296 555q6 30 -24 30h-150q-30 0 -36 -30q-5 -30 25 -30h150q30 0 35 30
zM179 60h-150q-30 0 -35 -30t25 -30h150q30 0 35 30t-25 30zM219 285h-150q-30 0 -35 -30q-6 -30 24 -30h150q30 0 36 30q5 30 -25 30zM259 510h-150q-30 0 -36 -30q-5 -30 25 -30h150q30 0 35 30q6 30 -24 30zM298 735h-150q-30 0 -35 -30t25 -30h150q30 0 35 30t-25 30z
M285 660h-150q-30 0 -35 -30q-6 -30 24 -30h150q30 0 36 30q5 30 -25 30zM232 360h-150q-30 0 -35 -30q-6 -30 24 -30h150q30 0 36 30q5 30 -25 30zM336 780q5 30 -25 30h-150q-30 0 -35 -30t25 -30h150q30 0 35 30z" />
    <glyph glyph-name="braceright" unicode="}" horiz-adv-x="330" 
d="M206 210h-150q-30 0 -36 -30q-5 -30 25 -30h150q30 0 35 30q6 30 -24 30zM192 135h-150q-30 0 -35 -30t25 -30h150q30 0 35 30t-25 30zM320 435h-150q-30 0 -35 -30t25 -30h150q30 0 35 30t-25 30zM296 555q6 30 -24 30h-150q-30 0 -36 -30q-5 -30 25 -30h150q30 0 35 30
zM104 60h-75q-30 0 -35 -30t25 -30h75q30 0 35 30t-25 30zM219 285h-150q-30 0 -35 -30q-6 -30 24 -30h150q30 0 36 30q5 30 -25 30zM259 510h-150q-30 0 -36 -30q-5 -30 25 -30h150q30 0 35 30q6 30 -24 30zM298 735h-150q-30 0 -35 -30t25 -30h150q30 0 35 30t-25 30z
M285 660h-150q-30 0 -35 -30q-6 -30 24 -30h150q30 0 36 30q5 30 -25 30zM232 360h-150q-30 0 -35 -30q-6 -30 24 -30h150q30 0 36 30q5 30 -25 30zM41 -45q5 30 -25 30h-75q-30 0 -35 -30q-6 -30 24 -30h75q30 0 36 30zM261 780q5 30 -25 30h-75q-30 0 -35 -30t25 -30h75
q30 0 35 30zM199 855q6 30 -24 30h-75q-30 0 -36 -30q-5 -30 25 -30h75q30 0 35 30z" />
    <glyph glyph-name="asciitilde" unicode="~" 
d="M60 405q5 30 35 30h450q30 0 25 -30t-35 -30h-450q-30 0 -25 30zM184 510h150q30 0 24 -30q-5 -30 -35 -30h-150q-30 0 -25 30q6 30 36 30zM484 510h75q30 0 24 -30q-5 -30 -35 -30h-75q-30 0 -25 30q6 30 36 30zM446 300h-150q-30 0 -24 30q5 30 35 30h150q30 0 25 -30
q-6 -30 -36 -30zM146 300h-75q-30 0 -24 30q5 30 35 30h75q30 0 25 -30q-6 -30 -36 -30z" />
    <glyph glyph-name="exclamdown" unicode="&#xa1;" horiz-adv-x="330" 
d="M73 480q6 30 36 30h150q30 0 24 -30q-5 -30 -35 -30h-150q-30 0 -25 30zM60 405q5 30 35 30h150q30 0 25 -30t-35 -30h-150q-30 0 -25 30zM82 360h150q30 0 25 -30q-6 -30 -36 -30h-150q-30 0 -24 30q5 30 35 30zM20 180q6 30 36 30h150q30 0 24 -30q-5 -30 -35 -30h-150
q-30 0 -25 30zM7 105q5 30 35 30h150q30 0 25 -30t-35 -30h-150q-30 0 -25 30zM29 60h150q30 0 25 -30t-35 -30h-150q-30 0 -25 30t35 30zM34 255q5 30 35 30h150q30 0 25 -30q-6 -30 -36 -30h-150q-30 0 -24 30zM126 780q5 30 35 30h150q30 0 25 -30t-35 -30h-150
q-30 0 -25 30zM148 735h150q30 0 25 -30t-35 -30h-150q-30 0 -25 30t35 30zM100 630q5 30 35 30h150q30 0 25 -30q-6 -30 -36 -30h-150q-30 0 -24 30z" />
    <glyph glyph-name="cent" unicode="&#xa2;" 
d="M199 600h300q30 0 36 30q5 30 -25 30h-300q-30 0 -35 -30q-6 -30 24 -30zM288 675h150q30 0 35 30t-25 30h-150q-30 0 -35 -30t25 -30zM120 150h300q30 0 35 30q6 30 -24 30h-300q-30 0 -36 -30q-5 -30 25 -30zM182 75h150q30 0 35 30t-25 30h-150q-30 0 -35 -30t25 -30z
M60 405q-5 -30 25 -30h150q30 0 35 30t-25 30h-150q-30 0 -35 -30zM73 480q-5 -30 25 -30h150q30 0 35 30q6 30 -24 30h-150q-30 0 -36 -30zM111 525h150q30 0 35 30q6 30 -24 30h-150q-30 0 -36 -30q-5 -30 25 -30zM34 255q-6 -30 24 -30h150q30 0 36 30q5 30 -25 30h-150
q-30 0 -35 -30zM47 330q-6 -30 24 -30h150q30 0 36 30q5 30 -25 30h-150q-30 0 -35 -30zM334 255q-6 -30 24 -30h150q30 0 36 30q5 30 -25 30h-150q-30 0 -35 -30zM386 555q-5 -30 25 -30h150q30 0 35 30q6 30 -24 30h-150q-30 0 -36 -30zM144 30q-5 -30 25 -30h150
q30 0 35 30t-25 30h-150q-30 0 -35 -30zM276 780q-5 -30 25 -30h150q30 0 35 30t-25 30h-150q-30 0 -35 -30z" />
    <glyph glyph-name="sterling" unicode="&#xa3;" 
d="M199 600h375q30 0 36 30q5 30 -25 30h-375q-30 0 -35 -30q-6 -30 24 -30zM213 675h375q30 0 35 30t-25 30h-375q-30 0 -35 -30t25 -30zM98 450h450q30 0 35 30q6 30 -24 30h-450q-30 0 -36 -30q-5 -30 25 -30zM85 375h450q30 0 35 30t-25 30h-450q-30 0 -35 -30t25 -30z
M71 300h450q30 0 36 30q5 30 -25 30h-450q-30 0 -35 -30q-6 -30 24 -30zM45 150h450q30 0 35 30q6 30 -24 30h-450q-30 0 -36 -30q-5 -30 25 -30zM32 75h450q30 0 35 30t-25 30h-450q-30 0 -35 -30t25 -30zM115 255q-6 -30 24 -30h150q30 0 36 30q5 30 -25 30h-150
q-30 0 -35 -30zM186 525h150q30 0 35 30q6 30 -24 30h-150q-30 0 -36 -30q-5 -30 25 -30zM-12 30q-5 -30 25 -30h456q30 0 35 30t-25 30h-456q-30 0 -35 -30zM276 780q-5 -30 25 -30h300q30 0 35 30t-25 30h-300q-30 0 -35 -30z" />
    <glyph glyph-name="currency" unicode="&#xa4;" 
d="M60 405q-5 -30 25 -30h450q30 0 35 30t-25 30h-450q-30 0 -35 -30zM73 480q-5 -30 25 -30h450q30 0 35 30q6 30 -24 30h-450q-30 0 -36 -30zM71 300h450q30 0 36 30q5 30 -25 30h-450q-30 0 -35 -30q-6 -30 24 -30zM250 630q-6 -30 24 -30h150q30 0 36 30q5 30 -25 30
h-150q-30 0 -35 -30zM263 705q-5 -30 25 -30h150q30 0 35 30t-25 30h-150q-30 0 -35 -30zM261 525h150q30 0 35 30q6 30 -24 30h-150q-30 0 -36 -30q-5 -30 25 -30zM170 180q-5 -30 25 -30h150q30 0 35 30q6 30 -24 30h-150q-30 0 -36 -30zM184 255q-6 -30 24 -30h150
q30 0 36 30q5 30 -25 30h-150q-30 0 -35 -30zM182 75h150q30 0 35 30t-25 30h-150q-30 0 -35 -30t25 -30z" />
    <glyph glyph-name="yen" unicode="&#xa5;" 
d="M160 375h300q30 0 35 30t-25 30h-300q-30 0 -35 -30t25 -30zM144 30q-5 -30 25 -30h150q30 0 35 30t-25 30h-150q-30 0 -35 -30zM7 105q-5 -30 25 -30h450q30 0 35 30t-25 30h-450q-30 0 -35 -30zM195 150h150q30 0 35 30q6 30 -24 30h-150q-30 0 -36 -30q-5 -30 25 -30z
M58 225h450q30 0 36 30q5 30 -25 30h-450q-30 0 -35 -30q-6 -30 24 -30zM148 480q-5 -30 25 -30h75q30 0 35 30q6 30 -24 30h-75q-30 0 -36 -30zM161 555q-5 -30 25 -30h75q30 0 35 30q6 30 -24 30h-75q-30 0 -36 -30zM124 600h90q30 0 36 30q5 30 -25 30h-90q-30 0 -35 -30
q-6 -30 24 -30zM138 675h90q30 0 35 30t-25 30h-90q-30 0 -35 -30t25 -30zM373 480q-5 -30 25 -30h75q30 0 35 30q6 30 -24 30h-75q-30 0 -36 -30zM386 555q-5 -30 25 -30h75q30 0 35 30q6 30 -24 30h-75q-30 0 -36 -30zM499 600h75q30 0 36 30q5 30 -25 30h-75
q-30 0 -35 -30q-6 -30 24 -30zM513 675h75q30 0 35 30t-25 30h-75q-30 0 -35 -30t25 -30zM197 330q-6 -30 24 -30h150q30 0 36 30q5 30 -25 30h-150q-30 0 -35 -30zM151 750h90q30 0 35 30t-25 30h-90q-30 0 -35 -30t25 -30zM526 750h75q30 0 35 30t-25 30h-75
q-30 0 -35 -30t25 -30z" />
    <glyph glyph-name="brokenbar" unicode="&#xa6;" horiz-adv-x="330" 
d="M206 210h-150q-30 0 -36 -30q-5 -30 25 -30h150q30 0 35 30q6 30 -24 30zM192 135h-150q-30 0 -35 -30t25 -30h150q30 0 35 30t-25 30zM296 555q6 30 -24 30h-150q-30 0 -36 -30q-5 -30 25 -30h150q30 0 35 30zM179 60h-150q-30 0 -35 -30t25 -30h150q30 0 35 30t-25 30z
M219 285h-150q-30 0 -35 -30q-6 -30 24 -30h150q30 0 36 30q5 30 -25 30zM259 510h-150q-30 0 -36 -30q-5 -30 25 -30h150q30 0 35 30q6 30 -24 30zM298 735h-150q-30 0 -35 -30t25 -30h150q30 0 35 30t-25 30zM285 660h-150q-30 0 -35 -30q-6 -30 24 -30h150q30 0 36 30
q5 30 -25 30zM232 360h-150q-30 0 -35 -30q-6 -30 24 -30h150q30 0 36 30q5 30 -25 30zM336 780q5 30 -25 30h-150q-30 0 -35 -30t25 -30h150q30 0 35 30z" />
    <glyph glyph-name="section" unicode="&#xa7;" 
d="M32 75h450q30 0 35 30t-25 30h-450q-30 0 -35 -30t25 -30zM345 150h150q30 0 35 30q6 30 -24 30h-150q-30 0 -36 -30q-5 -30 25 -30zM124 600h150q30 0 36 30q5 30 -25 30h-150q-30 0 -35 -30q-6 -30 24 -30zM138 675h450q30 0 35 30t-25 30h-450q-30 0 -35 -30t25 -30z
M86 555q-2 -12 5.5 -21t19.5 -9h375q30 0 35 30q6 30 -24 30h-375q-30 0 -36 -30zM373 480q-5 -30 25 -30h150q30 0 35 30q6 30 -24 30h-150q-30 0 -36 -30zM-6 30q-5 -30 25 -30h375q30 0 35 30t-25 30h-375q-30 0 -35 -30zM201 780q-5 -30 25 -30h375q30 0 35 30t-25 30
h-375q-30 0 -35 -30zM73 480q-5 -30 25 -30h150q30 0 35 30q6 30 -24 30h-150q-30 0 -36 -30zM360 405q-5 -30 25 -30h150q30 0 35 30t-25 30h-150q-30 0 -35 -30zM60 405q-5 -30 25 -30h150q30 0 35 30t-25 30h-150q-30 0 -35 -30zM109 255q-3 -12 4.5 -21t19.5 -9h375
q30 0 36 30q5 30 -25 30h-375q-30 0 -35 -30zM347 330q-6 -30 24 -30h150q30 0 36 30q5 30 -25 30h-150q-30 0 -35 -30zM47 330q-6 -30 24 -30h150q30 0 36 30q5 30 -25 30h-150q-30 0 -35 -30z" />
    <glyph glyph-name="dieresis" unicode="&#xa8;" horiz-adv-x="480" 
d="M67 780q-6 -30 24 -30h75q30 0 36 30q5 30 -25 30h-75q-30 0 -35 -30zM53 705q-5 -30 25 -30h75q30 0 35 30q6 30 -24 30h-75q-30 0 -36 -30zM292 780q-6 -30 24 -30h75q30 0 36 30q5 30 -25 30h-75q-30 0 -35 -30zM278 705q-5 -30 25 -30h75q30 0 35 30q6 30 -24 30h-75
q-30 0 -36 -30z" />
    <glyph glyph-name="copyright" unicode="&#xa9;" horiz-adv-x="916" 
d="M32 75h735q30 0 35 30t-25 30h-735q-30 0 -35 -30t25 -30zM138 675h720q30 0 35 30t-25 30h-720q-30 0 -35 -30t25 -30zM69 30q-5 -30 25 -30h585q30 0 35 30t-25 30h-585q-30 0 -35 -30zM201 780q-5 -30 25 -30h570q30 0 35 30t-25 30h-570q-30 0 -35 -30zM694 255
q-6 -30 24 -30h75q30 0 36 30q5 30 -25 30h-75q-30 0 -35 -30zM386 555q-5 -30 25 -30h150q30 0 35 30q6 30 -24 30h-150q-30 0 -36 -30zM323 450h75q30 0 35 30q6 30 -24 30h-75q-30 0 -36 -30q-5 -30 25 -30zM746 555q-5 -30 25 -30h75q30 0 35 30q6 30 -24 30h-75
q-30 0 -36 -30zM34 255q-6 -30 24 -30h75q30 0 36 30q5 30 -25 30h-75q-30 0 -35 -30zM98 450h75q30 0 35 30q6 30 -24 30h-75q-30 0 -36 -30q-5 -30 25 -30zM272 330q-6 -30 24 -30h75q30 0 36 30q5 30 -25 30h-75q-30 0 -35 -30zM100 630q-6 -30 24 -30h75q30 0 36 30
q5 30 -25 30h-75q-30 0 -35 -30zM20 180q-5 -30 25 -30h75q30 0 35 30q6 30 -24 30h-75q-30 0 -36 -30zM497 330q-6 -30 24 -30h75q30 0 36 30q5 30 -25 30h-75q-30 0 -35 -30zM758 450h75q30 0 35 30q6 30 -24 30h-75q-30 0 -36 -30q-5 -30 25 -30zM548 450h75q30 0 35 30
q6 30 -24 30h-75q-30 0 -36 -30q-5 -30 25 -30zM86 555q-5 -30 25 -30h75q30 0 35 30q6 30 -24 30h-75q-30 0 -36 -30zM60 405q-5 -30 25 -30h75q30 0 35 30t-25 30h-75q-30 0 -35 -30zM720 405q-5 -30 25 -30h75q30 0 35 30t-25 30h-75q-30 0 -35 -30zM707 330
q-6 -30 24 -30h75q30 0 36 30q5 30 -25 30h-75q-30 0 -35 -30zM760 630q-6 -30 24 -30h75q30 0 36 30q5 30 -25 30h-75q-30 0 -35 -30zM285 405q-5 -30 25 -30h75q30 0 35 30t-25 30h-75q-30 0 -35 -30zM47 330q-6 -30 24 -30h75q30 0 36 30q5 30 -25 30h-75q-30 0 -35 -30z
M680 180q-5 -30 25 -30h75q30 0 35 30q6 30 -24 30h-75q-30 0 -36 -30zM334 255q-6 -30 24 -30h150q30 0 36 30q5 30 -25 30h-150q-30 0 -35 -30z" />
    <glyph glyph-name="guillemotleft" unicode="&#xab;" horiz-adv-x="779" 
d="M421 330q5 30 35 30h150q29 0 24 -30q-6 -30 -35 -30h-150q-30 0 -24 30zM483 510h150q29 0 23 -30q-5 -30 -34 -30h-150q-30 0 -25 30q6 30 36 30zM517 285h150q30 0 25 -30q-6 -30 -36 -30h-150q-30 0 -24 30q5 30 35 30zM534 555q6 30 36 30h151q30 0 24 -30
q-5 -30 -35 -30h-151q-30 0 -25 30zM358 405q5 30 35 30h150q30 0 25 -30t-35 -30h-150q-30 0 -25 30zM121 330q5 30 35 30h150q29 0 24 -30q-6 -30 -35 -30h-150q-30 0 -24 30zM183 510h150q29 0 23 -30q-5 -30 -34 -30h-150q-30 0 -25 30q6 30 36 30zM217 285h150
q30 0 25 -30q-6 -30 -36 -30h-150q-30 0 -24 30q5 30 35 30zM234 555q6 30 36 30h151q30 0 24 -30q-5 -30 -35 -30h-151q-30 0 -25 30zM58 405q5 30 35 30h150q30 0 25 -30t-35 -30h-150q-30 0 -25 30z" />
    <glyph glyph-name="registered" unicode="&#xae;" horiz-adv-x="916" 
d="M32 75h735q30 0 35 30t-25 30h-735q-30 0 -35 -30t25 -30zM138 675h720q30 0 35 30t-25 30h-720q-30 0 -35 -30t25 -30zM69 30q-5 -30 25 -30h585q30 0 35 30t-25 30h-585q-30 0 -35 -30zM201 780q-5 -30 25 -30h570q30 0 35 30t-25 30h-570q-30 0 -35 -30zM285 405
q-5 -30 25 -30h225q30 0 35 30t-25 30h-225q-30 0 -35 -30zM311 555q-5 -30 25 -30h225q30 0 35 30q6 30 -24 30h-225q-30 0 -36 -30zM259 255q-6 -30 24 -30h75q30 0 36 30q5 30 -25 30h-75q-30 0 -35 -30zM707 330q-6 -30 24 -30h75q30 0 36 30q5 30 -25 30h-75
q-30 0 -35 -30zM720 405q-5 -30 25 -30h75q30 0 35 30t-25 30h-75q-30 0 -35 -30zM60 405q-5 -30 25 -30h75q30 0 35 30t-25 30h-75q-30 0 -35 -30zM86 555q-5 -30 25 -30h75q30 0 35 30q6 30 -24 30h-75q-30 0 -36 -30zM20 180q-5 -30 25 -30h75q30 0 35 30q6 30 -24 30
h-75q-30 0 -36 -30zM758 450h75q30 0 35 30q6 30 -24 30h-75q-30 0 -36 -30q-5 -30 25 -30zM497 330q-6 -30 24 -30h75q30 0 36 30q5 30 -25 30h-75q-30 0 -35 -30zM680 180q-5 -30 25 -30h75q30 0 35 30q6 30 -24 30h-75q-30 0 -36 -30zM100 630q-6 -30 24 -30h75
q30 0 36 30q5 30 -25 30h-75q-30 0 -35 -30zM694 255q-6 -30 24 -30h75q30 0 36 30q5 30 -25 30h-75q-30 0 -35 -30zM98 450h75q30 0 35 30q6 30 -24 30h-75q-30 0 -36 -30q-5 -30 25 -30zM34 255q-6 -30 24 -30h75q30 0 36 30q5 30 -25 30h-75q-30 0 -35 -30zM548 450h75
q30 0 35 30q6 30 -24 30h-75q-30 0 -36 -30q-5 -30 25 -30zM746 555q-5 -30 25 -30h75q30 0 35 30q6 30 -24 30h-75q-30 0 -36 -30zM760 630q-6 -30 24 -30h75q30 0 36 30q5 30 -25 30h-75q-30 0 -35 -30zM272 330q-6 -30 24 -30h75q30 0 36 30q5 30 -25 30h-75
q-30 0 -35 -30zM323 450h75q30 0 35 30q6 30 -24 30h-75q-30 0 -36 -30q-5 -30 25 -30zM47 330q-6 -30 24 -30h75q30 0 36 30q5 30 -25 30h-75q-30 0 -35 -30zM484 255q-6 -30 24 -30h75q30 0 36 30q5 30 -25 30h-75q-30 0 -35 -30z" />
    <glyph glyph-name="acute" unicode="&#xb4;" horiz-adv-x="330" 
d="M277 780q-6 -30 -36 -30h-75q-30 0 -24 30q5 30 35 30h75q30 0 25 -30zM188 705q-5 -30 -35 -30h-75q-30 0 -25 30q6 30 36 30h75q30 0 24 -30z" />
    <glyph glyph-name="mu1" unicode="&#xb5;" 
d="M58 75h300q30 0 36 30q5 30 -25 30h-300q-30 0 -35 -30q-6 -30 24 -30zM71 150h300q30 0 36 30q5 30 -25 30h-300q-30 0 -35 -30q-6 -30 24 -30zM20 30q-5 -30 25 -30h150q30 0 35 30q6 30 -24 30h-150q-30 0 -36 -30zM320 30q-5 -30 25 -30h150q30 0 35 30q6 30 -24 30
h-150q-30 0 -36 -30zM32 -75h75q30 0 35 30t-25 30h-75q-30 0 -35 -30t25 -30zM124 450h75q30 0 36 30q5 30 -25 30h-75q-30 0 -35 -30q-6 -30 24 -30zM60 255q-5 -30 25 -30h75q30 0 35 30t-25 30h-75q-30 0 -35 -30zM298 330q-5 -30 25 -30h75q30 0 35 30q6 30 -24 30h-75
q-30 0 -36 -30zM73 330q-5 -30 25 -30h75q30 0 35 30q6 30 -24 30h-75q-30 0 -36 -30zM349 450h75q30 0 36 30q5 30 -25 30h-75q-30 0 -35 -30q-6 -30 24 -30zM338 555q-5 -30 25 -30h75q30 0 35 30t-25 30h-75q-30 0 -35 -30zM351 630q-5 -30 25 -30h75q30 0 35 30t-25 30
h-75q-30 0 -35 -30zM113 555q-5 -30 25 -30h75q30 0 35 30t-25 30h-75q-30 0 -35 -30zM126 630q-5 -30 25 -30h75q30 0 35 30t-25 30h-75q-30 0 -35 -30zM285 255q-5 -30 25 -30h75q30 0 35 30t-25 30h-75q-30 0 -35 -30zM336 375h75q30 0 35 30q6 30 -24 30h-75
q-30 0 -36 -30q-5 -30 25 -30zM111 375h75q30 0 35 30q6 30 -24 30h-75q-30 0 -36 -30q-5 -30 25 -30zM19 -150h75q30 0 35 30t-25 30h-75q-30 0 -35 -30t25 -30zM484 105q-6 -30 24 -30t36 30q5 30 -25 30t-35 -30z" />
    <glyph glyph-name="paragraph" unicode="&#xb6;" 
d="M363 675h-225q-30 0 -25 30t35 30h225q30 0 25 -30t-35 -30zM601 750h-375q-30 0 -25 30t35 30h375q30 0 25 -30t-35 -30zM349 600h-225q-30 0 -24 30q5 30 35 30h225q30 0 25 -30q-6 -30 -36 -30zM323 450h-225q-30 0 -25 30q6 30 36 30h225q30 0 24 -30q-5 -30 -35 -30
zM296 300h-75q-30 0 -24 30q5 30 35 30h75q30 0 25 -30q-6 -30 -36 -30zM270 150h-75q-30 0 -25 30q6 30 36 30h75q30 0 24 -30q-5 -30 -35 -30zM257 75h-75q-30 0 -25 30t35 30h75q30 0 25 -30t-35 -30zM596 555q-5 -30 -35 -30h-75q-30 0 -25 30q6 30 36 30h75
q30 0 24 -30zM371 555q-5 -30 -35 -30h-225q-30 0 -25 30q6 30 36 30h225q30 0 24 -30zM319 255q-6 -30 -36 -30h-75q-30 0 -24 30q5 30 35 30h75q30 0 25 -30zM279 30q-5 -30 -35 -30h-75q-30 0 -25 30t35 30h75q30 0 25 -30zM345 405q-5 -30 -35 -30h-150q-30 0 -25 30
t35 30h150q30 0 25 -30zM521 300h-75q-30 0 -24 30q5 30 35 30h75q30 0 25 -30q-6 -30 -36 -30zM495 150h-75q-30 0 -25 30q6 30 36 30h75q30 0 24 -30q-5 -30 -35 -30zM482 75h-75q-30 0 -25 30t35 30h75q30 0 25 -30t-35 -30zM544 255q-6 -30 -36 -30h-75q-30 0 -24 30
q5 30 35 30h75q30 0 25 -30zM504 30q-5 -30 -35 -30h-75q-30 0 -25 30t35 30h75q30 0 25 -30zM570 405q-5 -30 -35 -30h-75q-30 0 -25 30t35 30h75q30 0 25 -30zM583 480q-5 -30 -35 -30h-75q-30 0 -25 30q6 30 36 30h75q30 0 24 -30zM623 705q-5 -30 -35 -30h-75
q-30 0 -25 30t35 30h75q30 0 25 -30zM610 630q-6 -30 -36 -30h-75q-30 0 -24 30q5 30 35 30h75q30 0 25 -30z" />
    <glyph glyph-name="cedilla" unicode="&#xb8;" horiz-adv-x="331" 
d="M215 -299h-150q-30 0 -25 30q6 30 36 30h150q30 0 24 -30q-5 -30 -35 -30zM263 -195q-5 -30 -35 -30h-150q-30 0 -25 30q6 30 36 30h150q30 0 24 -30zM215 -45q-6 -30 -36 -30h-75q-30 0 -24 30q5 30 35 30h75q30 0 25 -30zM277 -120q-6 -30 -36 -30h-150q-30 0 -24 30
q5 30 35 30h150q30 0 25 -30z" />
    <glyph glyph-name="guillemotright" unicode="&#xbb;" horiz-adv-x="779" 
d="M357 480q-5 -30 -35 -30h-150q-29 0 -24 30q6 30 35 30h150q30 0 24 -30zM295 300h-150q-29 0 -23 30q5 30 34 30h150q30 0 25 -30q-6 -30 -36 -30zM261 525h-150q-30 0 -25 30q6 30 36 30h150q30 0 24 -30q-5 -30 -35 -30zM244 255q-6 -30 -36 -30h-151q-30 0 -24 30
q5 30 35 30h151q30 0 25 -30zM420 405q-5 -30 -35 -30h-150q-30 0 -25 30t35 30h150q30 0 25 -30zM657 480q-5 -30 -35 -30h-150q-29 0 -24 30q6 30 35 30h150q30 0 24 -30zM595 300h-150q-29 0 -23 30q5 30 34 30h150q30 0 25 -30q-6 -30 -36 -30zM561 525h-150
q-30 0 -25 30q6 30 36 30h150q30 0 24 -30q-5 -30 -35 -30zM544 255q-6 -30 -36 -30h-151q-30 0 -24 30q5 30 35 30h151q30 0 25 -30zM720 405q-5 -30 -35 -30h-150q-30 0 -25 30t35 30h150q30 0 25 -30z" />
    <glyph glyph-name="questiondown" unicode="&#xbf;" 
d="M492 135h-450q-30 0 -35 -30t25 -30h450q30 0 35 30t-25 30zM506 210h-450q-30 0 -36 -30q-5 -30 25 -30h450q30 0 35 30q6 30 -24 30zM435 660h-150q-30 0 -35 -30q-6 -30 24 -30h150q30 0 36 30q5 30 -25 30zM461 810h-150q-30 0 -35 -30t25 -30h150q30 0 35 30t-25 30
zM448 735h-150q-30 0 -35 -30t25 -30h150q30 0 35 30t-25 30zM479 60h-375q-30 0 -35 -30t25 -30h375q30 0 35 30t-25 30zM219 285h-150q-30 0 -35 -30q-6 -30 24 -30h150q30 0 36 30q5 30 -25 30zM395 435h-225q-30 0 -35 -30t25 -30h225q30 0 35 30t-25 30zM433 480
q6 30 -24 30h-150q-30 0 -36 -30q-5 -30 25 -30h150q30 0 35 30zM332 330q5 30 -25 30h-225q-30 0 -35 -30q-6 -30 24 -30h225q30 0 36 30z" />
    <glyph glyph-name="Agrave" unicode="&#xc0;" 
d="M80 630q-5 -30 25 -30h450q30 0 35 30t-25 30h-450q-30 0 -35 -30zM40 405q-5 -30 25 -30h450q30 0 35 30t-25 30h-450q-30 0 -35 -30zM93 705q-5 -30 25 -30h450q30 0 35 30t-25 30h-450q-30 0 -35 -30zM27 330q-5 -30 25 -30h450q30 0 35 30t-25 30h-450q-30 0 -35 -30
zM14 255q-6 -30 24 -30h450q30 0 36 30q5 30 -25 30h-450q-30 0 -35 -30zM181 780q-5 -30 25 -30h300q30 0 35 30q6 30 -24 30h-300q-30 0 -36 -30zM274 30q-5 -30 25 -30h150q30 0 35 30t-25 30h-150q-30 0 -35 -30zM353 480q-5 -30 25 -30h150q30 0 35 30q6 30 -24 30
h-150q-30 0 -36 -30zM287 105q-5 -30 25 -30h150q30 0 35 30q6 30 -24 30h-150q-30 0 -36 -30zM67 555q-6 -30 24 -30h150q30 0 36 30q5 30 -25 30h-150q-30 0 -35 -30zM367 555q-6 -30 24 -30h150q30 0 36 30q5 30 -25 30h-150q-30 0 -35 -30zM-26 30q-5 -30 25 -30h150
q30 0 35 30t-25 30h-150q-30 0 -35 -30zM53 480q-5 -30 25 -30h150q30 0 35 30q6 30 -24 30h-150q-30 0 -36 -30zM12 75h150q30 0 35 30q6 30 -24 30h-150q-30 0 -36 -30q-5 -30 25 -30zM325 150h150q30 0 35 30q6 30 -24 30h-150q-30 0 -36 -30q-5 -30 25 -30zM0 180
q-5 -30 25 -30h150q30 0 35 30q6 30 -24 30h-150q-30 0 -36 -30zM221 1005q-5 -30 25 -30h75q30 0 35 30t-25 30h-75q-30 0 -35 -30zM283 930q-6 -30 24 -30h75q30 0 36 30q5 30 -25 30h-75q-30 0 -35 -30z" />
    <glyph glyph-name="Aacute" unicode="&#xc1;" 
d="M590 630q-5 -30 -35 -30h-450q-30 0 -25 30t35 30h450q30 0 25 -30zM550 405q-5 -30 -35 -30h-450q-30 0 -25 30t35 30h450q30 0 25 -30zM603 705q-5 -30 -35 -30h-450q-30 0 -25 30t35 30h450q30 0 25 -30zM537 330q-5 -30 -35 -30h-450q-30 0 -25 30t35 30h450
q30 0 25 -30zM524 255q-6 -30 -36 -30h-450q-30 0 -24 30q5 30 35 30h450q30 0 25 -30zM541 780q-5 -30 -35 -30h-300q-30 0 -25 30q6 30 36 30h300q30 0 24 -30zM184 30q-5 -30 -35 -30h-150q-30 0 -25 30t35 30h150q30 0 25 -30zM263 480q-5 -30 -35 -30h-150
q-30 0 -25 30q6 30 36 30h150q30 0 24 -30zM197 105q-5 -30 -35 -30h-150q-30 0 -25 30q6 30 36 30h150q30 0 24 -30zM577 555q-6 -30 -36 -30h-150q-30 0 -24 30q5 30 35 30h150q30 0 25 -30zM277 555q-6 -30 -36 -30h-150q-30 0 -24 30q5 30 35 30h150q30 0 25 -30z
M484 30q-5 -30 -35 -30h-150q-30 0 -25 30t35 30h150q30 0 25 -30zM563 480q-5 -30 -35 -30h-150q-30 0 -25 30q6 30 36 30h150q30 0 24 -30zM462 75h-150q-30 0 -25 30q6 30 36 30h150q30 0 24 -30q-5 -30 -35 -30zM175 150h-150q-30 0 -25 30q6 30 36 30h150q30 0 24 -30
q-5 -30 -35 -30zM510 180q-5 -30 -35 -30h-150q-30 0 -25 30q6 30 36 30h150q30 0 24 -30zM581 1005q-5 -30 -35 -30h-75q-30 0 -25 30t35 30h75q30 0 25 -30zM493 930q-6 -30 -36 -30h-75q-30 0 -24 30q5 30 35 30h75q30 0 25 -30z" />
    <glyph glyph-name="Acircumflex" unicode="&#xc2;" 
d="M80 630q-5 -30 25 -30h450q30 0 35 30t-25 30h-450q-30 0 -35 -30zM40 405q-5 -30 25 -30h450q30 0 35 30t-25 30h-450q-30 0 -35 -30zM93 705q-5 -30 25 -30h450q30 0 35 30t-25 30h-450q-30 0 -35 -30zM27 330q-5 -30 25 -30h450q30 0 35 30t-25 30h-450q-30 0 -35 -30
zM14 255q-6 -30 24 -30h450q30 0 36 30q5 30 -25 30h-450q-30 0 -35 -30zM181 780q-5 -30 25 -30h300q30 0 35 30q6 30 -24 30h-300q-30 0 -36 -30zM274 30q-5 -30 25 -30h150q30 0 35 30t-25 30h-150q-30 0 -35 -30zM353 480q-5 -30 25 -30h150q30 0 35 30q6 30 -24 30
h-150q-30 0 -36 -30zM287 105q-5 -30 25 -30h150q30 0 35 30q6 30 -24 30h-150q-30 0 -36 -30zM67 555q-6 -30 24 -30h150q30 0 36 30q5 30 -25 30h-150q-30 0 -35 -30zM367 555q-6 -30 24 -30h150q30 0 36 30q5 30 -25 30h-150q-30 0 -35 -30zM-26 30q-5 -30 25 -30h150
q30 0 35 30t-25 30h-150q-30 0 -35 -30zM53 480q-5 -30 25 -30h150q30 0 35 30q6 30 -24 30h-150q-30 0 -36 -30zM12 75h150q30 0 35 30q6 30 -24 30h-150q-30 0 -36 -30q-5 -30 25 -30zM325 150h150q30 0 35 30q6 30 -24 30h-150q-30 0 -36 -30q-5 -30 25 -30zM0 180
q-5 -30 25 -30h150q30 0 35 30q6 30 -24 30h-150q-30 0 -36 -30zM341 1005q-5 -30 25 -30h75q30 0 35 30t-25 30h-75q-30 0 -35 -30zM253 930q-6 -30 24 -30h225q30 0 36 30q5 30 -25 30h-225q-30 0 -35 -30z" />
    <glyph glyph-name="Atilde" unicode="&#xc3;" 
d="M86 630q-5 -30 25 -30h450q30 0 35 30q6 30 -24 30h-450q-30 0 -36 -30zM47 405q-6 -30 24 -30h450q30 0 36 30q5 30 -25 30h-450q-30 0 -35 -30zM100 705q-6 -30 24 -30h450q30 0 36 30q5 30 -25 30h-450q-30 0 -35 -30zM34 330q-6 -30 24 -30h450q30 0 36 30
q5 30 -25 30h-450q-30 0 -35 -30zM20 255q-5 -30 25 -30h450q30 0 35 30q6 30 -24 30h-450q-30 0 -36 -30zM188 780q-5 -30 25 -30h300q30 0 35 30t-25 30h-300q-30 0 -35 -30zM281 30q-6 -30 24 -30h150q30 0 36 30q5 30 -25 30h-150q-30 0 -35 -30zM360 480q-5 -30 25 -30
h150q30 0 35 30t-25 30h-150q-30 0 -35 -30zM294 105q-5 -30 25 -30h150q30 0 35 30t-25 30h-150q-30 0 -35 -30zM73 555q-5 -30 25 -30h150q30 0 35 30q6 30 -24 30h-150q-30 0 -36 -30zM373 555q-5 -30 25 -30h150q30 0 35 30q6 30 -24 30h-150q-30 0 -36 -30zM-19 30
q-6 -30 24 -30h150q30 0 36 30q5 30 -25 30h-150q-30 0 -35 -30zM60 480q-5 -30 25 -30h150q30 0 35 30t-25 30h-150q-30 0 -35 -30zM19 75h150q30 0 35 30t-25 30h-150q-30 0 -35 -30t25 -30zM332 150h150q30 0 35 30t-25 30h-150q-30 0 -35 -30t25 -30zM7 180
q-5 -30 25 -30h150q30 0 35 30t-25 30h-150q-30 0 -35 -30zM214 930q-5 -30 25 -30h300q30 0 35 30q6 30 -24 30h-300q-30 0 -36 -30z" />
    <glyph glyph-name="Adieresis" unicode="&#xc4;" 
d="M80 630q-5 -30 25 -30h450q30 0 35 30t-25 30h-450q-30 0 -35 -30zM40 405q-5 -30 25 -30h450q30 0 35 30t-25 30h-450q-30 0 -35 -30zM93 705q-5 -30 25 -30h450q30 0 35 30t-25 30h-450q-30 0 -35 -30zM27 330q-5 -30 25 -30h450q30 0 35 30t-25 30h-450q-30 0 -35 -30
zM14 255q-6 -30 24 -30h450q30 0 36 30q5 30 -25 30h-450q-30 0 -35 -30zM181 780q-5 -30 25 -30h300q30 0 35 30q6 30 -24 30h-300q-30 0 -36 -30zM274 30q-5 -30 25 -30h150q30 0 35 30t-25 30h-150q-30 0 -35 -30zM353 480q-5 -30 25 -30h150q30 0 35 30q6 30 -24 30
h-150q-30 0 -36 -30zM287 105q-5 -30 25 -30h150q30 0 35 30q6 30 -24 30h-150q-30 0 -36 -30zM67 555q-6 -30 24 -30h150q30 0 36 30q5 30 -25 30h-150q-30 0 -35 -30zM367 555q-6 -30 24 -30h150q30 0 36 30q5 30 -25 30h-150q-30 0 -35 -30zM-26 30q-5 -30 25 -30h150
q30 0 35 30t-25 30h-150q-30 0 -35 -30zM53 480q-5 -30 25 -30h150q30 0 35 30q6 30 -24 30h-150q-30 0 -36 -30zM12 75h150q30 0 35 30q6 30 -24 30h-150q-30 0 -36 -30q-5 -30 25 -30zM325 150h150q30 0 35 30q6 30 -24 30h-150q-30 0 -36 -30q-5 -30 25 -30zM0 180
q-5 -30 25 -30h150q30 0 35 30q6 30 -24 30h-150q-30 0 -36 -30zM221 1005q-5 -30 25 -30h75q30 0 35 30t-25 30h-75q-30 0 -35 -30zM208 930q-6 -30 24 -30h75q30 0 36 30q5 30 -25 30h-75q-30 0 -35 -30zM446 1005q-5 -30 25 -30h75q30 0 35 30t-25 30h-75q-30 0 -35 -30z
M433 930q-6 -30 24 -30h75q30 0 36 30q5 30 -25 30h-75q-30 0 -35 -30z" />
    <glyph glyph-name="Aring" unicode="&#xc5;" 
d="M80 630q-5 -30 25 -30h450q30 0 35 30t-25 30h-450q-30 0 -35 -30zM40 405q-5 -30 25 -30h450q30 0 35 30t-25 30h-450q-30 0 -35 -30zM93 705q-5 -30 25 -30h450q30 0 35 30t-25 30h-450q-30 0 -35 -30zM27 330q-5 -30 25 -30h450q30 0 35 30t-25 30h-450q-30 0 -35 -30
zM14 255q-6 -30 24 -30h450q30 0 36 30q5 30 -25 30h-450q-30 0 -35 -30zM181 780q-5 -30 25 -30h300q30 0 35 30q6 30 -24 30h-300q-30 0 -36 -30zM274 30q-5 -30 25 -30h150q30 0 35 30t-25 30h-150q-30 0 -35 -30zM353 480q-5 -30 25 -30h150q30 0 35 30q6 30 -24 30
h-150q-30 0 -36 -30zM287 105q-5 -30 25 -30h150q30 0 35 30q6 30 -24 30h-150q-30 0 -36 -30zM67 555q-6 -30 24 -30h150q30 0 36 30q5 30 -25 30h-150q-30 0 -35 -30zM367 555q-6 -30 24 -30h150q30 0 36 30q5 30 -25 30h-150q-30 0 -35 -30zM-26 30q-5 -30 25 -30h150
q30 0 35 30t-25 30h-150q-30 0 -35 -30zM53 480q-5 -30 25 -30h150q30 0 35 30q6 30 -24 30h-150q-30 0 -36 -30zM12 75h150q30 0 35 30q6 30 -24 30h-150q-30 0 -36 -30q-5 -30 25 -30zM325 150h150q30 0 35 30q6 30 -24 30h-150q-30 0 -36 -30q-5 -30 25 -30zM0 180
q-5 -30 25 -30h150q30 0 35 30q6 30 -24 30h-150q-30 0 -36 -30zM195 855q-6 -30 24 -30h75q30 0 36 30q5 30 -25 30h-75q-30 0 -35 -30zM208 930q-6 -30 24 -30h75q30 0 36 30q5 30 -25 30h-75q-30 0 -35 -30zM433 930q-6 -30 24 -30h75q30 0 36 30q5 30 -25 30h-75
q-30 0 -35 -30zM296 1005q-5 -30 25 -30h150q30 0 35 30t-25 30h-150q-30 0 -35 -30zM420 855q-6 -30 24 -30h75q30 0 36 30q5 30 -25 30h-75q-30 0 -35 -30z" />
    <glyph glyph-name="AE" unicode="&#xc6;" horiz-adv-x="930" 
d="M100 630q-6 -30 24 -30h750q30 0 36 30q5 30 -25 30h-750q-30 0 -35 -30zM138 675h750q30 0 35 30t-25 30h-750q-30 0 -35 -30t25 -30zM71 300h750q30 0 36 30q5 30 -25 30h-750q-30 0 -35 -30q-6 -30 24 -30zM60 405q-5 -30 25 -30h750q30 0 35 30t-25 30h-750
q-30 0 -35 -30zM201 780q-5 -30 25 -30h675q30 0 35 30t-25 30h-675q-30 0 -35 -30zM294 30q-5 -30 25 -30h450q30 0 35 30t-25 30h-450q-30 0 -35 -30zM73 480q-5 -30 25 -30h150q30 0 35 30q6 30 -24 30h-150q-30 0 -36 -30zM-6 30q-5 -30 25 -30h150q30 0 35 30t-25 30
h-150q-30 0 -35 -30zM20 180q-5 -30 25 -30h150q30 0 35 30q6 30 -24 30h-150q-30 0 -36 -30zM86 555q-5 -30 25 -30h150q30 0 35 30q6 30 -24 30h-150q-30 0 -36 -30zM32 75h150q30 0 35 30t-25 30h-150q-30 0 -35 -30t25 -30zM307 105q-5 -30 25 -30h450q30 0 35 30
t-25 30h-450q-30 0 -35 -30zM320 180q-5 -30 25 -30h450q30 0 35 30q6 30 -24 30h-450q-30 0 -36 -30zM34 255q-6 -30 24 -30h450q30 0 36 30q5 30 -25 30h-450q-30 0 -35 -30zM373 480q-5 -30 25 -30h450q30 0 35 30q6 30 -24 30h-450q-30 0 -36 -30zM386 555
q-5 -30 25 -30h150q30 0 35 30q6 30 -24 30h-150q-30 0 -36 -30z" />
    <glyph glyph-name="Ccedilla" unicode="&#xc7;" 
d="M151 600h450q30 0 35 30t-25 30h-450q-30 0 -35 -30t25 -30zM164 675h450q30 0 35 30q6 30 -24 30h-450q-30 0 -36 -30q-5 -30 25 -30zM71 150h450q30 0 36 30q5 30 -25 30h-450q-30 0 -35 -30q-6 -30 24 -30zM58 75h450q30 0 35 30q6 30 -24 30h-450q-30 0 -36 -30
q-5 -30 25 -30zM86 405q-5 -30 25 -30h150q30 0 35 30q6 30 -24 30h-150q-30 0 -36 -30zM100 480q-6 -30 24 -30h150q30 0 36 30q5 30 -25 30h-150q-30 0 -35 -30zM138 525h150q30 0 35 30t-25 30h-150q-30 0 -35 -30t25 -30zM60 255q-5 -30 25 -30h150q30 0 35 30t-25 30
h-150q-30 0 -35 -30zM73 330q-5 -30 25 -30h150q30 0 35 30t-25 30h-150q-30 0 -35 -30zM360 255q-5 -30 25 -30h150q30 0 35 30t-25 30h-150q-30 0 -35 -30zM413 555q-5 -30 25 -30h150q30 0 35 30t-25 30h-150q-30 0 -35 -30zM95 30q-5 -30 25 -30h300q30 0 35 30
q6 30 -24 30h-300q-30 0 -36 -30zM227 780q-5 -30 25 -30h300q30 0 35 30q6 30 -24 30h-300q-30 0 -36 -30zM292 -299h-150q-30 0 -24 30q5 30 35 30h150q30 0 25 -30q-6 -30 -36 -30zM341 -195q-6 -30 -36 -30h-150q-30 0 -24 30q5 30 35 30h150q30 0 25 -30zM292 -45
q-5 -30 -35 -30h-75q-30 0 -25 30t35 30h75q30 0 25 -30zM354 -120q-6 -30 -36 -30h-150q-30 0 -24 30q5 30 35 30h150q30 0 25 -30z" />
    <glyph glyph-name="Egrave" unicode="&#xc8;" 
d="M221 1005q-5 -30 25 -30h75q30 0 35 30t-25 30h-75q-30 0 -35 -30zM283 930q-6 -30 24 -30h75q30 0 36 30q5 30 -25 30h-75q-30 0 -35 -30zM105 600h450q30 0 35 30t-25 30h-450q-30 0 -35 -30t25 -30zM118 675h450q30 0 35 30t-25 30h-450q-30 0 -35 -30t25 -30zM78 450
h450q30 0 35 30q6 30 -24 30h-450q-30 0 -36 -30q-5 -30 25 -30zM65 375h450q30 0 35 30t-25 30h-450q-30 0 -35 -30t25 -30zM52 300h450q30 0 35 30t-25 30h-450q-30 0 -35 -30t25 -30zM25 150h450q30 0 35 30q6 30 -24 30h-450q-30 0 -36 -30q-5 -30 25 -30zM12 75h450
q30 0 35 30q6 30 -24 30h-450q-30 0 -36 -30q-5 -30 25 -30zM14 255q-6 -30 24 -30h150q30 0 36 30q5 30 -25 30h-150q-30 0 -35 -30zM91 525h150q30 0 36 30q5 30 -25 30h-150q-30 0 -35 -30q-6 -30 24 -30zM49 30q-5 -30 25 -30h375q30 0 35 30t-25 30h-375q-30 0 -35 -30
zM181 780q-5 -30 25 -30h375q30 0 35 30q6 30 -24 30h-375q-30 0 -36 -30z" />
    <glyph glyph-name="Eacute" unicode="&#xc9;" 
d="M581 1005q-5 -30 -35 -30h-75q-30 0 -25 30t35 30h75q30 0 25 -30zM493 930q-6 -30 -36 -30h-75q-30 0 -24 30q5 30 35 30h75q30 0 25 -30zM105 600h450q30 0 35 30t-25 30h-450q-30 0 -35 -30t25 -30zM118 675h450q30 0 35 30t-25 30h-450q-30 0 -35 -30t25 -30zM78 450
h450q30 0 35 30q6 30 -24 30h-450q-30 0 -36 -30q-5 -30 25 -30zM65 375h450q30 0 35 30t-25 30h-450q-30 0 -35 -30t25 -30zM52 300h450q30 0 35 30t-25 30h-450q-30 0 -35 -30t25 -30zM25 150h450q30 0 35 30q6 30 -24 30h-450q-30 0 -36 -30q-5 -30 25 -30zM12 75h450
q30 0 35 30q6 30 -24 30h-450q-30 0 -36 -30q-5 -30 25 -30zM14 255q-6 -30 24 -30h150q30 0 36 30q5 30 -25 30h-150q-30 0 -35 -30zM91 525h150q30 0 36 30q5 30 -25 30h-150q-30 0 -35 -30q-6 -30 24 -30zM49 30q-5 -30 25 -30h375q30 0 35 30t-25 30h-375q-30 0 -35 -30
zM181 780q-5 -30 25 -30h375q30 0 35 30q6 30 -24 30h-375q-30 0 -36 -30z" />
    <glyph glyph-name="Ecircumflex" unicode="&#xca;" 
d="M341 1005q-5 -30 25 -30h75q30 0 35 30t-25 30h-75q-30 0 -35 -30zM253 930q-6 -30 24 -30h225q30 0 36 30q5 30 -25 30h-225q-30 0 -35 -30zM105 600h450q30 0 35 30t-25 30h-450q-30 0 -35 -30t25 -30zM118 675h450q30 0 35 30t-25 30h-450q-30 0 -35 -30t25 -30z
M78 450h450q30 0 35 30q6 30 -24 30h-450q-30 0 -36 -30q-5 -30 25 -30zM65 375h450q30 0 35 30t-25 30h-450q-30 0 -35 -30t25 -30zM52 300h450q30 0 35 30t-25 30h-450q-30 0 -35 -30t25 -30zM25 150h450q30 0 35 30q6 30 -24 30h-450q-30 0 -36 -30q-5 -30 25 -30zM12 75
h450q30 0 35 30q6 30 -24 30h-450q-30 0 -36 -30q-5 -30 25 -30zM14 255q-6 -30 24 -30h150q30 0 36 30q5 30 -25 30h-150q-30 0 -35 -30zM91 525h150q30 0 36 30q5 30 -25 30h-150q-30 0 -35 -30q-6 -30 24 -30zM49 30q-5 -30 25 -30h375q30 0 35 30t-25 30h-375
q-30 0 -35 -30zM181 780q-5 -30 25 -30h375q30 0 35 30q6 30 -24 30h-375q-30 0 -36 -30z" />
    <glyph glyph-name="Edieresis" unicode="&#xcb;" 
d="M221 1005q-5 -30 25 -30h75q30 0 35 30t-25 30h-75q-30 0 -35 -30zM208 930q-6 -30 24 -30h75q30 0 36 30q5 30 -25 30h-75q-30 0 -35 -30zM446 1005q-5 -30 25 -30h75q30 0 35 30t-25 30h-75q-30 0 -35 -30zM433 930q-6 -30 24 -30h75q30 0 36 30q5 30 -25 30h-75
q-30 0 -35 -30zM105 600h450q30 0 35 30t-25 30h-450q-30 0 -35 -30t25 -30zM118 675h450q30 0 35 30t-25 30h-450q-30 0 -35 -30t25 -30zM78 450h450q30 0 35 30q6 30 -24 30h-450q-30 0 -36 -30q-5 -30 25 -30zM65 375h450q30 0 35 30t-25 30h-450q-30 0 -35 -30t25 -30z
M52 300h450q30 0 35 30t-25 30h-450q-30 0 -35 -30t25 -30zM25 150h450q30 0 35 30q6 30 -24 30h-450q-30 0 -36 -30q-5 -30 25 -30zM12 75h450q30 0 35 30q6 30 -24 30h-450q-30 0 -36 -30q-5 -30 25 -30zM14 255q-6 -30 24 -30h150q30 0 36 30q5 30 -25 30h-150
q-30 0 -35 -30zM91 525h150q30 0 36 30q5 30 -25 30h-150q-30 0 -35 -30q-6 -30 24 -30zM49 30q-5 -30 25 -30h375q30 0 35 30t-25 30h-375q-30 0 -35 -30zM181 780q-5 -30 25 -30h375q30 0 35 30q6 30 -24 30h-375q-30 0 -36 -30z" />
    <glyph glyph-name="Igrave" unicode="&#xcc;" horiz-adv-x="480" 
d="M221 1005q-5 -30 25 -30h75q30 0 35 30t-25 30h-75q-30 0 -35 -30zM283 930q-6 -30 24 -30h75q30 0 36 30q5 30 -25 30h-75q-30 0 -35 -30zM102 330q-5 -30 25 -30h150q30 0 35 30t-25 30h-150q-30 0 -35 -30zM115 405q-5 -30 25 -30h150q30 0 35 30t-25 30h-150
q-30 0 -35 -30zM153 450h150q30 0 35 30q6 30 -24 30h-150q-30 0 -36 -30q-5 -30 25 -30zM80 630q-5 -30 25 -30h300q30 0 35 30t-25 30h-300q-30 0 -35 -30zM93 705q-5 -30 25 -30h300q30 0 35 30t-25 30h-300q-30 0 -35 -30zM131 750h300q30 0 35 30q6 30 -24 30h-300
q-30 0 -36 -30q-5 -30 25 -30zM142 555q-6 -30 24 -30h150q30 0 36 30q5 30 -25 30h-150q-30 0 -35 -30zM113 225h150q30 0 36 30q5 30 -25 30h-150q-30 0 -35 -30q-6 -30 24 -30zM-26 30q-5 -30 25 -30h300q30 0 35 30t-25 30h-300q-30 0 -35 -30zM12 75h300q30 0 35 30
q6 30 -24 30h-300q-30 0 -36 -30q-5 -30 25 -30zM0 180q-5 -30 25 -30h300q30 0 35 30q6 30 -24 30h-300q-30 0 -36 -30z" />
    <glyph glyph-name="Iacute" unicode="&#xcd;" horiz-adv-x="480" 
d="M431 1005q-5 -30 -35 -30h-75q-30 0 -25 30t35 30h75q30 0 25 -30zM343 930q-6 -30 -36 -30h-75q-30 0 -24 30q5 30 35 30h75q30 0 25 -30zM312 330q-5 -30 -35 -30h-150q-30 0 -25 30t35 30h150q30 0 25 -30zM325 405q-5 -30 -35 -30h-150q-30 0 -25 30t35 30h150
q30 0 25 -30zM303 450h-150q-30 0 -25 30q6 30 36 30h150q30 0 24 -30q-5 -30 -35 -30zM440 630q-5 -30 -35 -30h-300q-30 0 -25 30t35 30h300q30 0 25 -30zM453 705q-5 -30 -35 -30h-300q-30 0 -25 30t35 30h300q30 0 25 -30zM431 750h-300q-30 0 -25 30q6 30 36 30h300
q30 0 24 -30q-5 -30 -35 -30zM352 555q-6 -30 -36 -30h-150q-30 0 -24 30q5 30 35 30h150q30 0 25 -30zM263 225h-150q-30 0 -24 30q5 30 35 30h150q30 0 25 -30q-6 -30 -36 -30zM334 30q-5 -30 -35 -30h-300q-30 0 -25 30t35 30h300q30 0 25 -30zM312 75h-300q-30 0 -25 30
q6 30 36 30h300q30 0 24 -30q-5 -30 -35 -30zM360 180q-5 -30 -35 -30h-300q-30 0 -25 30q6 30 36 30h300q30 0 24 -30z" />
    <glyph glyph-name="Icircumflex" unicode="&#xce;" horiz-adv-x="480" 
d="M312 330q-5 -30 -35 -30h-150q-30 0 -25 30t35 30h150q30 0 25 -30zM325 405q-5 -30 -35 -30h-150q-30 0 -25 30t35 30h150q30 0 25 -30zM303 450h-150q-30 0 -25 30q6 30 36 30h150q30 0 24 -30q-5 -30 -35 -30zM440 630q-5 -30 -35 -30h-300q-30 0 -25 30t35 30h300
q30 0 25 -30zM453 705q-5 -30 -35 -30h-300q-30 0 -25 30t35 30h300q30 0 25 -30zM431 750h-300q-30 0 -25 30q6 30 36 30h300q30 0 24 -30q-5 -30 -35 -30zM352 555q-6 -30 -36 -30h-150q-30 0 -24 30q5 30 35 30h150q30 0 25 -30zM263 225h-150q-30 0 -24 30q5 30 35 30
h150q30 0 25 -30q-6 -30 -36 -30zM334 30q-5 -30 -35 -30h-300q-30 0 -25 30t35 30h300q30 0 25 -30zM312 75h-300q-30 0 -25 30q6 30 36 30h300q30 0 24 -30q-5 -30 -35 -30zM360 180q-5 -30 -35 -30h-300q-30 0 -25 30q6 30 36 30h300q30 0 24 -30zM266 1005
q-5 -30 25 -30h75q30 0 35 30t-25 30h-75q-30 0 -35 -30zM178 930q-6 -30 24 -30h225q30 0 36 30q5 30 -25 30h-225q-30 0 -35 -30z" />
    <glyph glyph-name="Idieresis" unicode="&#xcf;" horiz-adv-x="480" 
d="M102 330q-5 -30 25 -30h150q30 0 35 30t-25 30h-150q-30 0 -35 -30zM115 405q-5 -30 25 -30h150q30 0 35 30t-25 30h-150q-30 0 -35 -30zM153 450h150q30 0 35 30q6 30 -24 30h-150q-30 0 -36 -30q-5 -30 25 -30zM80 630q-5 -30 25 -30h300q30 0 35 30t-25 30h-300
q-30 0 -35 -30zM93 705q-5 -30 25 -30h300q30 0 35 30t-25 30h-300q-30 0 -35 -30zM131 750h300q30 0 35 30q6 30 -24 30h-300q-30 0 -36 -30q-5 -30 25 -30zM142 555q-6 -30 24 -30h150q30 0 36 30q5 30 -25 30h-150q-30 0 -35 -30zM113 225h150q30 0 36 30q5 30 -25 30
h-150q-30 0 -35 -30q-6 -30 24 -30zM-26 30q-5 -30 25 -30h300q30 0 35 30t-25 30h-300q-30 0 -35 -30zM12 75h300q30 0 35 30q6 30 -24 30h-300q-30 0 -36 -30q-5 -30 25 -30zM0 180q-5 -30 25 -30h300q30 0 35 30q6 30 -24 30h-300q-30 0 -36 -30zM146 1005q-5 -30 25 -30
h75q30 0 35 30t-25 30h-75q-30 0 -35 -30zM133 930q-6 -30 24 -30h75q30 0 36 30q5 30 -25 30h-75q-30 0 -35 -30zM371 1005q-5 -30 25 -30h75q30 0 35 30t-25 30h-75q-30 0 -35 -30zM358 930q-6 -30 24 -30h75q30 0 36 30q5 30 -25 30h-75q-30 0 -35 -30z" />
    <glyph glyph-name="Eth" unicode="&#xd0;" 
d="M124 600h450q30 0 36 30q5 30 -25 30h-450q-30 0 -35 -30q-6 -30 24 -30zM138 675h450q30 0 35 30t-25 30h-450q-30 0 -35 -30t25 -30zM45 150h450q30 0 35 30q6 30 -24 30h-450q-30 0 -36 -30q-5 -30 25 -30zM32 75h450q30 0 35 30t-25 30h-450q-30 0 -35 -30t25 -30z
M0 405q-5 -30 25 -30h270q30 0 35 30t-25 30h-270q-30 0 -35 -30zM13 480q-5 -30 25 -30h270q30 0 35 30q6 30 -24 30h-270q-30 0 -36 -30zM111 525h150q30 0 35 30q6 30 -24 30h-150q-30 0 -36 -30q-5 -30 25 -30zM360 405q-5 -30 25 -30h150q30 0 35 30t-25 30h-150
q-30 0 -35 -30zM373 480q-5 -30 25 -30h150q30 0 35 30q6 30 -24 30h-150q-30 0 -36 -30zM411 525h150q30 0 35 30q6 30 -24 30h-150q-30 0 -36 -30q-5 -30 25 -30zM34 255q-6 -30 24 -30h150q30 0 36 30q5 30 -25 30h-150q-30 0 -35 -30zM-13 330q-6 -30 24 -30h270
q30 0 36 30q5 30 -25 30h-270q-30 0 -35 -30zM334 255q-6 -30 24 -30h150q30 0 36 30q5 30 -25 30h-150q-30 0 -35 -30zM347 330q-6 -30 24 -30h150q30 0 36 30q5 30 -25 30h-150q-30 0 -35 -30zM126 780q-5 -30 25 -30h375q30 0 35 30t-25 30h-375q-30 0 -35 -30zM-6 30
q-5 -30 25 -30h375q30 0 35 30t-25 30h-375q-30 0 -35 -30z" />
    <glyph glyph-name="Ntilde" unicode="&#xd1;" 
d="M214 930q-5 -30 25 -30h300q30 0 35 30q6 30 -24 30h-300q-30 0 -36 -30zM111 600h450q30 0 35 30q6 30 -24 30h-450q-30 0 -36 -30q-5 -30 25 -30zM124 675h450q30 0 36 30q5 30 -25 30h-450q-30 0 -35 -30q-6 -30 24 -30zM34 330q-6 -30 24 -30h150q30 0 36 30
q5 30 -25 30h-150q-30 0 -35 -30zM47 405q-6 -30 24 -30h150q30 0 36 30q5 30 -25 30h-150q-30 0 -35 -30zM85 450h150q30 0 35 30t-25 30h-150q-30 0 -35 -30t25 -30zM334 330q-6 -30 24 -30h150q30 0 36 30q5 30 -25 30h-150q-30 0 -35 -30zM347 405q-6 -30 24 -30h150
q30 0 36 30q5 30 -25 30h-150q-30 0 -35 -30zM385 450h150q30 0 35 30t-25 30h-150q-30 0 -35 -30t25 -30zM73 555q-5 -30 25 -30h150q30 0 35 30q6 30 -24 30h-150q-30 0 -36 -30zM398 525h150q30 0 35 30q6 30 -24 30h-150q-30 0 -36 -30q-5 -30 25 -30zM-19 30
q-6 -30 24 -30h150q30 0 36 30q5 30 -25 30h-150q-30 0 -35 -30zM-6 105q-5 -30 25 -30h150q30 0 35 30t-25 30h-150q-30 0 -35 -30zM32 150h150q30 0 35 30t-25 30h-150q-30 0 -35 -30t25 -30zM281 30q-6 -30 24 -30h150q30 0 36 30q5 30 -25 30h-150q-30 0 -35 -30z
M294 105q-5 -30 25 -30h150q30 0 35 30t-25 30h-150q-30 0 -35 -30zM332 150h150q30 0 35 30t-25 30h-150q-30 0 -35 -30t25 -30zM20 255q-5 -30 25 -30h150q30 0 35 30q6 30 -24 30h-150q-30 0 -36 -30zM345 225h150q30 0 35 30q6 30 -24 30h-150q-30 0 -36 -30
q-5 -30 25 -30zM113 780q-5 -30 25 -30h375q30 0 35 30t-25 30h-375q-30 0 -35 -30z" />
    <glyph glyph-name="Ograve" unicode="&#xd2;" 
d="M221 1005q-5 -30 25 -30h75q30 0 35 30t-25 30h-75q-30 0 -35 -30zM283 930q-6 -30 24 -30h75q30 0 36 30q5 30 -25 30h-75q-30 0 -35 -30zM105 600h450q30 0 35 30t-25 30h-450q-30 0 -35 -30t25 -30zM118 675h450q30 0 35 30t-25 30h-450q-30 0 -35 -30t25 -30zM12 75
h450q30 0 35 30q6 30 -24 30h-450q-30 0 -36 -30q-5 -30 25 -30zM25 150h450q30 0 35 30q6 30 -24 30h-450q-30 0 -36 -30q-5 -30 25 -30zM27 330q-5 -30 25 -30h150q30 0 35 30t-25 30h-150q-30 0 -35 -30zM40 405q-5 -30 25 -30h150q30 0 35 30t-25 30h-150q-30 0 -35 -30
zM78 450h150q30 0 35 30q6 30 -24 30h-150q-30 0 -36 -30q-5 -30 25 -30zM327 330q-5 -30 25 -30h150q30 0 35 30t-25 30h-150q-30 0 -35 -30zM340 405q-5 -30 25 -30h150q30 0 35 30t-25 30h-150q-30 0 -35 -30zM378 450h150q30 0 35 30q6 30 -24 30h-150q-30 0 -36 -30
q-5 -30 25 -30zM67 555q-6 -30 24 -30h150q30 0 36 30q5 30 -25 30h-150q-30 0 -35 -30zM391 525h150q30 0 36 30q5 30 -25 30h-150q-30 0 -35 -30q-6 -30 24 -30zM14 255q-6 -30 24 -30h150q30 0 36 30q5 30 -25 30h-150q-30 0 -35 -30zM338 225h150q30 0 36 30
q5 30 -25 30h-150q-30 0 -35 -30q-6 -30 24 -30zM181 780q-5 -30 25 -30h300q30 0 35 30q6 30 -24 30h-300q-30 0 -36 -30zM49 30q-5 -30 25 -30h300q30 0 35 30t-25 30h-300q-30 0 -35 -30z" />
    <glyph glyph-name="Oacute" unicode="&#xd3;" 
d="M581 1005q-5 -30 -35 -30h-75q-30 0 -25 30t35 30h75q30 0 25 -30zM493 930q-6 -30 -36 -30h-75q-30 0 -24 30q5 30 35 30h75q30 0 25 -30zM105 600h450q30 0 35 30t-25 30h-450q-30 0 -35 -30t25 -30zM118 675h450q30 0 35 30t-25 30h-450q-30 0 -35 -30t25 -30zM12 75
h450q30 0 35 30q6 30 -24 30h-450q-30 0 -36 -30q-5 -30 25 -30zM25 150h450q30 0 35 30q6 30 -24 30h-450q-30 0 -36 -30q-5 -30 25 -30zM27 330q-5 -30 25 -30h150q30 0 35 30t-25 30h-150q-30 0 -35 -30zM40 405q-5 -30 25 -30h150q30 0 35 30t-25 30h-150q-30 0 -35 -30
zM78 450h150q30 0 35 30q6 30 -24 30h-150q-30 0 -36 -30q-5 -30 25 -30zM327 330q-5 -30 25 -30h150q30 0 35 30t-25 30h-150q-30 0 -35 -30zM340 405q-5 -30 25 -30h150q30 0 35 30t-25 30h-150q-30 0 -35 -30zM378 450h150q30 0 35 30q6 30 -24 30h-150q-30 0 -36 -30
q-5 -30 25 -30zM67 555q-6 -30 24 -30h150q30 0 36 30q5 30 -25 30h-150q-30 0 -35 -30zM391 525h150q30 0 36 30q5 30 -25 30h-150q-30 0 -35 -30q-6 -30 24 -30zM14 255q-6 -30 24 -30h150q30 0 36 30q5 30 -25 30h-150q-30 0 -35 -30zM338 225h150q30 0 36 30
q5 30 -25 30h-150q-30 0 -35 -30q-6 -30 24 -30zM181 780q-5 -30 25 -30h300q30 0 35 30q6 30 -24 30h-300q-30 0 -36 -30zM49 30q-5 -30 25 -30h300q30 0 35 30t-25 30h-300q-30 0 -35 -30z" />
    <glyph glyph-name="Ocircumflex" unicode="&#xd4;" 
d="M341 1005q-5 -30 25 -30h75q30 0 35 30t-25 30h-75q-30 0 -35 -30zM253 930q-6 -30 24 -30h225q30 0 36 30q5 30 -25 30h-225q-30 0 -35 -30zM105 600h450q30 0 35 30t-25 30h-450q-30 0 -35 -30t25 -30zM118 675h450q30 0 35 30t-25 30h-450q-30 0 -35 -30t25 -30z
M12 75h450q30 0 35 30q6 30 -24 30h-450q-30 0 -36 -30q-5 -30 25 -30zM25 150h450q30 0 35 30q6 30 -24 30h-450q-30 0 -36 -30q-5 -30 25 -30zM27 330q-5 -30 25 -30h150q30 0 35 30t-25 30h-150q-30 0 -35 -30zM40 405q-5 -30 25 -30h150q30 0 35 30t-25 30h-150
q-30 0 -35 -30zM78 450h150q30 0 35 30q6 30 -24 30h-150q-30 0 -36 -30q-5 -30 25 -30zM327 330q-5 -30 25 -30h150q30 0 35 30t-25 30h-150q-30 0 -35 -30zM340 405q-5 -30 25 -30h150q30 0 35 30t-25 30h-150q-30 0 -35 -30zM378 450h150q30 0 35 30q6 30 -24 30h-150
q-30 0 -36 -30q-5 -30 25 -30zM67 555q-6 -30 24 -30h150q30 0 36 30q5 30 -25 30h-150q-30 0 -35 -30zM391 525h150q30 0 36 30q5 30 -25 30h-150q-30 0 -35 -30q-6 -30 24 -30zM14 255q-6 -30 24 -30h150q30 0 36 30q5 30 -25 30h-150q-30 0 -35 -30zM338 225h150
q30 0 36 30q5 30 -25 30h-150q-30 0 -35 -30q-6 -30 24 -30zM181 780q-5 -30 25 -30h300q30 0 35 30q6 30 -24 30h-300q-30 0 -36 -30zM49 30q-5 -30 25 -30h300q30 0 35 30t-25 30h-300q-30 0 -35 -30z" />
    <glyph glyph-name="Otilde" unicode="&#xd5;" 
d="M214 930q-5 -30 25 -30h300q30 0 35 30q6 30 -24 30h-300q-30 0 -36 -30zM111 600h450q30 0 35 30q6 30 -24 30h-450q-30 0 -36 -30q-5 -30 25 -30zM124 675h450q30 0 36 30q5 30 -25 30h-450q-30 0 -35 -30q-6 -30 24 -30zM19 75h450q30 0 35 30t-25 30h-450
q-30 0 -35 -30t25 -30zM32 150h450q30 0 35 30t-25 30h-450q-30 0 -35 -30t25 -30zM34 330q-6 -30 24 -30h150q30 0 36 30q5 30 -25 30h-150q-30 0 -35 -30zM47 405q-6 -30 24 -30h150q30 0 36 30q5 30 -25 30h-150q-30 0 -35 -30zM85 450h150q30 0 35 30t-25 30h-150
q-30 0 -35 -30t25 -30zM334 330q-6 -30 24 -30h150q30 0 36 30q5 30 -25 30h-150q-30 0 -35 -30zM347 405q-6 -30 24 -30h150q30 0 36 30q5 30 -25 30h-150q-30 0 -35 -30zM385 450h150q30 0 35 30t-25 30h-150q-30 0 -35 -30t25 -30zM73 555q-5 -30 25 -30h150q30 0 35 30
q6 30 -24 30h-150q-30 0 -36 -30zM398 525h150q30 0 35 30q6 30 -24 30h-150q-30 0 -36 -30q-5 -30 25 -30zM20 255q-5 -30 25 -30h150q30 0 35 30q6 30 -24 30h-150q-30 0 -36 -30zM345 225h150q30 0 35 30q6 30 -24 30h-150q-30 0 -36 -30q-5 -30 25 -30zM188 780
q-5 -30 25 -30h300q30 0 35 30t-25 30h-300q-30 0 -35 -30zM56 30q-6 -30 24 -30h300q30 0 36 30q5 30 -25 30h-300q-30 0 -35 -30z" />
    <glyph glyph-name="Odieresis" unicode="&#xd6;" 
d="M221 1005q-5 -30 25 -30h75q30 0 35 30t-25 30h-75q-30 0 -35 -30zM208 930q-6 -30 24 -30h75q30 0 36 30q5 30 -25 30h-75q-30 0 -35 -30zM446 1005q-5 -30 25 -30h75q30 0 35 30t-25 30h-75q-30 0 -35 -30zM433 930q-6 -30 24 -30h75q30 0 36 30q5 30 -25 30h-75
q-30 0 -35 -30zM105 600h450q30 0 35 30t-25 30h-450q-30 0 -35 -30t25 -30zM118 675h450q30 0 35 30t-25 30h-450q-30 0 -35 -30t25 -30zM12 75h450q30 0 35 30q6 30 -24 30h-450q-30 0 -36 -30q-5 -30 25 -30zM25 150h450q30 0 35 30q6 30 -24 30h-450q-30 0 -36 -30
q-5 -30 25 -30zM27 330q-5 -30 25 -30h150q30 0 35 30t-25 30h-150q-30 0 -35 -30zM40 405q-5 -30 25 -30h150q30 0 35 30t-25 30h-150q-30 0 -35 -30zM78 450h150q30 0 35 30q6 30 -24 30h-150q-30 0 -36 -30q-5 -30 25 -30zM327 330q-5 -30 25 -30h150q30 0 35 30t-25 30
h-150q-30 0 -35 -30zM340 405q-5 -30 25 -30h150q30 0 35 30t-25 30h-150q-30 0 -35 -30zM378 450h150q30 0 35 30q6 30 -24 30h-150q-30 0 -36 -30q-5 -30 25 -30zM67 555q-6 -30 24 -30h150q30 0 36 30q5 30 -25 30h-150q-30 0 -35 -30zM391 525h150q30 0 36 30
q5 30 -25 30h-150q-30 0 -35 -30q-6 -30 24 -30zM14 255q-6 -30 24 -30h150q30 0 36 30q5 30 -25 30h-150q-30 0 -35 -30zM338 225h150q30 0 36 30q5 30 -25 30h-150q-30 0 -35 -30q-6 -30 24 -30zM181 780q-5 -30 25 -30h300q30 0 35 30q6 30 -24 30h-300q-30 0 -36 -30z
M49 30q-5 -30 25 -30h300q30 0 35 30t-25 30h-300q-30 0 -35 -30z" />
    <glyph glyph-name="multiply" unicode="&#xd7;" 
d="M210 405q-5 -30 25 -30h150q30 0 35 30t-25 30h-150q-30 0 -35 -30zM161 555q-5 -30 25 -30h75q30 0 35 30q6 30 -24 30h-75q-30 0 -36 -30zM248 450h150q30 0 35 30q6 30 -24 30h-150q-30 0 -36 -30q-5 -30 25 -30zM197 330q-6 -30 24 -30h150q30 0 36 30q5 30 -25 30
h-150q-30 0 -35 -30zM386 555q-5 -30 25 -30h75q30 0 35 30q6 30 -24 30h-75q-30 0 -36 -30zM109 255q-6 -30 24 -30h75q30 0 36 30q5 30 -25 30h-75q-30 0 -35 -30zM334 255q-6 -30 24 -30h75q30 0 36 30q5 30 -25 30h-75q-30 0 -35 -30zM100 630q-6 -30 24 -30h75
q30 0 36 30q5 30 -25 30h-75q-30 0 -35 -30zM475 630q-6 -30 24 -30h75q30 0 36 30q5 30 -25 30h-75q-30 0 -35 -30zM13 180q-5 -30 25 -30h75q30 0 35 30q6 30 -24 30h-75q-30 0 -36 -30zM395 180q-5 -30 25 -30h75q30 0 35 30q6 30 -24 30h-75q-30 0 -36 -30z" />
    <glyph glyph-name="Oslash" unicode="&#xd8;" 
d="M113 705q-5 -30 25 -30h450q30 0 35 30t-25 30h-450q-30 0 -35 -30zM7 105q-5 -30 25 -30h450q30 0 35 30t-25 30h-450q-30 0 -35 -30zM95 180q-5 -30 25 -30h375q30 0 35 30q6 30 -24 30h-375q-30 0 -36 -30zM100 630q-6 -30 24 -30h375q30 0 36 30q5 30 -25 30h-375
q-30 0 -35 -30zM34 255q-6 -30 24 -30h150q30 0 36 30q5 30 -25 30h-150q-30 0 -35 -30zM73 480q-5 -30 25 -30h150q30 0 35 30q6 30 -24 30h-150q-30 0 -36 -30zM411 525h150q30 0 35 30q6 30 -24 30h-150q-30 0 -36 -30q-5 -30 25 -30zM60 405q-5 -30 25 -30h150
q30 0 35 30t-25 30h-150q-30 0 -35 -30zM219 30q-5 -30 25 -30h150q30 0 35 30t-25 30h-150q-30 0 -35 -30zM334 255q-6 -30 24 -30h150q30 0 36 30q5 30 -25 30h-150q-30 0 -35 -30zM360 405q-5 -30 25 -30h150q30 0 35 30t-25 30h-150q-30 0 -35 -30zM201 780
q-5 -30 25 -30h150q30 0 35 30t-25 30h-150q-30 0 -35 -30zM86 555q-5 -30 25 -30h150q30 0 35 30q6 30 -24 30h-150q-30 0 -36 -30zM347 330q-6 -30 24 -30h150q30 0 36 30q5 30 -25 30h-150q-30 0 -35 -30zM71 300h150q30 0 36 30q5 30 -25 30h-150q-30 0 -35 -30
q-6 -30 24 -30zM398 450h150q30 0 35 30q6 30 -24 30h-150q-30 0 -36 -30q-5 -30 25 -30zM501 780q-5 -30 25 -30h75q30 0 35 30t-25 30h-75q-30 0 -35 -30zM-6 30q-5 -30 25 -30h75q30 0 35 30t-25 30h-75q-30 0 -35 -30z" />
    <glyph glyph-name="Ugrave" unicode="&#xd9;" 
d="M221 1005q-5 -30 25 -30h75q30 0 35 30t-25 30h-75q-30 0 -35 -30zM283 930q-6 -30 24 -30h75q30 0 36 30q5 30 -25 30h-75q-30 0 -35 -30zM12 75h450q30 0 35 30q6 30 -24 30h-450q-30 0 -36 -30q-5 -30 25 -30zM25 150h450q30 0 35 30q6 30 -24 30h-450q-30 0 -36 -30
q-5 -30 25 -30zM14 255q-6 -30 24 -30h150q30 0 36 30q5 30 -25 30h-150q-30 0 -35 -30zM27 330q-5 -30 25 -30h150q30 0 35 30t-25 30h-150q-30 0 -35 -30zM65 375h150q30 0 35 30t-25 30h-150q-30 0 -35 -30t25 -30zM78 450h150q30 0 35 30q6 30 -24 30h-150
q-30 0 -36 -30q-5 -30 25 -30zM314 255q-6 -30 24 -30h150q30 0 36 30q5 30 -25 30h-150q-30 0 -35 -30zM327 330q-5 -30 25 -30h150q30 0 35 30t-25 30h-150q-30 0 -35 -30zM365 375h150q30 0 35 30t-25 30h-150q-30 0 -35 -30t25 -30zM378 450h150q30 0 35 30q6 30 -24 30
h-150q-30 0 -36 -30q-5 -30 25 -30zM367 555q-6 -30 24 -30h150q30 0 36 30q5 30 -25 30h-150q-30 0 -35 -30zM380 630q-5 -30 25 -30h150q30 0 35 30t-25 30h-150q-30 0 -35 -30zM418 675h150q30 0 35 30t-25 30h-150q-30 0 -35 -30t25 -30zM431 750h150q30 0 35 30
q6 30 -24 30h-150q-30 0 -36 -30q-5 -30 25 -30zM67 555q-6 -30 24 -30h150q30 0 36 30q5 30 -25 30h-150q-30 0 -35 -30zM80 630q-5 -30 25 -30h150q30 0 35 30t-25 30h-150q-30 0 -35 -30zM118 675h150q30 0 35 30t-25 30h-150q-30 0 -35 -30t25 -30zM131 750h150
q30 0 35 30q6 30 -24 30h-150q-30 0 -36 -30q-5 -30 25 -30zM49 30q-5 -30 25 -30h300q30 0 35 30t-25 30h-300q-30 0 -35 -30z" />
    <glyph glyph-name="Uacute" unicode="&#xda;" 
d="M581 1005q-5 -30 -35 -30h-75q-30 0 -25 30t35 30h75q30 0 25 -30zM493 930q-6 -30 -36 -30h-75q-30 0 -24 30q5 30 35 30h75q30 0 25 -30zM12 75h450q30 0 35 30q6 30 -24 30h-450q-30 0 -36 -30q-5 -30 25 -30zM25 150h450q30 0 35 30q6 30 -24 30h-450q-30 0 -36 -30
q-5 -30 25 -30zM14 255q-6 -30 24 -30h150q30 0 36 30q5 30 -25 30h-150q-30 0 -35 -30zM27 330q-5 -30 25 -30h150q30 0 35 30t-25 30h-150q-30 0 -35 -30zM65 375h150q30 0 35 30t-25 30h-150q-30 0 -35 -30t25 -30zM78 450h150q30 0 35 30q6 30 -24 30h-150
q-30 0 -36 -30q-5 -30 25 -30zM314 255q-6 -30 24 -30h150q30 0 36 30q5 30 -25 30h-150q-30 0 -35 -30zM327 330q-5 -30 25 -30h150q30 0 35 30t-25 30h-150q-30 0 -35 -30zM365 375h150q30 0 35 30t-25 30h-150q-30 0 -35 -30t25 -30zM378 450h150q30 0 35 30q6 30 -24 30
h-150q-30 0 -36 -30q-5 -30 25 -30zM367 555q-6 -30 24 -30h150q30 0 36 30q5 30 -25 30h-150q-30 0 -35 -30zM380 630q-5 -30 25 -30h150q30 0 35 30t-25 30h-150q-30 0 -35 -30zM418 675h150q30 0 35 30t-25 30h-150q-30 0 -35 -30t25 -30zM431 750h150q30 0 35 30
q6 30 -24 30h-150q-30 0 -36 -30q-5 -30 25 -30zM67 555q-6 -30 24 -30h150q30 0 36 30q5 30 -25 30h-150q-30 0 -35 -30zM80 630q-5 -30 25 -30h150q30 0 35 30t-25 30h-150q-30 0 -35 -30zM118 675h150q30 0 35 30t-25 30h-150q-30 0 -35 -30t25 -30zM131 750h150
q30 0 35 30q6 30 -24 30h-150q-30 0 -36 -30q-5 -30 25 -30zM49 30q-5 -30 25 -30h300q30 0 35 30t-25 30h-300q-30 0 -35 -30z" />
    <glyph glyph-name="Ucircumflex" unicode="&#xdb;" 
d="M341 1005q-5 -30 25 -30h75q30 0 35 30t-25 30h-75q-30 0 -35 -30zM253 930q-6 -30 24 -30h225q30 0 36 30q5 30 -25 30h-225q-30 0 -35 -30zM12 75h450q30 0 35 30q6 30 -24 30h-450q-30 0 -36 -30q-5 -30 25 -30zM25 150h450q30 0 35 30q6 30 -24 30h-450
q-30 0 -36 -30q-5 -30 25 -30zM14 255q-6 -30 24 -30h150q30 0 36 30q5 30 -25 30h-150q-30 0 -35 -30zM27 330q-5 -30 25 -30h150q30 0 35 30t-25 30h-150q-30 0 -35 -30zM65 375h150q30 0 35 30t-25 30h-150q-30 0 -35 -30t25 -30zM78 450h150q30 0 35 30q6 30 -24 30
h-150q-30 0 -36 -30q-5 -30 25 -30zM314 255q-6 -30 24 -30h150q30 0 36 30q5 30 -25 30h-150q-30 0 -35 -30zM327 330q-5 -30 25 -30h150q30 0 35 30t-25 30h-150q-30 0 -35 -30zM365 375h150q30 0 35 30t-25 30h-150q-30 0 -35 -30t25 -30zM378 450h150q30 0 35 30
q6 30 -24 30h-150q-30 0 -36 -30q-5 -30 25 -30zM367 555q-6 -30 24 -30h150q30 0 36 30q5 30 -25 30h-150q-30 0 -35 -30zM380 630q-5 -30 25 -30h150q30 0 35 30t-25 30h-150q-30 0 -35 -30zM418 675h150q30 0 35 30t-25 30h-150q-30 0 -35 -30t25 -30zM431 750h150
q30 0 35 30q6 30 -24 30h-150q-30 0 -36 -30q-5 -30 25 -30zM67 555q-6 -30 24 -30h150q30 0 36 30q5 30 -25 30h-150q-30 0 -35 -30zM80 630q-5 -30 25 -30h150q30 0 35 30t-25 30h-150q-30 0 -35 -30zM118 675h150q30 0 35 30t-25 30h-150q-30 0 -35 -30t25 -30zM131 750
h150q30 0 35 30q6 30 -24 30h-150q-30 0 -36 -30q-5 -30 25 -30zM49 30q-5 -30 25 -30h300q30 0 35 30t-25 30h-300q-30 0 -35 -30z" />
    <glyph glyph-name="Udieresis" unicode="&#xdc;" 
d="M221 1005q-5 -30 25 -30h75q30 0 35 30t-25 30h-75q-30 0 -35 -30zM208 930q-6 -30 24 -30h75q30 0 36 30q5 30 -25 30h-75q-30 0 -35 -30zM446 1005q-5 -30 25 -30h75q30 0 35 30t-25 30h-75q-30 0 -35 -30zM433 930q-6 -30 24 -30h75q30 0 36 30q5 30 -25 30h-75
q-30 0 -35 -30zM12 75h450q30 0 35 30q6 30 -24 30h-450q-30 0 -36 -30q-5 -30 25 -30zM25 150h450q30 0 35 30q6 30 -24 30h-450q-30 0 -36 -30q-5 -30 25 -30zM14 255q-6 -30 24 -30h150q30 0 36 30q5 30 -25 30h-150q-30 0 -35 -30zM27 330q-5 -30 25 -30h150q30 0 35 30
t-25 30h-150q-30 0 -35 -30zM65 375h150q30 0 35 30t-25 30h-150q-30 0 -35 -30t25 -30zM78 450h150q30 0 35 30q6 30 -24 30h-150q-30 0 -36 -30q-5 -30 25 -30zM314 255q-6 -30 24 -30h150q30 0 36 30q5 30 -25 30h-150q-30 0 -35 -30zM327 330q-5 -30 25 -30h150
q30 0 35 30t-25 30h-150q-30 0 -35 -30zM365 375h150q30 0 35 30t-25 30h-150q-30 0 -35 -30t25 -30zM378 450h150q30 0 35 30q6 30 -24 30h-150q-30 0 -36 -30q-5 -30 25 -30zM367 555q-6 -30 24 -30h150q30 0 36 30q5 30 -25 30h-150q-30 0 -35 -30zM380 630
q-5 -30 25 -30h150q30 0 35 30t-25 30h-150q-30 0 -35 -30zM418 675h150q30 0 35 30t-25 30h-150q-30 0 -35 -30t25 -30zM431 750h150q30 0 35 30q6 30 -24 30h-150q-30 0 -36 -30q-5 -30 25 -30zM67 555q-6 -30 24 -30h150q30 0 36 30q5 30 -25 30h-150q-30 0 -35 -30z
M80 630q-5 -30 25 -30h150q30 0 35 30t-25 30h-150q-30 0 -35 -30zM118 675h150q30 0 35 30t-25 30h-150q-30 0 -35 -30t25 -30zM131 750h150q30 0 35 30q6 30 -24 30h-150q-30 0 -36 -30q-5 -30 25 -30zM49 30q-5 -30 25 -30h300q30 0 35 30t-25 30h-300q-30 0 -35 -30z
" />
    <glyph glyph-name="Yacute" unicode="&#xdd;" 
d="M581 1005q-5 -30 -35 -30h-75q-30 0 -25 30t35 30h75q30 0 25 -30zM493 930q-6 -30 -36 -30h-75q-30 0 -24 30q5 30 35 30h75q30 0 25 -30zM65 375h450q30 0 35 30t-25 30h-450q-30 0 -35 -30t25 -30zM78 450h450q30 0 35 30q6 30 -24 30h-450q-30 0 -36 -30
q-5 -30 25 -30zM124 30q-5 -30 25 -30h150q30 0 35 30t-25 30h-150q-30 0 -35 -30zM137 105q-5 -30 25 -30h150q30 0 35 30q6 30 -24 30h-150q-30 0 -36 -30zM175 150h150q30 0 35 30q6 30 -24 30h-150q-30 0 -36 -30q-5 -30 25 -30zM188 225h150q30 0 36 30q5 30 -25 30
h-150q-30 0 -35 -30q-6 -30 24 -30zM67 555q-6 -30 24 -30h150q30 0 36 30q5 30 -25 30h-150q-30 0 -35 -30zM80 630q-5 -30 25 -30h150q30 0 35 30t-25 30h-150q-30 0 -35 -30zM118 675h150q30 0 35 30t-25 30h-150q-30 0 -35 -30t25 -30zM131 750h150q30 0 35 30
q6 30 -24 30h-150q-30 0 -36 -30q-5 -30 25 -30zM367 555q-6 -30 24 -30h150q30 0 36 30q5 30 -25 30h-150q-30 0 -35 -30zM380 630q-5 -30 25 -30h150q30 0 35 30t-25 30h-150q-30 0 -35 -30zM418 675h150q30 0 35 30t-25 30h-150q-30 0 -35 -30t25 -30zM431 750h150
q30 0 35 30q6 30 -24 30h-150q-30 0 -36 -30q-5 -30 25 -30zM102 330q-5 -30 25 -30h300q30 0 35 30t-25 30h-300q-30 0 -35 -30z" />
    <glyph glyph-name="Thorn" unicode="&#xde;" 
d="M98 450h450q30 0 35 30q6 30 -24 30h-450q-30 0 -36 -30q-5 -30 25 -30zM111 525h450q30 0 35 30q6 30 -24 30h-450q-30 0 -36 -30q-5 -30 25 -30zM58 225h450q30 0 36 30q5 30 -25 30h-450q-30 0 -35 -30q-6 -30 24 -30zM71 300h450q30 0 36 30q5 30 -25 30h-450
q-30 0 -35 -30q-6 -30 24 -30zM19 0h150q30 0 35 30t-25 30h-150q-30 0 -35 -30t25 -30zM7 105q-5 -30 25 -30h150q30 0 35 30t-25 30h-150q-30 0 -35 -30zM60 405q-5 -30 25 -30h150q30 0 35 30t-25 30h-150q-30 0 -35 -30zM360 405q-5 -30 25 -30h150q30 0 35 30t-25 30
h-150q-30 0 -35 -30zM20 180q-5 -30 25 -30h375q30 0 35 30q6 30 -24 30h-375q-30 0 -36 -30zM100 630q-6 -30 24 -30h375q30 0 36 30q5 30 -25 30h-375q-30 0 -35 -30zM113 705q-5 -30 25 -30h150q30 0 35 30t-25 30h-150q-30 0 -35 -30zM126 780q-5 -30 25 -30h150
q30 0 35 30t-25 30h-150q-30 0 -35 -30z" />
    <glyph glyph-name="germandbls" unicode="&#xdf;" 
d="M151 675h450q30 0 35 30t-25 30h-450q-30 0 -35 -30t25 -30zM164 750h375q30 0 35 30q6 30 -24 30h-375q-30 0 -36 -30q-5 -30 25 -30zM138 600h450q30 0 35 30t-25 30h-450q-30 0 -35 -30t25 -30zM411 450h150q30 0 35 30q6 30 -24 30h-150q-30 0 -36 -30q-5 -30 25 -30
zM385 300h150q30 0 35 30t-25 30h-150q-30 0 -35 -30t25 -30zM358 150h150q30 0 36 30q5 30 -25 30h-150q-30 0 -35 -30q-6 -30 24 -30zM345 75h150q30 0 35 30q6 30 -24 30h-150q-30 0 -36 -30q-5 -30 25 -30zM100 555q-6 -30 24 -30h150q30 0 36 30q5 30 -25 30h-150
q-30 0 -35 -30zM400 555q-6 -30 24 -30h150q30 0 36 30q5 30 -25 30h-150q-30 0 -35 -30zM47 255q-6 -30 24 -30h150q30 0 36 30q5 30 -25 30h-150q-30 0 -35 -30zM347 255q-6 -30 24 -30h150q30 0 36 30q5 30 -25 30h-150q-30 0 -35 -30zM307 30q-5 -30 25 -30h75
q30 0 35 30t-25 30h-75q-30 0 -35 -30zM73 405q-5 -30 25 -30h150q30 0 35 30q6 30 -24 30h-150q-30 0 -36 -30zM34 180q-6 -30 24 -30h150q30 0 36 30q5 30 -25 30h-150q-30 0 -35 -30zM20 105q-5 -30 25 -30h150q30 0 35 30q6 30 -24 30h-150q-30 0 -36 -30zM7 30
q-5 -30 25 -30h150q30 0 35 30t-25 30h-150q-30 0 -35 -30zM-6 -45q-5 -30 25 -30h150q30 0 35 30t-25 30h-150q-30 0 -35 -30zM-19 -120q-6 -30 24 -30h150q30 0 36 30q5 30 -25 30h-150q-30 0 -35 -30zM111 450h150q30 0 35 30q6 30 -24 30h-150q-30 0 -36 -30
q-5 -30 25 -30zM85 300h150q30 0 35 30t-25 30h-150q-30 0 -35 -30t25 -30zM398 375h75q30 0 35 30q6 30 -24 30h-75q-30 0 -36 -30q-5 -30 25 -30z" />
    <glyph glyph-name="agrave" unicode="&#xe0;" 
d="M80 630q-5 -30 25 -30h450q30 0 35 30t-25 30h-450q-30 0 -35 -30zM40 405q-5 -30 25 -30h450q30 0 35 30t-25 30h-450q-30 0 -35 -30zM93 705q-5 -30 25 -30h450q30 0 35 30t-25 30h-450q-30 0 -35 -30zM27 330q-5 -30 25 -30h450q30 0 35 30t-25 30h-450q-30 0 -35 -30
zM14 255q-6 -30 24 -30h450q30 0 36 30q5 30 -25 30h-450q-30 0 -35 -30zM181 780q-5 -30 25 -30h300q30 0 35 30q6 30 -24 30h-300q-30 0 -36 -30zM274 30q-5 -30 25 -30h150q30 0 35 30t-25 30h-150q-30 0 -35 -30zM353 480q-5 -30 25 -30h150q30 0 35 30q6 30 -24 30
h-150q-30 0 -36 -30zM287 105q-5 -30 25 -30h150q30 0 35 30q6 30 -24 30h-150q-30 0 -36 -30zM67 555q-6 -30 24 -30h150q30 0 36 30q5 30 -25 30h-150q-30 0 -35 -30zM367 555q-6 -30 24 -30h150q30 0 36 30q5 30 -25 30h-150q-30 0 -35 -30zM-26 30q-5 -30 25 -30h150
q30 0 35 30t-25 30h-150q-30 0 -35 -30zM53 480q-5 -30 25 -30h150q30 0 35 30q6 30 -24 30h-150q-30 0 -36 -30zM12 75h150q30 0 35 30q6 30 -24 30h-150q-30 0 -36 -30q-5 -30 25 -30zM325 150h150q30 0 35 30q6 30 -24 30h-150q-30 0 -36 -30q-5 -30 25 -30zM0 180
q-5 -30 25 -30h150q30 0 35 30q6 30 -24 30h-150q-30 0 -36 -30zM221 1005q-5 -30 25 -30h75q30 0 35 30t-25 30h-75q-30 0 -35 -30zM283 930q-6 -30 24 -30h75q30 0 36 30q5 30 -25 30h-75q-30 0 -35 -30z" />
    <glyph glyph-name="aacute" unicode="&#xe1;" 
d="M590 630q-5 -30 -35 -30h-450q-30 0 -25 30t35 30h450q30 0 25 -30zM550 405q-5 -30 -35 -30h-450q-30 0 -25 30t35 30h450q30 0 25 -30zM603 705q-5 -30 -35 -30h-450q-30 0 -25 30t35 30h450q30 0 25 -30zM537 330q-5 -30 -35 -30h-450q-30 0 -25 30t35 30h450
q30 0 25 -30zM524 255q-6 -30 -36 -30h-450q-30 0 -24 30q5 30 35 30h450q30 0 25 -30zM541 780q-5 -30 -35 -30h-300q-30 0 -25 30q6 30 36 30h300q30 0 24 -30zM184 30q-5 -30 -35 -30h-150q-30 0 -25 30t35 30h150q30 0 25 -30zM263 480q-5 -30 -35 -30h-150
q-30 0 -25 30q6 30 36 30h150q30 0 24 -30zM197 105q-5 -30 -35 -30h-150q-30 0 -25 30q6 30 36 30h150q30 0 24 -30zM577 555q-6 -30 -36 -30h-150q-30 0 -24 30q5 30 35 30h150q30 0 25 -30zM277 555q-6 -30 -36 -30h-150q-30 0 -24 30q5 30 35 30h150q30 0 25 -30z
M484 30q-5 -30 -35 -30h-150q-30 0 -25 30t35 30h150q30 0 25 -30zM563 480q-5 -30 -35 -30h-150q-30 0 -25 30q6 30 36 30h150q30 0 24 -30zM462 75h-150q-30 0 -25 30q6 30 36 30h150q30 0 24 -30q-5 -30 -35 -30zM175 150h-150q-30 0 -25 30q6 30 36 30h150q30 0 24 -30
q-5 -30 -35 -30zM510 180q-5 -30 -35 -30h-150q-30 0 -25 30q6 30 36 30h150q30 0 24 -30zM581 1005q-5 -30 -35 -30h-75q-30 0 -25 30t35 30h75q30 0 25 -30zM493 930q-6 -30 -36 -30h-75q-30 0 -24 30q5 30 35 30h75q30 0 25 -30z" />
    <glyph glyph-name="acircumflex" unicode="&#xe2;" 
d="M80 630q-5 -30 25 -30h450q30 0 35 30t-25 30h-450q-30 0 -35 -30zM40 405q-5 -30 25 -30h450q30 0 35 30t-25 30h-450q-30 0 -35 -30zM93 705q-5 -30 25 -30h450q30 0 35 30t-25 30h-450q-30 0 -35 -30zM27 330q-5 -30 25 -30h450q30 0 35 30t-25 30h-450q-30 0 -35 -30
zM14 255q-6 -30 24 -30h450q30 0 36 30q5 30 -25 30h-450q-30 0 -35 -30zM181 780q-5 -30 25 -30h300q30 0 35 30q6 30 -24 30h-300q-30 0 -36 -30zM274 30q-5 -30 25 -30h150q30 0 35 30t-25 30h-150q-30 0 -35 -30zM353 480q-5 -30 25 -30h150q30 0 35 30q6 30 -24 30
h-150q-30 0 -36 -30zM287 105q-5 -30 25 -30h150q30 0 35 30q6 30 -24 30h-150q-30 0 -36 -30zM67 555q-6 -30 24 -30h150q30 0 36 30q5 30 -25 30h-150q-30 0 -35 -30zM367 555q-6 -30 24 -30h150q30 0 36 30q5 30 -25 30h-150q-30 0 -35 -30zM-26 30q-5 -30 25 -30h150
q30 0 35 30t-25 30h-150q-30 0 -35 -30zM53 480q-5 -30 25 -30h150q30 0 35 30q6 30 -24 30h-150q-30 0 -36 -30zM12 75h150q30 0 35 30q6 30 -24 30h-150q-30 0 -36 -30q-5 -30 25 -30zM325 150h150q30 0 35 30q6 30 -24 30h-150q-30 0 -36 -30q-5 -30 25 -30zM0 180
q-5 -30 25 -30h150q30 0 35 30q6 30 -24 30h-150q-30 0 -36 -30zM341 1005q-5 -30 25 -30h75q30 0 35 30t-25 30h-75q-30 0 -35 -30zM253 930q-6 -30 24 -30h225q30 0 36 30q5 30 -25 30h-225q-30 0 -35 -30z" />
    <glyph glyph-name="atilde" unicode="&#xe3;" 
d="M86 630q-5 -30 25 -30h450q30 0 35 30q6 30 -24 30h-450q-30 0 -36 -30zM47 405q-6 -30 24 -30h450q30 0 36 30q5 30 -25 30h-450q-30 0 -35 -30zM100 705q-6 -30 24 -30h450q30 0 36 30q5 30 -25 30h-450q-30 0 -35 -30zM34 330q-6 -30 24 -30h450q30 0 36 30
q5 30 -25 30h-450q-30 0 -35 -30zM20 255q-5 -30 25 -30h450q30 0 35 30q6 30 -24 30h-450q-30 0 -36 -30zM188 780q-5 -30 25 -30h300q30 0 35 30t-25 30h-300q-30 0 -35 -30zM281 30q-6 -30 24 -30h150q30 0 36 30q5 30 -25 30h-150q-30 0 -35 -30zM360 480q-5 -30 25 -30
h150q30 0 35 30t-25 30h-150q-30 0 -35 -30zM294 105q-5 -30 25 -30h150q30 0 35 30t-25 30h-150q-30 0 -35 -30zM73 555q-5 -30 25 -30h150q30 0 35 30q6 30 -24 30h-150q-30 0 -36 -30zM373 555q-5 -30 25 -30h150q30 0 35 30q6 30 -24 30h-150q-30 0 -36 -30zM-19 30
q-6 -30 24 -30h150q30 0 36 30q5 30 -25 30h-150q-30 0 -35 -30zM60 480q-5 -30 25 -30h150q30 0 35 30t-25 30h-150q-30 0 -35 -30zM19 75h150q30 0 35 30t-25 30h-150q-30 0 -35 -30t25 -30zM332 150h150q30 0 35 30t-25 30h-150q-30 0 -35 -30t25 -30zM7 180
q-5 -30 25 -30h150q30 0 35 30t-25 30h-150q-30 0 -35 -30zM214 930q-5 -30 25 -30h300q30 0 35 30q6 30 -24 30h-300q-30 0 -36 -30z" />
    <glyph glyph-name="adieresis" unicode="&#xe4;" 
d="M80 630q-5 -30 25 -30h450q30 0 35 30t-25 30h-450q-30 0 -35 -30zM40 405q-5 -30 25 -30h450q30 0 35 30t-25 30h-450q-30 0 -35 -30zM93 705q-5 -30 25 -30h450q30 0 35 30t-25 30h-450q-30 0 -35 -30zM27 330q-5 -30 25 -30h450q30 0 35 30t-25 30h-450q-30 0 -35 -30
zM14 255q-6 -30 24 -30h450q30 0 36 30q5 30 -25 30h-450q-30 0 -35 -30zM181 780q-5 -30 25 -30h300q30 0 35 30q6 30 -24 30h-300q-30 0 -36 -30zM274 30q-5 -30 25 -30h150q30 0 35 30t-25 30h-150q-30 0 -35 -30zM353 480q-5 -30 25 -30h150q30 0 35 30q6 30 -24 30
h-150q-30 0 -36 -30zM287 105q-5 -30 25 -30h150q30 0 35 30q6 30 -24 30h-150q-30 0 -36 -30zM67 555q-6 -30 24 -30h150q30 0 36 30q5 30 -25 30h-150q-30 0 -35 -30zM367 555q-6 -30 24 -30h150q30 0 36 30q5 30 -25 30h-150q-30 0 -35 -30zM-26 30q-5 -30 25 -30h150
q30 0 35 30t-25 30h-150q-30 0 -35 -30zM53 480q-5 -30 25 -30h150q30 0 35 30q6 30 -24 30h-150q-30 0 -36 -30zM12 75h150q30 0 35 30q6 30 -24 30h-150q-30 0 -36 -30q-5 -30 25 -30zM325 150h150q30 0 35 30q6 30 -24 30h-150q-30 0 -36 -30q-5 -30 25 -30zM0 180
q-5 -30 25 -30h150q30 0 35 30q6 30 -24 30h-150q-30 0 -36 -30zM221 1005q-5 -30 25 -30h75q30 0 35 30t-25 30h-75q-30 0 -35 -30zM208 930q-6 -30 24 -30h75q30 0 36 30q5 30 -25 30h-75q-30 0 -35 -30zM446 1005q-5 -30 25 -30h75q30 0 35 30t-25 30h-75q-30 0 -35 -30z
M433 930q-6 -30 24 -30h75q30 0 36 30q5 30 -25 30h-75q-30 0 -35 -30z" />
    <glyph glyph-name="aring" unicode="&#xe5;" 
d="M80 630q-5 -30 25 -30h450q30 0 35 30t-25 30h-450q-30 0 -35 -30zM40 405q-5 -30 25 -30h450q30 0 35 30t-25 30h-450q-30 0 -35 -30zM93 705q-5 -30 25 -30h450q30 0 35 30t-25 30h-450q-30 0 -35 -30zM27 330q-5 -30 25 -30h450q30 0 35 30t-25 30h-450q-30 0 -35 -30
zM14 255q-6 -30 24 -30h450q30 0 36 30q5 30 -25 30h-450q-30 0 -35 -30zM181 780q-5 -30 25 -30h300q30 0 35 30q6 30 -24 30h-300q-30 0 -36 -30zM274 30q-5 -30 25 -30h150q30 0 35 30t-25 30h-150q-30 0 -35 -30zM353 480q-5 -30 25 -30h150q30 0 35 30q6 30 -24 30
h-150q-30 0 -36 -30zM287 105q-5 -30 25 -30h150q30 0 35 30q6 30 -24 30h-150q-30 0 -36 -30zM67 555q-6 -30 24 -30h150q30 0 36 30q5 30 -25 30h-150q-30 0 -35 -30zM367 555q-6 -30 24 -30h150q30 0 36 30q5 30 -25 30h-150q-30 0 -35 -30zM-26 30q-5 -30 25 -30h150
q30 0 35 30t-25 30h-150q-30 0 -35 -30zM53 480q-5 -30 25 -30h150q30 0 35 30q6 30 -24 30h-150q-30 0 -36 -30zM12 75h150q30 0 35 30q6 30 -24 30h-150q-30 0 -36 -30q-5 -30 25 -30zM325 150h150q30 0 35 30q6 30 -24 30h-150q-30 0 -36 -30q-5 -30 25 -30zM0 180
q-5 -30 25 -30h150q30 0 35 30q6 30 -24 30h-150q-30 0 -36 -30zM195 855q-6 -30 24 -30h75q30 0 36 30q5 30 -25 30h-75q-30 0 -35 -30zM208 930q-6 -30 24 -30h75q30 0 36 30q5 30 -25 30h-75q-30 0 -35 -30zM433 930q-6 -30 24 -30h75q30 0 36 30q5 30 -25 30h-75
q-30 0 -35 -30zM296 1005q-5 -30 25 -30h150q30 0 35 30t-25 30h-150q-30 0 -35 -30zM420 855q-6 -30 24 -30h75q30 0 36 30q5 30 -25 30h-75q-30 0 -35 -30z" />
    <glyph glyph-name="ae" unicode="&#xe6;" horiz-adv-x="930" 
d="M100 630q-6 -30 24 -30h750q30 0 36 30q5 30 -25 30h-750q-30 0 -35 -30zM138 675h750q30 0 35 30t-25 30h-750q-30 0 -35 -30t25 -30zM71 300h750q30 0 36 30q5 30 -25 30h-750q-30 0 -35 -30q-6 -30 24 -30zM60 405q-5 -30 25 -30h750q30 0 35 30t-25 30h-750
q-30 0 -35 -30zM201 780q-5 -30 25 -30h675q30 0 35 30t-25 30h-675q-30 0 -35 -30zM294 30q-5 -30 25 -30h450q30 0 35 30t-25 30h-450q-30 0 -35 -30zM73 480q-5 -30 25 -30h150q30 0 35 30q6 30 -24 30h-150q-30 0 -36 -30zM-6 30q-5 -30 25 -30h150q30 0 35 30t-25 30
h-150q-30 0 -35 -30zM20 180q-5 -30 25 -30h150q30 0 35 30q6 30 -24 30h-150q-30 0 -36 -30zM86 555q-5 -30 25 -30h150q30 0 35 30q6 30 -24 30h-150q-30 0 -36 -30zM32 75h150q30 0 35 30t-25 30h-150q-30 0 -35 -30t25 -30zM307 105q-5 -30 25 -30h450q30 0 35 30
t-25 30h-450q-30 0 -35 -30zM320 180q-5 -30 25 -30h450q30 0 35 30q6 30 -24 30h-450q-30 0 -36 -30zM34 255q-6 -30 24 -30h450q30 0 36 30q5 30 -25 30h-450q-30 0 -35 -30zM373 480q-5 -30 25 -30h450q30 0 35 30q6 30 -24 30h-450q-30 0 -36 -30zM386 555
q-5 -30 25 -30h150q30 0 35 30q6 30 -24 30h-150q-30 0 -36 -30z" />
    <glyph glyph-name="ccedilla" unicode="&#xe7;" 
d="M151 600h450q30 0 35 30t-25 30h-450q-30 0 -35 -30t25 -30zM164 675h450q30 0 35 30q6 30 -24 30h-450q-30 0 -36 -30q-5 -30 25 -30zM71 150h450q30 0 36 30q5 30 -25 30h-450q-30 0 -35 -30q-6 -30 24 -30zM58 75h450q30 0 35 30q6 30 -24 30h-450q-30 0 -36 -30
q-5 -30 25 -30zM86 405q-5 -30 25 -30h150q30 0 35 30q6 30 -24 30h-150q-30 0 -36 -30zM100 480q-6 -30 24 -30h150q30 0 36 30q5 30 -25 30h-150q-30 0 -35 -30zM138 525h150q30 0 35 30t-25 30h-150q-30 0 -35 -30t25 -30zM60 255q-5 -30 25 -30h150q30 0 35 30t-25 30
h-150q-30 0 -35 -30zM73 330q-5 -30 25 -30h150q30 0 35 30t-25 30h-150q-30 0 -35 -30zM360 255q-5 -30 25 -30h150q30 0 35 30t-25 30h-150q-30 0 -35 -30zM413 555q-5 -30 25 -30h150q30 0 35 30t-25 30h-150q-30 0 -35 -30zM95 30q-5 -30 25 -30h300q30 0 35 30
q6 30 -24 30h-300q-30 0 -36 -30zM227 780q-5 -30 25 -30h300q30 0 35 30q6 30 -24 30h-300q-30 0 -36 -30zM292 -299h-150q-30 0 -24 30q5 30 35 30h150q30 0 25 -30q-6 -30 -36 -30zM341 -195q-6 -30 -36 -30h-150q-30 0 -24 30q5 30 35 30h150q30 0 25 -30zM292 -45
q-5 -30 -35 -30h-75q-30 0 -25 30t35 30h75q30 0 25 -30zM354 -120q-6 -30 -36 -30h-150q-30 0 -24 30q5 30 35 30h150q30 0 25 -30z" />
    <glyph glyph-name="egrave" unicode="&#xe8;" 
d="M221 1005q-5 -30 25 -30h75q30 0 35 30t-25 30h-75q-30 0 -35 -30zM283 930q-6 -30 24 -30h75q30 0 36 30q5 30 -25 30h-75q-30 0 -35 -30zM105 600h450q30 0 35 30t-25 30h-450q-30 0 -35 -30t25 -30zM118 675h450q30 0 35 30t-25 30h-450q-30 0 -35 -30t25 -30zM78 450
h450q30 0 35 30q6 30 -24 30h-450q-30 0 -36 -30q-5 -30 25 -30zM65 375h450q30 0 35 30t-25 30h-450q-30 0 -35 -30t25 -30zM52 300h450q30 0 35 30t-25 30h-450q-30 0 -35 -30t25 -30zM25 150h450q30 0 35 30q6 30 -24 30h-450q-30 0 -36 -30q-5 -30 25 -30zM12 75h450
q30 0 35 30q6 30 -24 30h-450q-30 0 -36 -30q-5 -30 25 -30zM14 255q-6 -30 24 -30h150q30 0 36 30q5 30 -25 30h-150q-30 0 -35 -30zM91 525h150q30 0 36 30q5 30 -25 30h-150q-30 0 -35 -30q-6 -30 24 -30zM49 30q-5 -30 25 -30h375q30 0 35 30t-25 30h-375q-30 0 -35 -30
zM181 780q-5 -30 25 -30h375q30 0 35 30q6 30 -24 30h-375q-30 0 -36 -30z" />
    <glyph glyph-name="eacute" unicode="&#xe9;" 
d="M581 1005q-5 -30 -35 -30h-75q-30 0 -25 30t35 30h75q30 0 25 -30zM493 930q-6 -30 -36 -30h-75q-30 0 -24 30q5 30 35 30h75q30 0 25 -30zM105 600h450q30 0 35 30t-25 30h-450q-30 0 -35 -30t25 -30zM118 675h450q30 0 35 30t-25 30h-450q-30 0 -35 -30t25 -30zM78 450
h450q30 0 35 30q6 30 -24 30h-450q-30 0 -36 -30q-5 -30 25 -30zM65 375h450q30 0 35 30t-25 30h-450q-30 0 -35 -30t25 -30zM52 300h450q30 0 35 30t-25 30h-450q-30 0 -35 -30t25 -30zM25 150h450q30 0 35 30q6 30 -24 30h-450q-30 0 -36 -30q-5 -30 25 -30zM12 75h450
q30 0 35 30q6 30 -24 30h-450q-30 0 -36 -30q-5 -30 25 -30zM14 255q-6 -30 24 -30h150q30 0 36 30q5 30 -25 30h-150q-30 0 -35 -30zM91 525h150q30 0 36 30q5 30 -25 30h-150q-30 0 -35 -30q-6 -30 24 -30zM49 30q-5 -30 25 -30h375q30 0 35 30t-25 30h-375q-30 0 -35 -30
zM181 780q-5 -30 25 -30h375q30 0 35 30q6 30 -24 30h-375q-30 0 -36 -30z" />
    <glyph glyph-name="ecircumflex" unicode="&#xea;" 
d="M341 1005q-5 -30 25 -30h75q30 0 35 30t-25 30h-75q-30 0 -35 -30zM253 930q-6 -30 24 -30h225q30 0 36 30q5 30 -25 30h-225q-30 0 -35 -30zM105 600h450q30 0 35 30t-25 30h-450q-30 0 -35 -30t25 -30zM118 675h450q30 0 35 30t-25 30h-450q-30 0 -35 -30t25 -30z
M78 450h450q30 0 35 30q6 30 -24 30h-450q-30 0 -36 -30q-5 -30 25 -30zM65 375h450q30 0 35 30t-25 30h-450q-30 0 -35 -30t25 -30zM52 300h450q30 0 35 30t-25 30h-450q-30 0 -35 -30t25 -30zM25 150h450q30 0 35 30q6 30 -24 30h-450q-30 0 -36 -30q-5 -30 25 -30zM12 75
h450q30 0 35 30q6 30 -24 30h-450q-30 0 -36 -30q-5 -30 25 -30zM14 255q-6 -30 24 -30h150q30 0 36 30q5 30 -25 30h-150q-30 0 -35 -30zM91 525h150q30 0 36 30q5 30 -25 30h-150q-30 0 -35 -30q-6 -30 24 -30zM49 30q-5 -30 25 -30h375q30 0 35 30t-25 30h-375
q-30 0 -35 -30zM181 780q-5 -30 25 -30h375q30 0 35 30q6 30 -24 30h-375q-30 0 -36 -30z" />
    <glyph glyph-name="edieresis" unicode="&#xeb;" 
d="M221 1005q-5 -30 25 -30h75q30 0 35 30t-25 30h-75q-30 0 -35 -30zM208 930q-6 -30 24 -30h75q30 0 36 30q5 30 -25 30h-75q-30 0 -35 -30zM446 1005q-5 -30 25 -30h75q30 0 35 30t-25 30h-75q-30 0 -35 -30zM433 930q-6 -30 24 -30h75q30 0 36 30q5 30 -25 30h-75
q-30 0 -35 -30zM105 600h450q30 0 35 30t-25 30h-450q-30 0 -35 -30t25 -30zM118 675h450q30 0 35 30t-25 30h-450q-30 0 -35 -30t25 -30zM78 450h450q30 0 35 30q6 30 -24 30h-450q-30 0 -36 -30q-5 -30 25 -30zM65 375h450q30 0 35 30t-25 30h-450q-30 0 -35 -30t25 -30z
M52 300h450q30 0 35 30t-25 30h-450q-30 0 -35 -30t25 -30zM25 150h450q30 0 35 30q6 30 -24 30h-450q-30 0 -36 -30q-5 -30 25 -30zM12 75h450q30 0 35 30q6 30 -24 30h-450q-30 0 -36 -30q-5 -30 25 -30zM14 255q-6 -30 24 -30h150q30 0 36 30q5 30 -25 30h-150
q-30 0 -35 -30zM91 525h150q30 0 36 30q5 30 -25 30h-150q-30 0 -35 -30q-6 -30 24 -30zM49 30q-5 -30 25 -30h375q30 0 35 30t-25 30h-375q-30 0 -35 -30zM181 780q-5 -30 25 -30h375q30 0 35 30q6 30 -24 30h-375q-30 0 -36 -30z" />
    <glyph glyph-name="igrave" unicode="&#xec;" horiz-adv-x="480" 
d="M221 1005q-5 -30 25 -30h75q30 0 35 30t-25 30h-75q-30 0 -35 -30zM283 930q-6 -30 24 -30h75q30 0 36 30q5 30 -25 30h-75q-30 0 -35 -30zM102 330q-5 -30 25 -30h150q30 0 35 30t-25 30h-150q-30 0 -35 -30zM115 405q-5 -30 25 -30h150q30 0 35 30t-25 30h-150
q-30 0 -35 -30zM153 450h150q30 0 35 30q6 30 -24 30h-150q-30 0 -36 -30q-5 -30 25 -30zM80 630q-5 -30 25 -30h300q30 0 35 30t-25 30h-300q-30 0 -35 -30zM93 705q-5 -30 25 -30h300q30 0 35 30t-25 30h-300q-30 0 -35 -30zM131 750h300q30 0 35 30q6 30 -24 30h-300
q-30 0 -36 -30q-5 -30 25 -30zM142 555q-6 -30 24 -30h150q30 0 36 30q5 30 -25 30h-150q-30 0 -35 -30zM113 225h150q30 0 36 30q5 30 -25 30h-150q-30 0 -35 -30q-6 -30 24 -30zM-26 30q-5 -30 25 -30h300q30 0 35 30t-25 30h-300q-30 0 -35 -30zM12 75h300q30 0 35 30
q6 30 -24 30h-300q-30 0 -36 -30q-5 -30 25 -30zM0 180q-5 -30 25 -30h300q30 0 35 30q6 30 -24 30h-300q-30 0 -36 -30z" />
    <glyph glyph-name="iacute" unicode="&#xed;" horiz-adv-x="480" 
d="M431 1005q-5 -30 -35 -30h-75q-30 0 -25 30t35 30h75q30 0 25 -30zM343 930q-6 -30 -36 -30h-75q-30 0 -24 30q5 30 35 30h75q30 0 25 -30zM312 330q-5 -30 -35 -30h-150q-30 0 -25 30t35 30h150q30 0 25 -30zM325 405q-5 -30 -35 -30h-150q-30 0 -25 30t35 30h150
q30 0 25 -30zM303 450h-150q-30 0 -25 30q6 30 36 30h150q30 0 24 -30q-5 -30 -35 -30zM440 630q-5 -30 -35 -30h-300q-30 0 -25 30t35 30h300q30 0 25 -30zM453 705q-5 -30 -35 -30h-300q-30 0 -25 30t35 30h300q30 0 25 -30zM431 750h-300q-30 0 -25 30q6 30 36 30h300
q30 0 24 -30q-5 -30 -35 -30zM352 555q-6 -30 -36 -30h-150q-30 0 -24 30q5 30 35 30h150q30 0 25 -30zM263 225h-150q-30 0 -24 30q5 30 35 30h150q30 0 25 -30q-6 -30 -36 -30zM334 30q-5 -30 -35 -30h-300q-30 0 -25 30t35 30h300q30 0 25 -30zM312 75h-300q-30 0 -25 30
q6 30 36 30h300q30 0 24 -30q-5 -30 -35 -30zM360 180q-5 -30 -35 -30h-300q-30 0 -25 30q6 30 36 30h300q30 0 24 -30z" />
    <glyph glyph-name="icircumflex" unicode="&#xee;" horiz-adv-x="480" 
d="M312 330q-5 -30 -35 -30h-150q-30 0 -25 30t35 30h150q30 0 25 -30zM325 405q-5 -30 -35 -30h-150q-30 0 -25 30t35 30h150q30 0 25 -30zM303 450h-150q-30 0 -25 30q6 30 36 30h150q30 0 24 -30q-5 -30 -35 -30zM440 630q-5 -30 -35 -30h-300q-30 0 -25 30t35 30h300
q30 0 25 -30zM453 705q-5 -30 -35 -30h-300q-30 0 -25 30t35 30h300q30 0 25 -30zM431 750h-300q-30 0 -25 30q6 30 36 30h300q30 0 24 -30q-5 -30 -35 -30zM352 555q-6 -30 -36 -30h-150q-30 0 -24 30q5 30 35 30h150q30 0 25 -30zM263 225h-150q-30 0 -24 30q5 30 35 30
h150q30 0 25 -30q-6 -30 -36 -30zM334 30q-5 -30 -35 -30h-300q-30 0 -25 30t35 30h300q30 0 25 -30zM312 75h-300q-30 0 -25 30q6 30 36 30h300q30 0 24 -30q-5 -30 -35 -30zM360 180q-5 -30 -35 -30h-300q-30 0 -25 30q6 30 36 30h300q30 0 24 -30zM266 1005
q-5 -30 25 -30h75q30 0 35 30t-25 30h-75q-30 0 -35 -30zM178 930q-6 -30 24 -30h225q30 0 36 30q5 30 -25 30h-225q-30 0 -35 -30z" />
    <glyph glyph-name="idieresis" unicode="&#xef;" horiz-adv-x="480" 
d="M102 330q-5 -30 25 -30h150q30 0 35 30t-25 30h-150q-30 0 -35 -30zM115 405q-5 -30 25 -30h150q30 0 35 30t-25 30h-150q-30 0 -35 -30zM153 450h150q30 0 35 30q6 30 -24 30h-150q-30 0 -36 -30q-5 -30 25 -30zM80 630q-5 -30 25 -30h300q30 0 35 30t-25 30h-300
q-30 0 -35 -30zM93 705q-5 -30 25 -30h300q30 0 35 30t-25 30h-300q-30 0 -35 -30zM131 750h300q30 0 35 30q6 30 -24 30h-300q-30 0 -36 -30q-5 -30 25 -30zM142 555q-6 -30 24 -30h150q30 0 36 30q5 30 -25 30h-150q-30 0 -35 -30zM113 225h150q30 0 36 30q5 30 -25 30
h-150q-30 0 -35 -30q-6 -30 24 -30zM-26 30q-5 -30 25 -30h300q30 0 35 30t-25 30h-300q-30 0 -35 -30zM12 75h300q30 0 35 30q6 30 -24 30h-300q-30 0 -36 -30q-5 -30 25 -30zM0 180q-5 -30 25 -30h300q30 0 35 30q6 30 -24 30h-300q-30 0 -36 -30zM146 1005q-5 -30 25 -30
h75q30 0 35 30t-25 30h-75q-30 0 -35 -30zM133 930q-6 -30 24 -30h75q30 0 36 30q5 30 -25 30h-75q-30 0 -35 -30zM371 1005q-5 -30 25 -30h75q30 0 35 30t-25 30h-75q-30 0 -35 -30zM358 930q-6 -30 24 -30h75q30 0 36 30q5 30 -25 30h-75q-30 0 -35 -30z" />
    <glyph glyph-name="eth" unicode="&#xf0;" 
d="M124 600h450q30 0 36 30q5 30 -25 30h-450q-30 0 -35 -30q-6 -30 24 -30zM138 675h450q30 0 35 30t-25 30h-450q-30 0 -35 -30t25 -30zM45 150h450q30 0 35 30q6 30 -24 30h-450q-30 0 -36 -30q-5 -30 25 -30zM32 75h450q30 0 35 30t-25 30h-450q-30 0 -35 -30t25 -30z
M0 405q-5 -30 25 -30h270q30 0 35 30t-25 30h-270q-30 0 -35 -30zM13 480q-5 -30 25 -30h270q30 0 35 30q6 30 -24 30h-270q-30 0 -36 -30zM111 525h150q30 0 35 30q6 30 -24 30h-150q-30 0 -36 -30q-5 -30 25 -30zM360 405q-5 -30 25 -30h150q30 0 35 30t-25 30h-150
q-30 0 -35 -30zM373 480q-5 -30 25 -30h150q30 0 35 30q6 30 -24 30h-150q-30 0 -36 -30zM411 525h150q30 0 35 30q6 30 -24 30h-150q-30 0 -36 -30q-5 -30 25 -30zM34 255q-6 -30 24 -30h150q30 0 36 30q5 30 -25 30h-150q-30 0 -35 -30zM-13 330q-6 -30 24 -30h270
q30 0 36 30q5 30 -25 30h-270q-30 0 -35 -30zM334 255q-6 -30 24 -30h150q30 0 36 30q5 30 -25 30h-150q-30 0 -35 -30zM347 330q-6 -30 24 -30h150q30 0 36 30q5 30 -25 30h-150q-30 0 -35 -30zM126 780q-5 -30 25 -30h375q30 0 35 30t-25 30h-375q-30 0 -35 -30zM-6 30
q-5 -30 25 -30h375q30 0 35 30t-25 30h-375q-30 0 -35 -30z" />
    <glyph glyph-name="ntilde" unicode="&#xf1;" 
d="M214 930q-5 -30 25 -30h300q30 0 35 30q6 30 -24 30h-300q-30 0 -36 -30zM111 600h450q30 0 35 30q6 30 -24 30h-450q-30 0 -36 -30q-5 -30 25 -30zM124 675h450q30 0 36 30q5 30 -25 30h-450q-30 0 -35 -30q-6 -30 24 -30zM34 330q-6 -30 24 -30h150q30 0 36 30
q5 30 -25 30h-150q-30 0 -35 -30zM47 405q-6 -30 24 -30h150q30 0 36 30q5 30 -25 30h-150q-30 0 -35 -30zM85 450h150q30 0 35 30t-25 30h-150q-30 0 -35 -30t25 -30zM334 330q-6 -30 24 -30h150q30 0 36 30q5 30 -25 30h-150q-30 0 -35 -30zM347 405q-6 -30 24 -30h150
q30 0 36 30q5 30 -25 30h-150q-30 0 -35 -30zM385 450h150q30 0 35 30t-25 30h-150q-30 0 -35 -30t25 -30zM73 555q-5 -30 25 -30h150q30 0 35 30q6 30 -24 30h-150q-30 0 -36 -30zM398 525h150q30 0 35 30q6 30 -24 30h-150q-30 0 -36 -30q-5 -30 25 -30zM-19 30
q-6 -30 24 -30h150q30 0 36 30q5 30 -25 30h-150q-30 0 -35 -30zM-6 105q-5 -30 25 -30h150q30 0 35 30t-25 30h-150q-30 0 -35 -30zM32 150h150q30 0 35 30t-25 30h-150q-30 0 -35 -30t25 -30zM281 30q-6 -30 24 -30h150q30 0 36 30q5 30 -25 30h-150q-30 0 -35 -30z
M294 105q-5 -30 25 -30h150q30 0 35 30t-25 30h-150q-30 0 -35 -30zM332 150h150q30 0 35 30t-25 30h-150q-30 0 -35 -30t25 -30zM20 255q-5 -30 25 -30h150q30 0 35 30q6 30 -24 30h-150q-30 0 -36 -30zM345 225h150q30 0 35 30q6 30 -24 30h-150q-30 0 -36 -30
q-5 -30 25 -30zM113 780q-5 -30 25 -30h375q30 0 35 30t-25 30h-375q-30 0 -35 -30z" />
    <glyph glyph-name="ograve" unicode="&#xf2;" 
d="M221 1005q-5 -30 25 -30h75q30 0 35 30t-25 30h-75q-30 0 -35 -30zM283 930q-6 -30 24 -30h75q30 0 36 30q5 30 -25 30h-75q-30 0 -35 -30zM105 600h450q30 0 35 30t-25 30h-450q-30 0 -35 -30t25 -30zM118 675h450q30 0 35 30t-25 30h-450q-30 0 -35 -30t25 -30zM12 75
h450q30 0 35 30q6 30 -24 30h-450q-30 0 -36 -30q-5 -30 25 -30zM25 150h450q30 0 35 30q6 30 -24 30h-450q-30 0 -36 -30q-5 -30 25 -30zM27 330q-5 -30 25 -30h150q30 0 35 30t-25 30h-150q-30 0 -35 -30zM40 405q-5 -30 25 -30h150q30 0 35 30t-25 30h-150q-30 0 -35 -30
zM78 450h150q30 0 35 30q6 30 -24 30h-150q-30 0 -36 -30q-5 -30 25 -30zM327 330q-5 -30 25 -30h150q30 0 35 30t-25 30h-150q-30 0 -35 -30zM340 405q-5 -30 25 -30h150q30 0 35 30t-25 30h-150q-30 0 -35 -30zM378 450h150q30 0 35 30q6 30 -24 30h-150q-30 0 -36 -30
q-5 -30 25 -30zM67 555q-6 -30 24 -30h150q30 0 36 30q5 30 -25 30h-150q-30 0 -35 -30zM391 525h150q30 0 36 30q5 30 -25 30h-150q-30 0 -35 -30q-6 -30 24 -30zM14 255q-6 -30 24 -30h150q30 0 36 30q5 30 -25 30h-150q-30 0 -35 -30zM338 225h150q30 0 36 30
q5 30 -25 30h-150q-30 0 -35 -30q-6 -30 24 -30zM181 780q-5 -30 25 -30h300q30 0 35 30q6 30 -24 30h-300q-30 0 -36 -30zM49 30q-5 -30 25 -30h300q30 0 35 30t-25 30h-300q-30 0 -35 -30z" />
    <glyph glyph-name="oacute" unicode="&#xf3;" 
d="M581 1005q-5 -30 -35 -30h-75q-30 0 -25 30t35 30h75q30 0 25 -30zM493 930q-6 -30 -36 -30h-75q-30 0 -24 30q5 30 35 30h75q30 0 25 -30zM105 600h450q30 0 35 30t-25 30h-450q-30 0 -35 -30t25 -30zM118 675h450q30 0 35 30t-25 30h-450q-30 0 -35 -30t25 -30zM12 75
h450q30 0 35 30q6 30 -24 30h-450q-30 0 -36 -30q-5 -30 25 -30zM25 150h450q30 0 35 30q6 30 -24 30h-450q-30 0 -36 -30q-5 -30 25 -30zM27 330q-5 -30 25 -30h150q30 0 35 30t-25 30h-150q-30 0 -35 -30zM40 405q-5 -30 25 -30h150q30 0 35 30t-25 30h-150q-30 0 -35 -30
zM78 450h150q30 0 35 30q6 30 -24 30h-150q-30 0 -36 -30q-5 -30 25 -30zM327 330q-5 -30 25 -30h150q30 0 35 30t-25 30h-150q-30 0 -35 -30zM340 405q-5 -30 25 -30h150q30 0 35 30t-25 30h-150q-30 0 -35 -30zM378 450h150q30 0 35 30q6 30 -24 30h-150q-30 0 -36 -30
q-5 -30 25 -30zM67 555q-6 -30 24 -30h150q30 0 36 30q5 30 -25 30h-150q-30 0 -35 -30zM391 525h150q30 0 36 30q5 30 -25 30h-150q-30 0 -35 -30q-6 -30 24 -30zM14 255q-6 -30 24 -30h150q30 0 36 30q5 30 -25 30h-150q-30 0 -35 -30zM338 225h150q30 0 36 30
q5 30 -25 30h-150q-30 0 -35 -30q-6 -30 24 -30zM181 780q-5 -30 25 -30h300q30 0 35 30q6 30 -24 30h-300q-30 0 -36 -30zM49 30q-5 -30 25 -30h300q30 0 35 30t-25 30h-300q-30 0 -35 -30z" />
    <glyph glyph-name="ocircumflex" unicode="&#xf4;" 
d="M341 1005q-5 -30 25 -30h75q30 0 35 30t-25 30h-75q-30 0 -35 -30zM253 930q-6 -30 24 -30h225q30 0 36 30q5 30 -25 30h-225q-30 0 -35 -30zM105 600h450q30 0 35 30t-25 30h-450q-30 0 -35 -30t25 -30zM118 675h450q30 0 35 30t-25 30h-450q-30 0 -35 -30t25 -30z
M12 75h450q30 0 35 30q6 30 -24 30h-450q-30 0 -36 -30q-5 -30 25 -30zM25 150h450q30 0 35 30q6 30 -24 30h-450q-30 0 -36 -30q-5 -30 25 -30zM27 330q-5 -30 25 -30h150q30 0 35 30t-25 30h-150q-30 0 -35 -30zM40 405q-5 -30 25 -30h150q30 0 35 30t-25 30h-150
q-30 0 -35 -30zM78 450h150q30 0 35 30q6 30 -24 30h-150q-30 0 -36 -30q-5 -30 25 -30zM327 330q-5 -30 25 -30h150q30 0 35 30t-25 30h-150q-30 0 -35 -30zM340 405q-5 -30 25 -30h150q30 0 35 30t-25 30h-150q-30 0 -35 -30zM378 450h150q30 0 35 30q6 30 -24 30h-150
q-30 0 -36 -30q-5 -30 25 -30zM67 555q-6 -30 24 -30h150q30 0 36 30q5 30 -25 30h-150q-30 0 -35 -30zM391 525h150q30 0 36 30q5 30 -25 30h-150q-30 0 -35 -30q-6 -30 24 -30zM14 255q-6 -30 24 -30h150q30 0 36 30q5 30 -25 30h-150q-30 0 -35 -30zM338 225h150
q30 0 36 30q5 30 -25 30h-150q-30 0 -35 -30q-6 -30 24 -30zM181 780q-5 -30 25 -30h300q30 0 35 30q6 30 -24 30h-300q-30 0 -36 -30zM49 30q-5 -30 25 -30h300q30 0 35 30t-25 30h-300q-30 0 -35 -30z" />
    <glyph glyph-name="otilde" unicode="&#xf5;" 
d="M214 930q-5 -30 25 -30h300q30 0 35 30q6 30 -24 30h-300q-30 0 -36 -30zM111 600h450q30 0 35 30q6 30 -24 30h-450q-30 0 -36 -30q-5 -30 25 -30zM124 675h450q30 0 36 30q5 30 -25 30h-450q-30 0 -35 -30q-6 -30 24 -30zM19 75h450q30 0 35 30t-25 30h-450
q-30 0 -35 -30t25 -30zM32 150h450q30 0 35 30t-25 30h-450q-30 0 -35 -30t25 -30zM34 330q-6 -30 24 -30h150q30 0 36 30q5 30 -25 30h-150q-30 0 -35 -30zM47 405q-6 -30 24 -30h150q30 0 36 30q5 30 -25 30h-150q-30 0 -35 -30zM85 450h150q30 0 35 30t-25 30h-150
q-30 0 -35 -30t25 -30zM334 330q-6 -30 24 -30h150q30 0 36 30q5 30 -25 30h-150q-30 0 -35 -30zM347 405q-6 -30 24 -30h150q30 0 36 30q5 30 -25 30h-150q-30 0 -35 -30zM385 450h150q30 0 35 30t-25 30h-150q-30 0 -35 -30t25 -30zM73 555q-5 -30 25 -30h150q30 0 35 30
q6 30 -24 30h-150q-30 0 -36 -30zM398 525h150q30 0 35 30q6 30 -24 30h-150q-30 0 -36 -30q-5 -30 25 -30zM20 255q-5 -30 25 -30h150q30 0 35 30q6 30 -24 30h-150q-30 0 -36 -30zM345 225h150q30 0 35 30q6 30 -24 30h-150q-30 0 -36 -30q-5 -30 25 -30zM188 780
q-5 -30 25 -30h300q30 0 35 30t-25 30h-300q-30 0 -35 -30zM56 30q-6 -30 24 -30h300q30 0 36 30q5 30 -25 30h-300q-30 0 -35 -30z" />
    <glyph glyph-name="odieresis" unicode="&#xf6;" 
d="M221 1005q-5 -30 25 -30h75q30 0 35 30t-25 30h-75q-30 0 -35 -30zM208 930q-6 -30 24 -30h75q30 0 36 30q5 30 -25 30h-75q-30 0 -35 -30zM446 1005q-5 -30 25 -30h75q30 0 35 30t-25 30h-75q-30 0 -35 -30zM433 930q-6 -30 24 -30h75q30 0 36 30q5 30 -25 30h-75
q-30 0 -35 -30zM105 600h450q30 0 35 30t-25 30h-450q-30 0 -35 -30t25 -30zM118 675h450q30 0 35 30t-25 30h-450q-30 0 -35 -30t25 -30zM12 75h450q30 0 35 30q6 30 -24 30h-450q-30 0 -36 -30q-5 -30 25 -30zM25 150h450q30 0 35 30q6 30 -24 30h-450q-30 0 -36 -30
q-5 -30 25 -30zM27 330q-5 -30 25 -30h150q30 0 35 30t-25 30h-150q-30 0 -35 -30zM40 405q-5 -30 25 -30h150q30 0 35 30t-25 30h-150q-30 0 -35 -30zM78 450h150q30 0 35 30q6 30 -24 30h-150q-30 0 -36 -30q-5 -30 25 -30zM327 330q-5 -30 25 -30h150q30 0 35 30t-25 30
h-150q-30 0 -35 -30zM340 405q-5 -30 25 -30h150q30 0 35 30t-25 30h-150q-30 0 -35 -30zM378 450h150q30 0 35 30q6 30 -24 30h-150q-30 0 -36 -30q-5 -30 25 -30zM67 555q-6 -30 24 -30h150q30 0 36 30q5 30 -25 30h-150q-30 0 -35 -30zM391 525h150q30 0 36 30
q5 30 -25 30h-150q-30 0 -35 -30q-6 -30 24 -30zM14 255q-6 -30 24 -30h150q30 0 36 30q5 30 -25 30h-150q-30 0 -35 -30zM338 225h150q30 0 36 30q5 30 -25 30h-150q-30 0 -35 -30q-6 -30 24 -30zM181 780q-5 -30 25 -30h300q30 0 35 30q6 30 -24 30h-300q-30 0 -36 -30z
M49 30q-5 -30 25 -30h300q30 0 35 30t-25 30h-300q-30 0 -35 -30z" />
    <glyph glyph-name="divide" unicode="&#xf7;" 
d="M60 405q-5 -30 25 -30h450q30 0 35 30t-25 30h-450q-30 0 -35 -30zM73 480q-5 -30 25 -30h450q30 0 35 30t-25 30h-450q-30 0 -35 -30zM71 300h450q30 0 36 30q5 30 -25 30h-450q-30 0 -35 -30q-6 -30 24 -30zM311 810h150q30 0 25 -30t-35 -30h-150q-30 0 -25 30t35 30z
M298 735h150q30 0 25 -30t-35 -30h-150q-30 0 -25 30t35 30zM250 631q5 30 35 30h150q30 0 25 -30q-6 -30 -36 -30h-150q-30 0 -24 30zM206 210h150q30 0 24 -30q-5 -30 -35 -30h-150q-30 0 -25 30q6 30 36 30zM192 135h150q30 0 25 -30t-35 -30h-150q-30 0 -25 30t35 30z
M144 31q5 30 35 30h150q30 0 25 -30t-35 -30h-150q-30 0 -25 30z" />
    <glyph glyph-name="oslash" unicode="&#xf8;" 
d="M113 705q-5 -30 25 -30h450q30 0 35 30t-25 30h-450q-30 0 -35 -30zM7 105q-5 -30 25 -30h450q30 0 35 30t-25 30h-450q-30 0 -35 -30zM95 180q-5 -30 25 -30h375q30 0 35 30q6 30 -24 30h-375q-30 0 -36 -30zM100 630q-6 -30 24 -30h375q30 0 36 30q5 30 -25 30h-375
q-30 0 -35 -30zM34 255q-6 -30 24 -30h150q30 0 36 30q5 30 -25 30h-150q-30 0 -35 -30zM73 480q-5 -30 25 -30h150q30 0 35 30q6 30 -24 30h-150q-30 0 -36 -30zM411 525h150q30 0 35 30q6 30 -24 30h-150q-30 0 -36 -30q-5 -30 25 -30zM60 405q-5 -30 25 -30h150
q30 0 35 30t-25 30h-150q-30 0 -35 -30zM219 30q-5 -30 25 -30h150q30 0 35 30t-25 30h-150q-30 0 -35 -30zM334 255q-6 -30 24 -30h150q30 0 36 30q5 30 -25 30h-150q-30 0 -35 -30zM360 405q-5 -30 25 -30h150q30 0 35 30t-25 30h-150q-30 0 -35 -30zM201 780
q-5 -30 25 -30h150q30 0 35 30t-25 30h-150q-30 0 -35 -30zM86 555q-5 -30 25 -30h150q30 0 35 30q6 30 -24 30h-150q-30 0 -36 -30zM347 330q-6 -30 24 -30h150q30 0 36 30q5 30 -25 30h-150q-30 0 -35 -30zM71 300h150q30 0 36 30q5 30 -25 30h-150q-30 0 -35 -30
q-6 -30 24 -30zM398 450h150q30 0 35 30q6 30 -24 30h-150q-30 0 -36 -30q-5 -30 25 -30zM501 780q-5 -30 25 -30h75q30 0 35 30t-25 30h-75q-30 0 -35 -30zM-6 30q-5 -30 25 -30h75q30 0 35 30t-25 30h-75q-30 0 -35 -30z" />
    <glyph glyph-name="ugrave" unicode="&#xf9;" 
d="M221 1005q-5 -30 25 -30h75q30 0 35 30t-25 30h-75q-30 0 -35 -30zM283 930q-6 -30 24 -30h75q30 0 36 30q5 30 -25 30h-75q-30 0 -35 -30zM12 75h450q30 0 35 30q6 30 -24 30h-450q-30 0 -36 -30q-5 -30 25 -30zM25 150h450q30 0 35 30q6 30 -24 30h-450q-30 0 -36 -30
q-5 -30 25 -30zM14 255q-6 -30 24 -30h150q30 0 36 30q5 30 -25 30h-150q-30 0 -35 -30zM27 330q-5 -30 25 -30h150q30 0 35 30t-25 30h-150q-30 0 -35 -30zM65 375h150q30 0 35 30t-25 30h-150q-30 0 -35 -30t25 -30zM78 450h150q30 0 35 30q6 30 -24 30h-150
q-30 0 -36 -30q-5 -30 25 -30zM314 255q-6 -30 24 -30h150q30 0 36 30q5 30 -25 30h-150q-30 0 -35 -30zM327 330q-5 -30 25 -30h150q30 0 35 30t-25 30h-150q-30 0 -35 -30zM365 375h150q30 0 35 30t-25 30h-150q-30 0 -35 -30t25 -30zM378 450h150q30 0 35 30q6 30 -24 30
h-150q-30 0 -36 -30q-5 -30 25 -30zM367 555q-6 -30 24 -30h150q30 0 36 30q5 30 -25 30h-150q-30 0 -35 -30zM380 630q-5 -30 25 -30h150q30 0 35 30t-25 30h-150q-30 0 -35 -30zM418 675h150q30 0 35 30t-25 30h-150q-30 0 -35 -30t25 -30zM431 750h150q30 0 35 30
q6 30 -24 30h-150q-30 0 -36 -30q-5 -30 25 -30zM67 555q-6 -30 24 -30h150q30 0 36 30q5 30 -25 30h-150q-30 0 -35 -30zM80 630q-5 -30 25 -30h150q30 0 35 30t-25 30h-150q-30 0 -35 -30zM118 675h150q30 0 35 30t-25 30h-150q-30 0 -35 -30t25 -30zM131 750h150
q30 0 35 30q6 30 -24 30h-150q-30 0 -36 -30q-5 -30 25 -30zM49 30q-5 -30 25 -30h300q30 0 35 30t-25 30h-300q-30 0 -35 -30z" />
    <glyph glyph-name="uacute" unicode="&#xfa;" 
d="M581 1005q-5 -30 -35 -30h-75q-30 0 -25 30t35 30h75q30 0 25 -30zM493 930q-6 -30 -36 -30h-75q-30 0 -24 30q5 30 35 30h75q30 0 25 -30zM12 75h450q30 0 35 30q6 30 -24 30h-450q-30 0 -36 -30q-5 -30 25 -30zM25 150h450q30 0 35 30q6 30 -24 30h-450q-30 0 -36 -30
q-5 -30 25 -30zM14 255q-6 -30 24 -30h150q30 0 36 30q5 30 -25 30h-150q-30 0 -35 -30zM27 330q-5 -30 25 -30h150q30 0 35 30t-25 30h-150q-30 0 -35 -30zM65 375h150q30 0 35 30t-25 30h-150q-30 0 -35 -30t25 -30zM78 450h150q30 0 35 30q6 30 -24 30h-150
q-30 0 -36 -30q-5 -30 25 -30zM314 255q-6 -30 24 -30h150q30 0 36 30q5 30 -25 30h-150q-30 0 -35 -30zM327 330q-5 -30 25 -30h150q30 0 35 30t-25 30h-150q-30 0 -35 -30zM365 375h150q30 0 35 30t-25 30h-150q-30 0 -35 -30t25 -30zM378 450h150q30 0 35 30q6 30 -24 30
h-150q-30 0 -36 -30q-5 -30 25 -30zM367 555q-6 -30 24 -30h150q30 0 36 30q5 30 -25 30h-150q-30 0 -35 -30zM380 630q-5 -30 25 -30h150q30 0 35 30t-25 30h-150q-30 0 -35 -30zM418 675h150q30 0 35 30t-25 30h-150q-30 0 -35 -30t25 -30zM431 750h150q30 0 35 30
q6 30 -24 30h-150q-30 0 -36 -30q-5 -30 25 -30zM67 555q-6 -30 24 -30h150q30 0 36 30q5 30 -25 30h-150q-30 0 -35 -30zM80 630q-5 -30 25 -30h150q30 0 35 30t-25 30h-150q-30 0 -35 -30zM118 675h150q30 0 35 30t-25 30h-150q-30 0 -35 -30t25 -30zM131 750h150
q30 0 35 30q6 30 -24 30h-150q-30 0 -36 -30q-5 -30 25 -30zM49 30q-5 -30 25 -30h300q30 0 35 30t-25 30h-300q-30 0 -35 -30z" />
    <glyph glyph-name="ucircumflex" unicode="&#xfb;" 
d="M341 1005q-5 -30 25 -30h75q30 0 35 30t-25 30h-75q-30 0 -35 -30zM253 930q-6 -30 24 -30h225q30 0 36 30q5 30 -25 30h-225q-30 0 -35 -30zM12 75h450q30 0 35 30q6 30 -24 30h-450q-30 0 -36 -30q-5 -30 25 -30zM25 150h450q30 0 35 30q6 30 -24 30h-450
q-30 0 -36 -30q-5 -30 25 -30zM14 255q-6 -30 24 -30h150q30 0 36 30q5 30 -25 30h-150q-30 0 -35 -30zM27 330q-5 -30 25 -30h150q30 0 35 30t-25 30h-150q-30 0 -35 -30zM65 375h150q30 0 35 30t-25 30h-150q-30 0 -35 -30t25 -30zM78 450h150q30 0 35 30q6 30 -24 30
h-150q-30 0 -36 -30q-5 -30 25 -30zM314 255q-6 -30 24 -30h150q30 0 36 30q5 30 -25 30h-150q-30 0 -35 -30zM327 330q-5 -30 25 -30h150q30 0 35 30t-25 30h-150q-30 0 -35 -30zM365 375h150q30 0 35 30t-25 30h-150q-30 0 -35 -30t25 -30zM378 450h150q30 0 35 30
q6 30 -24 30h-150q-30 0 -36 -30q-5 -30 25 -30zM367 555q-6 -30 24 -30h150q30 0 36 30q5 30 -25 30h-150q-30 0 -35 -30zM380 630q-5 -30 25 -30h150q30 0 35 30t-25 30h-150q-30 0 -35 -30zM418 675h150q30 0 35 30t-25 30h-150q-30 0 -35 -30t25 -30zM431 750h150
q30 0 35 30q6 30 -24 30h-150q-30 0 -36 -30q-5 -30 25 -30zM67 555q-6 -30 24 -30h150q30 0 36 30q5 30 -25 30h-150q-30 0 -35 -30zM80 630q-5 -30 25 -30h150q30 0 35 30t-25 30h-150q-30 0 -35 -30zM118 675h150q30 0 35 30t-25 30h-150q-30 0 -35 -30t25 -30zM131 750
h150q30 0 35 30q6 30 -24 30h-150q-30 0 -36 -30q-5 -30 25 -30zM49 30q-5 -30 25 -30h300q30 0 35 30t-25 30h-300q-30 0 -35 -30z" />
    <glyph glyph-name="udieresis" unicode="&#xfc;" 
d="M221 1005q-5 -30 25 -30h75q30 0 35 30t-25 30h-75q-30 0 -35 -30zM208 930q-6 -30 24 -30h75q30 0 36 30q5 30 -25 30h-75q-30 0 -35 -30zM446 1005q-5 -30 25 -30h75q30 0 35 30t-25 30h-75q-30 0 -35 -30zM433 930q-6 -30 24 -30h75q30 0 36 30q5 30 -25 30h-75
q-30 0 -35 -30zM12 75h450q30 0 35 30q6 30 -24 30h-450q-30 0 -36 -30q-5 -30 25 -30zM25 150h450q30 0 35 30q6 30 -24 30h-450q-30 0 -36 -30q-5 -30 25 -30zM14 255q-6 -30 24 -30h150q30 0 36 30q5 30 -25 30h-150q-30 0 -35 -30zM27 330q-5 -30 25 -30h150q30 0 35 30
t-25 30h-150q-30 0 -35 -30zM65 375h150q30 0 35 30t-25 30h-150q-30 0 -35 -30t25 -30zM78 450h150q30 0 35 30q6 30 -24 30h-150q-30 0 -36 -30q-5 -30 25 -30zM314 255q-6 -30 24 -30h150q30 0 36 30q5 30 -25 30h-150q-30 0 -35 -30zM327 330q-5 -30 25 -30h150
q30 0 35 30t-25 30h-150q-30 0 -35 -30zM365 375h150q30 0 35 30t-25 30h-150q-30 0 -35 -30t25 -30zM378 450h150q30 0 35 30q6 30 -24 30h-150q-30 0 -36 -30q-5 -30 25 -30zM367 555q-6 -30 24 -30h150q30 0 36 30q5 30 -25 30h-150q-30 0 -35 -30zM380 630
q-5 -30 25 -30h150q30 0 35 30t-25 30h-150q-30 0 -35 -30zM418 675h150q30 0 35 30t-25 30h-150q-30 0 -35 -30t25 -30zM431 750h150q30 0 35 30q6 30 -24 30h-150q-30 0 -36 -30q-5 -30 25 -30zM67 555q-6 -30 24 -30h150q30 0 36 30q5 30 -25 30h-150q-30 0 -35 -30z
M80 630q-5 -30 25 -30h150q30 0 35 30t-25 30h-150q-30 0 -35 -30zM118 675h150q30 0 35 30t-25 30h-150q-30 0 -35 -30t25 -30zM131 750h150q30 0 35 30q6 30 -24 30h-150q-30 0 -36 -30q-5 -30 25 -30zM49 30q-5 -30 25 -30h300q30 0 35 30t-25 30h-300q-30 0 -35 -30z
" />
    <glyph glyph-name="yacute" unicode="&#xfd;" 
d="M581 1005q-5 -30 -35 -30h-75q-30 0 -25 30t35 30h75q30 0 25 -30zM493 930q-6 -30 -36 -30h-75q-30 0 -24 30q5 30 35 30h75q30 0 25 -30zM65 375h450q30 0 35 30t-25 30h-450q-30 0 -35 -30t25 -30zM78 450h450q30 0 35 30q6 30 -24 30h-450q-30 0 -36 -30
q-5 -30 25 -30zM124 30q-5 -30 25 -30h150q30 0 35 30t-25 30h-150q-30 0 -35 -30zM137 105q-5 -30 25 -30h150q30 0 35 30q6 30 -24 30h-150q-30 0 -36 -30zM175 150h150q30 0 35 30q6 30 -24 30h-150q-30 0 -36 -30q-5 -30 25 -30zM188 225h150q30 0 36 30q5 30 -25 30
h-150q-30 0 -35 -30q-6 -30 24 -30zM67 555q-6 -30 24 -30h150q30 0 36 30q5 30 -25 30h-150q-30 0 -35 -30zM80 630q-5 -30 25 -30h150q30 0 35 30t-25 30h-150q-30 0 -35 -30zM118 675h150q30 0 35 30t-25 30h-150q-30 0 -35 -30t25 -30zM131 750h150q30 0 35 30
q6 30 -24 30h-150q-30 0 -36 -30q-5 -30 25 -30zM367 555q-6 -30 24 -30h150q30 0 36 30q5 30 -25 30h-150q-30 0 -35 -30zM380 630q-5 -30 25 -30h150q30 0 35 30t-25 30h-150q-30 0 -35 -30zM418 675h150q30 0 35 30t-25 30h-150q-30 0 -35 -30t25 -30zM431 750h150
q30 0 35 30q6 30 -24 30h-150q-30 0 -36 -30q-5 -30 25 -30zM102 330q-5 -30 25 -30h300q30 0 35 30t-25 30h-300q-30 0 -35 -30z" />
    <glyph glyph-name="thorn" unicode="&#xfe;" 
d="M98 450h450q30 0 35 30q6 30 -24 30h-450q-30 0 -36 -30q-5 -30 25 -30zM111 525h450q30 0 35 30q6 30 -24 30h-450q-30 0 -36 -30q-5 -30 25 -30zM58 225h450q30 0 36 30q5 30 -25 30h-450q-30 0 -35 -30q-6 -30 24 -30zM71 300h450q30 0 36 30q5 30 -25 30h-450
q-30 0 -35 -30q-6 -30 24 -30zM19 0h150q30 0 35 30t-25 30h-150q-30 0 -35 -30t25 -30zM7 105q-5 -30 25 -30h150q30 0 35 30t-25 30h-150q-30 0 -35 -30zM60 405q-5 -30 25 -30h150q30 0 35 30t-25 30h-150q-30 0 -35 -30zM360 405q-5 -30 25 -30h150q30 0 35 30t-25 30
h-150q-30 0 -35 -30zM20 180q-5 -30 25 -30h375q30 0 35 30q6 30 -24 30h-375q-30 0 -36 -30zM100 630q-6 -30 24 -30h375q30 0 36 30q5 30 -25 30h-375q-30 0 -35 -30zM113 705q-5 -30 25 -30h150q30 0 35 30t-25 30h-150q-30 0 -35 -30zM126 780q-5 -30 25 -30h150
q30 0 35 30t-25 30h-150q-30 0 -35 -30z" />
    <glyph glyph-name="ydieresis" unicode="&#xff;" 
d="M221 1005q-5 -30 25 -30h75q30 0 35 30t-25 30h-75q-30 0 -35 -30zM208 930q-6 -30 24 -30h75q30 0 36 30q5 30 -25 30h-75q-30 0 -35 -30zM446 1005q-5 -30 25 -30h75q30 0 35 30t-25 30h-75q-30 0 -35 -30zM433 930q-6 -30 24 -30h75q30 0 36 30q5 30 -25 30h-75
q-30 0 -35 -30zM65 375h450q30 0 35 30t-25 30h-450q-30 0 -35 -30t25 -30zM78 450h450q30 0 35 30q6 30 -24 30h-450q-30 0 -36 -30q-5 -30 25 -30zM124 30q-5 -30 25 -30h150q30 0 35 30t-25 30h-150q-30 0 -35 -30zM137 105q-5 -30 25 -30h150q30 0 35 30q6 30 -24 30
h-150q-30 0 -36 -30zM175 150h150q30 0 35 30q6 30 -24 30h-150q-30 0 -36 -30q-5 -30 25 -30zM188 225h150q30 0 36 30q5 30 -25 30h-150q-30 0 -35 -30q-6 -30 24 -30zM67 555q-6 -30 24 -30h150q30 0 36 30q5 30 -25 30h-150q-30 0 -35 -30zM80 630q-5 -30 25 -30h150
q30 0 35 30t-25 30h-150q-30 0 -35 -30zM118 675h150q30 0 35 30t-25 30h-150q-30 0 -35 -30t25 -30zM131 750h150q30 0 35 30q6 30 -24 30h-150q-30 0 -36 -30q-5 -30 25 -30zM367 555q-6 -30 24 -30h150q30 0 36 30q5 30 -25 30h-150q-30 0 -35 -30zM380 630
q-5 -30 25 -30h150q30 0 35 30t-25 30h-150q-30 0 -35 -30zM418 675h150q30 0 35 30t-25 30h-150q-30 0 -35 -30t25 -30zM431 750h150q30 0 35 30q6 30 -24 30h-150q-30 0 -36 -30q-5 -30 25 -30zM102 330q-5 -30 25 -30h300q30 0 35 30t-25 30h-300q-30 0 -35 -30z" />
    <glyph glyph-name="OE" unicode="&#x152;" horiz-adv-x="930" 
d="M124 600h750q30 0 36 30q5 30 -25 30h-750q-30 0 -35 -30q-6 -30 24 -30zM138 675h750q30 0 35 30t-25 30h-750q-30 0 -35 -30t25 -30zM45 150h750q30 0 35 30q6 30 -24 30h-750q-30 0 -36 -30q-5 -30 25 -30zM32 75h750q30 0 35 30t-25 30h-750q-30 0 -35 -30t25 -30z
M69 30q-5 -30 25 -30h675q30 0 35 30t-25 30h-675q-30 0 -35 -30zM201 780q-5 -30 25 -30h675q30 0 35 30t-25 30h-675q-30 0 -35 -30zM385 375h450q30 0 35 30t-25 30h-450q-30 0 -35 -30t25 -30zM371 300h450q30 0 36 30q5 30 -25 30h-450q-30 0 -35 -30q-6 -30 24 -30z
M398 450h450q30 0 35 30q6 30 -24 30h-450q-30 0 -36 -30q-5 -30 25 -30zM47 330q-6 -30 24 -30h150q30 0 36 30q5 30 -25 30h-150q-30 0 -35 -30zM98 450h150q30 0 35 30q6 30 -24 30h-150q-30 0 -36 -30q-5 -30 25 -30zM60 405q-5 -30 25 -30h150q30 0 35 30t-25 30h-150
q-30 0 -35 -30zM411 525h150q30 0 35 30q6 30 -24 30h-150q-30 0 -36 -30q-5 -30 25 -30zM86 555q-5 -30 25 -30h150q30 0 35 30q6 30 -24 30h-150q-30 0 -36 -30zM334 255q-6 -30 24 -30h150q30 0 36 30q5 30 -25 30h-150q-30 0 -35 -30zM34 255q-6 -30 24 -30h150
q30 0 36 30q5 30 -25 30h-150q-30 0 -35 -30z" />
    <glyph glyph-name="oe" unicode="&#x153;" horiz-adv-x="930" 
d="M124 600h750q30 0 36 30q5 30 -25 30h-750q-30 0 -35 -30q-6 -30 24 -30zM138 675h750q30 0 35 30t-25 30h-750q-30 0 -35 -30t25 -30zM45 150h750q30 0 35 30q6 30 -24 30h-750q-30 0 -36 -30q-5 -30 25 -30zM32 75h750q30 0 35 30t-25 30h-750q-30 0 -35 -30t25 -30z
M69 30q-5 -30 25 -30h675q30 0 35 30t-25 30h-675q-30 0 -35 -30zM201 780q-5 -30 25 -30h675q30 0 35 30t-25 30h-675q-30 0 -35 -30zM385 375h450q30 0 35 30t-25 30h-450q-30 0 -35 -30t25 -30zM371 300h450q30 0 36 30q5 30 -25 30h-450q-30 0 -35 -30q-6 -30 24 -30z
M398 450h450q30 0 35 30q6 30 -24 30h-450q-30 0 -36 -30q-5 -30 25 -30zM47 330q-6 -30 24 -30h150q30 0 36 30q5 30 -25 30h-150q-30 0 -35 -30zM98 450h150q30 0 35 30q6 30 -24 30h-150q-30 0 -36 -30q-5 -30 25 -30zM60 405q-5 -30 25 -30h150q30 0 35 30t-25 30h-150
q-30 0 -35 -30zM411 525h150q30 0 35 30q6 30 -24 30h-150q-30 0 -36 -30q-5 -30 25 -30zM86 555q-5 -30 25 -30h150q30 0 35 30q6 30 -24 30h-150q-30 0 -36 -30zM334 255q-6 -30 24 -30h150q30 0 36 30q5 30 -25 30h-150q-30 0 -35 -30zM34 255q-6 -30 24 -30h150
q30 0 36 30q5 30 -25 30h-150q-30 0 -35 -30z" />
    <glyph glyph-name="Scaron" unicode="&#x160;" 
d="M12 75h450q30 0 35 30q6 30 -24 30h-450q-30 0 -36 -30q-5 -30 25 -30zM25 150h450q30 0 35 30q6 30 -24 30h-450q-30 0 -36 -30q-5 -30 25 -30zM105 600h450q30 0 35 30t-25 30h-450q-30 0 -35 -30t25 -30zM118 675h450q30 0 35 30t-25 30h-450q-30 0 -35 -30t25 -30z
M314 255q-6 -30 24 -30h150q30 0 36 30q5 30 -25 30h-150q-30 0 -35 -30zM67 555q-6 -30 24 -30h150q30 0 36 30q5 30 -25 30h-150q-30 0 -35 -30zM53 480q-5 -30 25 -30h375q30 0 35 30q6 30 -24 30h-375q-30 0 -36 -30zM95 330q-5 -30 25 -30h382q30 0 35 30t-25 30h-382
q-30 0 -35 -30zM-26 30q-5 -30 25 -30h375q30 0 35 30t-25 30h-375q-30 0 -35 -30zM181 780q-5 -30 25 -30h375q30 0 35 30q6 30 -24 30h-375q-30 0 -36 -30zM40 405q-5 -30 25 -30h450q30 0 35 30t-25 30h-450q-30 0 -35 -30zM463 930q5 30 -25 30h-75q-30 0 -35 -30
q-6 -30 24 -30h75q30 0 36 30zM551 1005q5 30 -25 30h-225q-30 0 -35 -30t25 -30h225q30 0 35 30z" />
    <glyph glyph-name="scaron" unicode="&#x161;" 
d="M12 75h450q30 0 35 30q6 30 -24 30h-450q-30 0 -36 -30q-5 -30 25 -30zM25 150h450q30 0 35 30q6 30 -24 30h-450q-30 0 -36 -30q-5 -30 25 -30zM105 600h450q30 0 35 30t-25 30h-450q-30 0 -35 -30t25 -30zM118 675h450q30 0 35 30t-25 30h-450q-30 0 -35 -30t25 -30z
M314 255q-6 -30 24 -30h150q30 0 36 30q5 30 -25 30h-150q-30 0 -35 -30zM67 555q-6 -30 24 -30h150q30 0 36 30q5 30 -25 30h-150q-30 0 -35 -30zM53 480q-5 -30 25 -30h375q30 0 35 30q6 30 -24 30h-375q-30 0 -36 -30zM95 330q-5 -30 25 -30h382q30 0 35 30t-25 30h-382
q-30 0 -35 -30zM-26 30q-5 -30 25 -30h375q30 0 35 30t-25 30h-375q-30 0 -35 -30zM181 780q-5 -30 25 -30h375q30 0 35 30q6 30 -24 30h-375q-30 0 -36 -30zM40 405q-5 -30 25 -30h450q30 0 35 30t-25 30h-450q-30 0 -35 -30zM463 930q5 30 -25 30h-75q-30 0 -35 -30
q-6 -30 24 -30h75q30 0 36 30zM551 1005q5 30 -25 30h-225q-30 0 -35 -30t25 -30h225q30 0 35 30z" />
    <glyph glyph-name="Ydieresis" unicode="&#x178;" 
d="M221 1005q-5 -30 25 -30h75q30 0 35 30t-25 30h-75q-30 0 -35 -30zM208 930q-6 -30 24 -30h75q30 0 36 30q5 30 -25 30h-75q-30 0 -35 -30zM446 1005q-5 -30 25 -30h75q30 0 35 30t-25 30h-75q-30 0 -35 -30zM433 930q-6 -30 24 -30h75q30 0 36 30q5 30 -25 30h-75
q-30 0 -35 -30zM65 375h450q30 0 35 30t-25 30h-450q-30 0 -35 -30t25 -30zM78 450h450q30 0 35 30q6 30 -24 30h-450q-30 0 -36 -30q-5 -30 25 -30zM124 30q-5 -30 25 -30h150q30 0 35 30t-25 30h-150q-30 0 -35 -30zM137 105q-5 -30 25 -30h150q30 0 35 30q6 30 -24 30
h-150q-30 0 -36 -30zM175 150h150q30 0 35 30q6 30 -24 30h-150q-30 0 -36 -30q-5 -30 25 -30zM188 225h150q30 0 36 30q5 30 -25 30h-150q-30 0 -35 -30q-6 -30 24 -30zM67 555q-6 -30 24 -30h150q30 0 36 30q5 30 -25 30h-150q-30 0 -35 -30zM80 630q-5 -30 25 -30h150
q30 0 35 30t-25 30h-150q-30 0 -35 -30zM118 675h150q30 0 35 30t-25 30h-150q-30 0 -35 -30t25 -30zM131 750h150q30 0 35 30q6 30 -24 30h-150q-30 0 -36 -30q-5 -30 25 -30zM367 555q-6 -30 24 -30h150q30 0 36 30q5 30 -25 30h-150q-30 0 -35 -30zM380 630
q-5 -30 25 -30h150q30 0 35 30t-25 30h-150q-30 0 -35 -30zM418 675h150q30 0 35 30t-25 30h-150q-30 0 -35 -30t25 -30zM431 750h150q30 0 35 30q6 30 -24 30h-150q-30 0 -36 -30q-5 -30 25 -30zM102 330q-5 -30 25 -30h300q30 0 35 30t-25 30h-300q-30 0 -35 -30z" />
    <glyph glyph-name="florin" unicode="&#x192;" horiz-adv-x="480" 
d="M146 300h150q30 0 36 30q5 30 -25 30h-150q-30 0 -35 -30q-6 -30 24 -30zM160 375h150q30 0 35 30t-25 30h-150q-30 0 -35 -30t25 -30zM98 450h300q30 0 35 30q6 30 -24 30h-300q-30 0 -36 -30q-5 -30 25 -30zM199 600h150q30 0 36 30q5 30 -25 30h-150q-30 0 -35 -30
q-6 -30 24 -30zM213 675h150q30 0 35 30t-25 30h-150q-30 0 -35 -30t25 -30zM82 105q-5 -30 25 -30h150q30 0 35 30t-25 30h-150q-30 0 -35 -30zM95 180q-5 -30 25 -30h150q30 0 35 30q6 30 -24 30h-150q-30 0 -36 -30zM133 225h150q30 0 36 30q5 30 -25 30h-150
q-30 0 -35 -30q-6 -30 24 -30zM19 0h225q30 0 35 30t-25 30h-225q-30 0 -35 -30t25 -30zM86 555q-5 -30 25 -30h300q30 0 35 30q6 30 -24 30h-300q-30 0 -36 -30zM201 780q-5 -30 25 -30h225q30 0 35 30t-25 30h-225q-30 0 -35 -30zM289 855q-5 -30 25 -30h150q30 0 35 30
q6 30 -24 30h-150q-30 0 -36 -30zM5 -75h150q30 0 36 30q5 30 -25 30h-150q-30 0 -35 -30q-6 -30 24 -30z" />
    <glyph glyph-name="circumflex" unicode="&#x2c6;" horiz-adv-x="405" 
d="M142 780q-6 -30 24 -30h75q30 0 36 30q5 30 -25 30h-75q-30 0 -35 -30zM53 705q-5 -30 25 -30h225q30 0 35 30q6 30 -24 30h-225q-30 0 -36 -30z" />
    <glyph glyph-name="tilde" unicode="&#x2dc;" horiz-adv-x="480" 
d="M60 780q-5 -30 25 -30h300q30 0 35 30t-25 30h-300q-30 0 -35 -30z" />
    <glyph glyph-name="mu" unicode="&#x3bc;" 
d="M58 75h300q30 0 36 30q5 30 -25 30h-300q-30 0 -35 -30q-6 -30 24 -30zM71 150h300q30 0 36 30q5 30 -25 30h-300q-30 0 -35 -30q-6 -30 24 -30zM20 30q-5 -30 25 -30h150q30 0 35 30q6 30 -24 30h-150q-30 0 -36 -30zM320 30q-5 -30 25 -30h150q30 0 35 30q6 30 -24 30
h-150q-30 0 -36 -30zM32 -75h75q30 0 35 30t-25 30h-75q-30 0 -35 -30t25 -30zM124 450h75q30 0 36 30q5 30 -25 30h-75q-30 0 -35 -30q-6 -30 24 -30zM60 255q-5 -30 25 -30h75q30 0 35 30t-25 30h-75q-30 0 -35 -30zM298 330q-5 -30 25 -30h75q30 0 35 30q6 30 -24 30h-75
q-30 0 -36 -30zM73 330q-5 -30 25 -30h75q30 0 35 30q6 30 -24 30h-75q-30 0 -36 -30zM349 450h75q30 0 36 30q5 30 -25 30h-75q-30 0 -35 -30q-6 -30 24 -30zM338 555q-5 -30 25 -30h75q30 0 35 30t-25 30h-75q-30 0 -35 -30zM351 630q-5 -30 25 -30h75q30 0 35 30t-25 30
h-75q-30 0 -35 -30zM113 555q-5 -30 25 -30h75q30 0 35 30t-25 30h-75q-30 0 -35 -30zM126 630q-5 -30 25 -30h75q30 0 35 30t-25 30h-75q-30 0 -35 -30zM285 255q-5 -30 25 -30h75q30 0 35 30t-25 30h-75q-30 0 -35 -30zM336 375h75q30 0 35 30q6 30 -24 30h-75
q-30 0 -36 -30q-5 -30 25 -30zM111 375h75q30 0 35 30q6 30 -24 30h-75q-30 0 -36 -30q-5 -30 25 -30zM19 -150h75q30 0 35 30t-25 30h-75q-30 0 -35 -30t25 -30zM484 105q-6 -30 24 -30t36 30q5 30 -25 30t-35 -30z" />
    <glyph glyph-name="endash" unicode="&#x2013;" 
d="M60 405q-5 -30 25 -30h450q30 0 35 30t-25 30h-450q-30 0 -35 -30zM73 480q-5 -30 25 -30h450q30 0 35 30q6 30 -24 30h-450q-30 0 -36 -30zM71 300h450q30 0 36 30q5 30 -25 30h-450q-30 0 -35 -30q-6 -30 24 -30z" />
    <glyph glyph-name="emdash" unicode="&#x2014;" 
d="M60 405q-5 -30 25 -30h450q30 0 35 30t-25 30h-450q-30 0 -35 -30zM73 480q-5 -30 25 -30h450q30 0 35 30q6 30 -24 30h-450q-30 0 -36 -30zM71 300h450q30 0 36 30q5 30 -25 30h-450q-30 0 -35 -30q-6 -30 24 -30z" />
    <glyph glyph-name="quoteleft" unicode="&#x2018;" horiz-adv-x="330" 
d="M122 809h150q30 0 24 -30q-5 -30 -35 -30h-150q-30 0 -25 30q6 30 36 30zM108 734h150q30 0 25 -30t-35 -30h-150q-30 0 -25 30t35 30zM60 630q5 30 35 30h150q30 0 25 -30t-35 -30h-150q-30 0 -25 30zM109 480q5 30 35 30h75q30 0 25 -30q-6 -30 -36 -30h-75
q-30 0 -24 30zM47 555q5 30 35 30h150q30 0 25 -30t-35 -30h-150q-30 0 -25 30z" />
    <glyph glyph-name="quoteright" unicode="&#x2019;" horiz-adv-x="330" 
d="M122 809h150q30 0 24 -30q-5 -30 -35 -30h-150q-30 0 -25 30q6 30 36 30zM108 734h150q30 0 25 -30t-35 -30h-150q-30 0 -25 30t35 30zM60 630q5 30 35 30h150q30 0 25 -30t-35 -30h-150q-30 0 -25 30zM109 480q5 30 35 30h75q30 0 25 -30q-6 -30 -36 -30h-75
q-30 0 -24 30zM47 555q5 30 35 30h150q30 0 25 -30t-35 -30h-150q-30 0 -25 30z" />
    <glyph glyph-name="quotesinglbase" unicode="&#x201a;" horiz-adv-x="330" 
d="M122 209h150q30 0 24 -30q-5 -30 -35 -30h-150q-30 0 -25 30q6 30 36 30zM108 134h150q30 0 25 -30t-35 -30h-150q-30 0 -25 30t35 30zM60 30q5 30 35 30h150q30 0 25 -30t-35 -30h-150q-30 0 -25 30zM109 -120q5 30 35 30h75q30 0 25 -30q-6 -30 -36 -30h-75
q-30 0 -24 30zM47 -45q5 30 35 30h150q30 0 25 -30t-35 -30h-150q-30 0 -25 30z" />
    <glyph glyph-name="quotedblleft" unicode="&#x201c;" 
d="M122 809h150q30 0 24 -30q-5 -30 -35 -30h-150q-30 0 -25 30q6 30 36 30zM108 734h150q30 0 25 -30t-35 -30h-150q-30 0 -25 30t35 30zM60 630q5 30 35 30h150q30 0 25 -30t-35 -30h-150q-30 0 -25 30zM422 810h150q30 0 24 -30q-5 -30 -35 -30h-150q-30 0 -25 30
q6 30 36 30zM409 735h150q30 0 24 -30q-5 -30 -35 -30h-150q-30 0 -25 30q6 30 36 30zM360 631q5 30 35 30h150q30 0 25 -30t-35 -30h-150q-30 0 -25 30zM109 480q5 30 35 30h75q30 0 25 -30q-6 -30 -36 -30h-75q-30 0 -24 30zM47 555q5 30 35 30h150q30 0 25 -30
q-6 -30 -36 -30h-150q-30 0 -24 30zM409 481q5 30 35 30h75q30 0 25 -30q-6 -30 -36 -30h-75q-30 0 -24 30zM347 556q5 30 35 30h150q30 0 25 -30t-35 -30h-150q-30 0 -25 30z" />
    <glyph glyph-name="quotedblright" unicode="&#x201d;" 
d="M122 809h150q30 0 24 -30q-5 -30 -35 -30h-150q-30 0 -25 30q6 30 36 30zM108 734h150q30 0 25 -30t-35 -30h-150q-30 0 -25 30t35 30zM60 630q5 30 35 30h150q30 0 25 -30t-35 -30h-150q-30 0 -25 30zM422 810h150q30 0 24 -30q-5 -30 -35 -30h-150q-30 0 -25 30
q6 30 36 30zM409 735h150q30 0 24 -30q-5 -30 -35 -30h-150q-30 0 -25 30q6 30 36 30zM360 631q5 30 35 30h150q30 0 25 -30t-35 -30h-150q-30 0 -25 30zM109 480q5 30 35 30h75q30 0 25 -30q-6 -30 -36 -30h-75q-30 0 -24 30zM47 555q5 30 35 30h150q30 0 25 -30
q-6 -30 -36 -30h-150q-30 0 -24 30zM409 481q5 30 35 30h75q30 0 25 -30q-6 -30 -36 -30h-75q-30 0 -24 30zM347 556q5 30 35 30h150q30 0 25 -30t-35 -30h-150q-30 0 -25 30z" />
    <glyph glyph-name="quotedblbase" unicode="&#x201e;" 
d="M122 209h150q30 0 24 -30q-5 -30 -35 -30h-150q-30 0 -25 30q6 30 36 30zM108 134h150q30 0 25 -30t-35 -30h-150q-30 0 -25 30t35 30zM60 30q5 30 35 30h150q30 0 25 -30t-35 -30h-150q-30 0 -25 30zM422 210h150q30 0 24 -30q-5 -30 -35 -30h-150q-30 0 -25 30
q6 30 36 30zM409 135h150q30 0 24 -30q-5 -30 -35 -30h-150q-30 0 -25 30q6 30 36 30zM360 31q5 30 35 30h150q30 0 25 -30t-35 -30h-150q-30 0 -25 30zM109 -120q5 30 35 30h75q30 0 25 -30q-6 -30 -36 -30h-75q-30 0 -24 30zM47 -45q5 30 35 30h150q30 0 25 -30
q-6 -30 -36 -30h-150q-30 0 -24 30zM409 -119q5 30 35 30h75q30 0 25 -30q-6 -30 -36 -30h-75q-30 0 -24 30zM347 -44q5 30 35 30h150q30 0 25 -30t-35 -30h-150q-30 0 -25 30z" />
    <glyph glyph-name="dagger" unicode="&#x2020;" horiz-adv-x="479" 
d="M281 210h-150q-30 0 -36 -30q-5 -30 25 -30h150q30 0 35 30q6 30 -24 30zM267 135h-150q-30 0 -35 -30t25 -30h150q30 0 35 30t-25 30zM320 435h-150q-30 0 -35 -30t25 -30h150q30 0 35 30t-25 30zM371 555q6 30 -24 30h-150q-30 0 -36 -30q-5 -30 25 -30h150q30 0 35 30
zM254 60h-150q-30 0 -35 -30t25 -30h150q30 0 35 30t-25 30zM294 285h-150q-30 0 -35 -30q-6 -30 24 -30h150q30 0 36 30q5 30 -25 30zM334 510h-150q-30 0 -36 -30q-5 -30 25 -30h150q30 0 35 30q6 30 -24 30zM373 735h-150q-30 0 -35 -30t25 -30h150q30 0 35 30t-25 30z
M435 660h-300q-30 0 -35 -30q-6 -30 24 -30h300q30 0 36 30q5 30 -25 30zM307 360h-150q-30 0 -35 -30q-6 -30 24 -30h150q30 0 36 30q5 30 -25 30zM411 780q5 30 -25 30h-150q-30 0 -35 -30t25 -30h150q30 0 35 30z" />
    <glyph glyph-name="daggerdbl" unicode="&#x2021;" horiz-adv-x="480" 
d="M281 210h-150q-30 0 -36 -30q-5 -30 25 -30h150q30 0 35 30q6 30 -24 30zM267 135h-150q-30 0 -35 -30t25 -30h150q30 0 35 30t-25 30zM320 435h-150q-30 0 -35 -30t25 -30h150q30 0 35 30t-25 30zM371 555q6 30 -24 30h-150q-30 0 -36 -30q-5 -30 25 -30h150q30 0 35 30
zM254 60h-150q-30 0 -35 -30t25 -30h150q30 0 35 30t-25 30zM369 285h-300q-30 0 -35 -30q-6 -30 24 -30h300q30 0 36 30q5 30 -25 30zM334 510h-150q-30 0 -36 -30q-5 -30 25 -30h150q30 0 35 30q6 30 -24 30zM373 735h-150q-30 0 -35 -30t25 -30h150q30 0 35 30t-25 30z
M435 660h-300q-30 0 -35 -30q-6 -30 24 -30h300q30 0 36 30q5 30 -25 30zM307 360h-150q-30 0 -35 -30q-6 -30 24 -30h150q30 0 36 30q5 30 -25 30zM411 780q5 30 -25 30h-150q-30 0 -35 -30t25 -30h150q30 0 35 30z" />
    <glyph glyph-name="bullet" unicode="&#x2022;" horiz-adv-x="405" 
d="M60 405q-5 -30 25 -30h225q30 0 35 30t-25 30h-225q-30 0 -35 -30zM73 480q-5 -30 25 -30h225q30 0 35 30q6 30 -24 30h-225q-30 0 -36 -30zM71 300h225q30 0 36 30q5 30 -25 30h-225q-30 0 -35 -30q-6 -30 24 -30z" />
    <glyph glyph-name="ellipsis" unicode="&#x2026;" horiz-adv-x="930" 
d="M60 105q-5 -30 25 -30h150q30 0 35 30t-25 30h-150q-30 0 -35 -30zM73 180q-5 -30 25 -30h150q30 0 35 30q6 30 -24 30h-150q-30 0 -36 -30zM71 0h150q30 0 36 30q5 30 -25 30h-150q-30 0 -35 -30q-6 -30 24 -30zM360 105q-5 -30 25 -30h150q30 0 35 30t-25 30h-150
q-30 0 -35 -30zM373 180q-5 -30 25 -30h150q30 0 35 30q6 30 -24 30h-150q-30 0 -36 -30zM371 0h150q30 0 36 30q5 30 -25 30h-150q-30 0 -35 -30q-6 -30 24 -30zM660 105q-5 -30 25 -30h150q30 0 35 30t-25 30h-150q-30 0 -35 -30zM673 180q-5 -30 25 -30h150q30 0 35 30
q6 30 -24 30h-150q-30 0 -36 -30zM671 0h150q30 0 36 30q5 30 -25 30h-150q-30 0 -35 -30q-6 -30 24 -30z" />
    <glyph glyph-name="perthousand" unicode="&#x2030;" 
d="M424 600h150q30 0 36 30q5 30 -25 30h-150q-30 0 -35 -30q-6 -30 24 -30zM438 675h150q30 0 35 30t-25 30h-150q-30 0 -35 -30t25 -30zM151 750h150q30 0 35 30t-25 30h-150q-30 0 -35 -30t25 -30zM319 0h150q30 0 35 30t-25 30h-150q-30 0 -35 -30t25 -30zM32 75h150
q30 0 35 30t-25 30h-150q-30 0 -35 -30t25 -30zM45 150h150q30 0 35 30q6 30 -24 30h-150q-30 0 -36 -30q-5 -30 25 -30zM298 480q-5 -30 25 -30h150q30 0 35 30q6 30 -24 30h-150q-30 0 -36 -30zM133 225h150q30 0 36 30q5 30 -25 30h-150q-30 0 -35 -30q-6 -30 24 -30z
M336 525h150q30 0 35 30q6 30 -24 30h-150q-30 0 -36 -30q-5 -30 25 -30zM122 330q-6 -30 24 -30h150q30 0 36 30q5 30 -25 30h-150q-30 0 -35 -30zM235 375h150q30 0 35 30t-25 30h-150q-30 0 -35 -30t25 -30zM138 675h150q30 0 35 30t-25 30h-150q-30 0 -35 -30t25 -30z
M124 600h150q30 0 36 30q5 30 -25 30h-150q-30 0 -35 -30q-6 -30 24 -30zM332 75h150q30 0 35 30t-25 30h-150q-30 0 -35 -30t25 -30zM345 150h150q30 0 35 30q6 30 -24 30h-150q-30 0 -36 -30q-5 -30 25 -30z" />
    <glyph glyph-name="guilsinglleft" unicode="&#x2039;" horiz-adv-x="479" 
d="M121 330q5 30 35 30h150q29 0 24 -30q-6 -30 -35 -30h-150q-30 0 -24 30zM183 510h150q29 0 23 -30q-5 -30 -34 -30h-150q-30 0 -25 30q6 30 36 30zM217 285h150q30 0 25 -30q-6 -30 -36 -30h-150q-30 0 -24 30q5 30 35 30zM234 555q6 30 36 30h151q30 0 24 -30
q-5 -30 -35 -30h-151q-30 0 -25 30zM58 405q5 30 35 30h150q30 0 25 -30t-35 -30h-150q-30 0 -25 30z" />
    <glyph glyph-name="guilsinglright" unicode="&#x203a;" horiz-adv-x="479" 
d="M357 480q-5 -30 -35 -30h-150q-29 0 -24 30q6 30 35 30h150q30 0 24 -30zM295 300h-150q-29 0 -23 30q5 30 34 30h150q30 0 25 -30q-6 -30 -36 -30zM261 525h-150q-30 0 -25 30q6 30 36 30h150q30 0 24 -30q-5 -30 -35 -30zM244 255q-6 -30 -36 -30h-151q-30 0 -24 30
q5 30 35 30h151q30 0 25 -30zM420 405q-5 -30 -35 -30h-150q-30 0 -25 30t35 30h150q30 0 25 -30z" />
    <glyph glyph-name="periodcentered" unicode="&#xb7;" horiz-adv-x="405" 
d="M60 405q-5 -30 25 -30h225q30 0 35 30t-25 30h-225q-30 0 -35 -30zM73 480q-5 -30 25 -30h225q30 0 35 30q6 30 -24 30h-225q-30 0 -36 -30zM71 300h225q30 0 36 30q5 30 -25 30h-225q-30 0 -35 -30q-6 -30 24 -30z" />
    <glyph glyph-name="periodcentered" unicode="&#x2219;" horiz-adv-x="405" 
d="M60 405q-5 -30 25 -30h225q30 0 35 30t-25 30h-225q-30 0 -35 -30zM73 480q-5 -30 25 -30h225q30 0 35 30q6 30 -24 30h-225q-30 0 -36 -30zM71 300h225q30 0 36 30q5 30 -25 30h-225q-30 0 -35 -30q-6 -30 24 -30z" />
    <glyph glyph-name="glyph204" 
 />
    <glyph glyph-name="glyph205" 
 />
    <glyph glyph-name="glyph203" 
d="M105 600h450q30 0 35 30t-25 30h-450q-30 0 -35 -30t25 -30zM118 675h450q30 0 35 30t-25 30h-450q-30 0 -35 -30t25 -30zM131 750h450q30 0 35 30q6 30 -24 30h-450q-30 0 -36 -30q-5 -30 25 -30zM-1 0h450q30 0 35 30t-25 30h-450q-30 0 -35 -30t25 -30zM12 75h450
q30 0 35 30q6 30 -24 30h-450q-30 0 -36 -30q-5 -30 25 -30zM25 150h450q30 0 35 30q6 30 -24 30h-450q-30 0 -36 -30q-5 -30 25 -30zM203 480q-5 -30 25 -30h225q30 0 35 30q6 30 -24 30h-225q-30 0 -36 -30zM38 225h225q30 0 36 30q5 30 -25 30h-225q-30 0 -35 -30
q-6 -30 24 -30zM316 525h225q30 0 36 30q5 30 -25 30h-225q-30 0 -35 -30q-6 -30 24 -30zM27 330q-5 -30 25 -30h225q30 0 35 30t-25 30h-225q-30 0 -35 -30zM140 375h225q30 0 35 30t-25 30h-225q-30 0 -35 -30t25 -30zM463 930q5 30 -25 30h-75q-30 0 -35 -30
q-6 -30 24 -30h75q30 0 36 30zM551 1005q5 30 -25 30h-225q-30 0 -35 -30t25 -30h225q30 0 35 30z" />
  </font>
</defs>
</svg>
